<?xml version="1.0" encoding="utf-8"?>
<!-- Generator: Adobe Illustrator 18.1.1, SVG Export Plug-In . SVG Version: 6.00 Build 0)  -->
<svg version="1.1" id="图层_1" xmlns="http://www.w3.org/2000/svg" xmlns:xlink="http://www.w3.org/1999/xlink" x="0px" y="0px"
	 viewBox="399 -62.7 1280 720" enable-background="new 399 -62.7 1280 720" xml:space="preserve">
<g>
	<defs>
		<rect id="SVGID_1_" x="399" y="-62.7" width="1280" height="720"/>
	</defs>
	<clipPath id="SVGID_2_">
		<use xlink:href="#SVGID_1_"  overflow="visible"/>
	</clipPath>
	<g clip-path="url(#SVGID_2_)">
		<rect x="399" y="-62.7" fill="#FFFFFF" width="1280" height="720"/>
		<path fill="#F2F2F2" d="M988.5-41.4c-0.6-3.6,3.3-8.3,7.9-7.8c17.3-1,31.1-0.2,49,0c18,0.2,27.1-2,47.1,0c3.8,0.2,7.6,3.7,7.9,7.8
			c0.8,8.5,0.5,20.9,0,31.3c-0.8,4.1-3.5,7.4-7.9,7.8c-13.8-1.1-35.2-2.1-48.1,0c-12.8,2.1-35.5-1.6-48.1,0c-3.7,0-7-3.8-7.9-7.8
			C989.4-20.8,988.2-33.1,988.5-41.4z"/>
		<path fill="none" stroke="#2F528F" stroke-width="1.3333" stroke-miterlimit="8" d="M988.5-41.4c-0.3-4.5,3.8-8,7.9-7.8
			c12.1,0.6,25.7,1,45.2,0c19.4-1,28,1.8,50.9,0c4.6-0.2,6.9,3.5,7.9,7.8c0.1,6.4,0.9,17.8,0,31.3c0.4,4.4-3.3,8.2-7.9,7.8
			c-23.8,1.2-34.9,1.5-49,0c-14.1-1.5-29.1,2.1-47.1,0c-5.2-0.1-7.7-3.2-7.9-7.8C989.4-23.5,988.8-26.2,988.5-41.4z"/>
		<text transform="matrix(1 0 0 1 1000.953 -18.72)" font-family="'AdobeSongStd-Light-GBpc-EUC-H'" font-size="21">资料类型</text>
		<path fill="#F2F2F2" d="M683.5,30.8c0.2-4.3,4.1-7.1,7.9-8c19.2,2,36.1,1.8,49,0c12.9-1.8,29,0,47.1,0c3.9,0.1,8,3.3,7.9,8
			c0,15-1.4,24.9,0,32c-0.6,3.8-3.5,7.5-7.9,8c-15.5-1.2-31.3,2.1-45.2,0c-13.9-2.1-35.3-1.3-50.9,0c-4.6,0-7.3-3.5-7.9-8
			C683.9,51.7,683.6,44.2,683.5,30.8z"/>
		<path fill="none" stroke="#2F528F" stroke-width="1.3333" stroke-miterlimit="8" d="M683.5,30.8c-0.3-4.5,3.5-8.4,7.9-8
			c17.5-2.2,30.2-0.1,45.2,0c15,0.1,36.1-1.7,50.9,0c3.8-0.1,7.8,3.9,7.9,8c1.2,10.4-0.2,22.5,0,32c0.9,4.4-3.9,8.1-7.9,8
			c-9.4-1.5-27.8-1.8-46.1,0c-18.4,1.8-29.4-2.3-50,0c-4.5-0.3-7.7-3.9-7.9-8C684.3,53.2,682,37.5,683.5,30.8z"/>
		<text transform="matrix(1 0 0 1 696.719 53.28)" font-family="'AdobeSongStd-Light-GBpc-EUC-H'" font-size="21">定量资料</text>
		<path fill="#F2F2F2" d="M1249.5,30.8c0.3-4.4,4.3-7.2,8-8c10.5,2.1,35.7,2.1,47.5,0c11.8-2.1,26.2,1.9,49.5,0c4.1-0.2,7.7,4.5,8,8
			c-0.1,8.3-1.1,20.1,0,32c-0.7,5.1-3.3,8.1-8,8c-12.2-2.1-32,1.2-48.5,0c-16.5-1.2-25.5,0.1-48.5,0c-5.4,0-7.7-3.6-8-8
			C1249.4,52.2,1249.4,39.5,1249.5,30.8z"/>
		<path fill="none" stroke="#2F528F" stroke-width="1.3333" stroke-miterlimit="8" d="M1249.5,30.8c0.4-4,3.8-8.1,8-8
			c23.2,0.2,23.4-2.2,46.6,0c23.2,2.2,28,1.4,50.4,0c4.3,0.1,9,3.5,8,8c-1.4,7.9,1.2,18.9,0,32c0,4.1-3.8,9-8,8
			c-17.8-0.8-37.7,1-47.5,0c-9.8-1-30.6-0.9-49.5,0c-3.9-0.4-8.6-3.4-8-8C1250,52.2,1248.4,38.9,1249.5,30.8z"/>
		<text transform="matrix(1 0 0 1 1262.9041 53.28)" font-family="'AdobeSongStd-Light-GBpc-EUC-H'" font-size="21">分类资料</text>
		<path fill="#F2F2F2" d="M542.5,117.8c-0.1-4.5,3.3-8.1,7.9-8c21.9,2.4,28.1,2,50,0c21.9-2,35.7,1.4,46.1,0c4.3,0.8,8.5,3,7.9,8
			c1.2,7.6-1.3,19.6,0,32c-0.8,4.4-3,7.8-7.9,8c-13.4,0.6-38.5,1.8-49,0s-23.6,2.1-47.1,0c-3.7-0.6-8.8-3.8-7.9-8
			C541.9,142.6,542.9,132.9,542.5,117.8z"/>
		<path fill="none" stroke="#2F528F" stroke-width="1.3333" stroke-miterlimit="8" d="M542.5,117.8c0.2-4.6,3.8-7,7.9-8
			c12.8,0.2,37.2-1.6,49,0s36.7,1.2,47.1,0c5.4,0.2,7.9,3.9,7.9,8c-0.1,8.6-0.6,22.3,0,32c-0.1,4.1-2.7,7.9-7.9,8
			c-10.7,1.5-33.3,1.3-48.1,0c-14.8-1.3-32.2-2.3-48.1,0c-4.7,0-7.8-3.5-7.9-8C542.1,134.7,543.1,132.1,542.5,117.8z"/>
		<text transform="matrix(1 0 0 1 554.914 141.28)" font-family="'AdobeSongStd-Light-GBpc-EUC-H'" font-size="21">两组比较</text>
		<path fill="#F2F2F2" d="M850.5,117.8c0-3.8,3.5-8.3,7.9-8c18.5-1.6,25.6-0.9,50,0c24.4,0.9,29,1.4,46.1,0c4.7,0.4,8,4,7.9,8
			c-1,8.9,0.2,16.4,0,32c-0.7,4.8-4.2,8.6-7.9,8c-11.3,1.6-38.1-1.5-49,0c-10.9,1.5-35.2,1.1-47.1,0c-3.9-0.6-7.6-3.8-7.9-8
			C850.5,142.7,851.1,124.5,850.5,117.8z"/>
		<path fill="none" stroke="#2F528F" stroke-width="1.3333" stroke-miterlimit="8" d="M850.5,117.8c-0.3-5.1,3.4-7.1,7.9-8
			c17.3,0.1,30-2.1,47.1,0c17.1,2.1,30.9,0.4,49,0c4.5,0.8,7.7,4.1,7.9,8c-0.2,12.4-0.3,19.2,0,32c0.2,4.7-3,7.5-7.9,8
			c-19.8,2.2-36.8-0.1-48.1,0s-35.8,1.4-48.1,0c-4.6-0.2-8-3-7.9-8C850.3,137.9,851.3,124.2,850.5,117.8z"/>
		<text transform="matrix(1 0 0 1 863.017 141.28)" font-family="'AdobeSongStd-Light-GBpc-EUC-H'" font-size="21">多组比较</text>
		<path fill="none" stroke="#4472C4" stroke-width="0.6667" stroke-miterlimit="8" d="M1043.7-2.2V10H739.5v12.2"/>
		<path fill="none" stroke="#4472C4" stroke-width="0.6667" stroke-miterlimit="8" d="M1044.5-2.2V10l262,0v12.2"/>
		<path fill="none" stroke="#4472C4" stroke-width="0.6667" stroke-miterlimit="8" d="M739.5,70.8v20l166.3,0v20"/>
		<path fill="none" stroke="#4472C4" stroke-width="0.6667" stroke-miterlimit="8" d="M740.3,70.8v20H598.5v20"/>
		<path fill="#FBE5D6" d="M462.5,208.8c-0.2-4.7,3.4-6.9,7.9-8c11.5,0.4,24.7-1.8,45.2,0c20.5,1.8,28.4,1.4,50.9,0
			c4.4-0.2,8.4,4,7.9,8c-1.1,10.3-1.4,19.5,0,32c0,5.2-4,7.7-7.9,8c-22.1,0.5-29.2,1.6-50,0c-20.8-1.6-24.3-1.6-46.1,0
			c-4.6,1.1-8.8-3.5-7.9-8C461.9,232.8,462.7,224.5,462.5,208.8z"/>
		<path fill="none" stroke="#2F528F" stroke-width="1.3333" stroke-miterlimit="8" d="M462.5,208.8c0.1-4.5,3.8-7.9,7.9-8
			c19.4,0.2,24.2-2.1,48.1,0c23.8,2.1,28.6,1.9,48.1,0c4.2-0.5,7.4,4.1,7.9,8c1,9.5-0.6,22.6,0,32c0.8,4.2-3,7.9-7.9,8
			c-18.5-0.1-32.1-1.3-49,0c-16.9,1.3-29,1.8-47.1,0c-5.3,0-7.3-2.8-7.9-8C462.3,230.4,462.1,223.4,462.5,208.8z"/>
		<text transform="matrix(1 0 0 1 496.3208 231.28)" font-family="'AdobeSongStd-Light-GBpc-EUC-H'" font-size="21">正态</text>
		<path fill="#B4C7E7" d="M639.5,208.8c0.3-3.4,4.4-7.8,8-8c17.4-1.6,35-0.4,50.4,0c15.4,0.4,31.2-1.1,46.5,0c4.1-0.7,8.3,3.7,8,8
			c-0.6,8.2-0.6,16.5,0,32c-0.1,4.5-3.9,8.1-8,8c-16.4,2.3-31.4-1.4-46.5,0c-15.1,1.4-29.4,1.9-50.4,0c-4-0.8-7.8-3-8-8
			C639.6,226,638.3,218.1,639.5,208.8z"/>
		<path fill="none" stroke="#2F528F" stroke-width="1.3333" stroke-miterlimit="8" d="M639.5,208.8c-0.7-3.8,3.7-8.6,8-8
			c21.7-1.4,24.8,2,45.6,0s33.2,0.8,51.4,0c5,0.2,8.6,3.8,8,8c1.3,11.6,1.4,23.8,0,32c-0.3,4.5-3.9,8.7-8,8c-15.7,2-35.5,1.6-45.6,0
			c-10.1-1.6-27.4-1.2-51.4,0c-4.3-0.3-8.6-3.7-8-8C640.7,227.2,641.1,217.4,639.5,208.8z"/>
		<text transform="matrix(1 0 0 1 663.554 231.28)" font-family="'AdobeSongStd-Light-GBpc-EUC-H'" font-size="21">非正态</text>
		<path fill="none" stroke="#4472C4" stroke-width="0.6667" stroke-miterlimit="8" d="M598.4,157.8v21.6h-79.9V201"/>
		<path fill="none" stroke="#4472C4" stroke-width="0.6667" stroke-miterlimit="8" d="M598.5,157.8v21.6h98V201"/>
		<path fill="#FFF2CC" d="M400.5,292.8c-0.1-4.8,4.6-8,7.9-8c20.4-0.6,26.8,0.7,47.1,0s28.5,0,49,0c4.4,0.3,8.6,3,7.9,8
			c1.1,8-1,16,0,32c-0.5,3.9-3.6,7.8-7.9,8c-23.2,2-27.2,0.7-50,0c-22.8-0.7-27.2-2-46.1,0c-5.1-0.4-7.7-4-7.9-8
			C401,310.8,399.6,308.6,400.5,292.8z"/>
		<path fill="none" stroke="#2F528F" stroke-width="1.3333" stroke-miterlimit="8" d="M400.5,292.8c0.3-3.5,4.1-8.7,7.9-8
			c15,1,26.7-1.5,48.1,0c21.4,1.5,27.1,2.4,48.1,0c4.4-0.2,8,2.7,7.9,8c1,15.7,0.1,25.1,0,32c0.1,4.9-2.6,8.1-7.9,8
			c-22.2-1.6-35.6,0.3-50,0c-14.4-0.3-36.5,0.8-46.1,0c-4.8,0.1-7.5-3.3-7.9-8C401.8,316.3,401.5,303.2,400.5,292.8z"/>
		<text transform="matrix(1 0 0 1 424.2924 315.28)" font-family="'AdobeSongStd-Light-GBpc-EUC-H'" font-size="21">方差齐</text>
		<path fill="#E2F0D9" d="M520.5,292.8c0.6-4.6,3.4-7.9,7.9-8c16.9,0.7,33.4,1.4,46.1,0c12.8-1.4,39.7,1.9,50,0
			c3.7-0.7,8.1,3.9,7.9,8c-0.1,9,0.5,24.6,0,32c0.9,3.9-3.9,7.1-7.9,8c-12.9,0.3-38-0.7-48.1,0s-28,1.1-48.1,0c-4.2,0.8-8-3.4-7.9-8
			C519.7,317.7,520,305.3,520.5,292.8z"/>
		<path fill="none" stroke="#2F528F" stroke-width="1.3333" stroke-miterlimit="8" d="M520.5,292.8c0.1-4.5,3.4-7.8,7.9-8
			c20.4-1.4,27.1,0.2,48.1,0c21-0.2,27.5,1.5,48.1,0c4,0,8,4,7.9,8c-0.3,7.9-0.3,22.2,0,32c0.2,3.8-2.7,7.5-7.9,8
			c-12.8-0.2-28.9-2-46.1,0c-17.3,2-38.4-1.4-50,0c-4.6-0.3-8.7-4-7.9-8C521.7,318,521.3,305.1,520.5,292.8z"/>
		<text transform="matrix(1 0 0 1 533.256 315.28)" font-family="'AdobeSongStd-Light-GBpc-EUC-H'" font-size="21">方差不齐</text>
		<path fill="none" stroke="#4472C4" stroke-width="0.6667" stroke-miterlimit="8" d="M517.9,248.8v18h-61.4v18"/>
		<path fill="none" stroke="#4472C4" stroke-width="0.6667" stroke-miterlimit="8" d="M518.5,248.8v18h58.3v18"/>
		<path fill="#F2F2F2" d="M400.5,391.6c0.2-4.7,3.7-7.4,7.9-7.8c15.5-0.9,37.1-1.1,47.1,0c10,1.1,37.6,2,49,0
			c3.7,0.6,7.2,3.1,7.9,7.8c0.4,8.3,1.1,20.3,0,31.3c-0.7,3.6-2.7,7.2-7.9,7.8c-15.6,1.5-24.7-0.2-46.1,0c-21.5,0.2-28.9,1.4-50,0
			c-4.2,0-7.5-3.7-7.9-7.8C400.7,411.2,399.7,407.3,400.5,391.6z"/>
		<path fill="none" stroke="#2F528F" stroke-width="1.3333" stroke-miterlimit="8" d="M400.5,391.6c0.3-4.6,3.6-7.7,7.9-7.8
			c19.4-0.2,31.7-1.8,45.2,0c13.5,1.8,39.5-0.5,50.9,0c4.7-0.2,8.4,4.4,7.9,7.8c-0.6,12.6-0.7,22.5,0,31.3c0.2,3.6-3.8,7.8-7.9,7.8
			c-11.5,0.8-31,1.9-47.1,0c-16.1-1.9-37.4,2-49,0c-4.5,0-8.1-2.8-7.9-7.8C400.4,411.3,401.3,402,400.5,391.6z"/>
		<a href="https://bookdown.org/wxhyihuan/Notebook-of-medical-statistics-1605856202966/%E7%AC%AC%E4%B8%89%E7%AB%A0-%E6%80%BB%E4%BD%93%E5%9D%87%E6%95%B0%E7%9A%84%E4%BC%B0%E8%AE%A1%E4%B8%8E%E5%81%87%E8%AE%BE%E6%A3%80%E9%AA%8C.html#t-%E6%A3%80%E9%AA%8C%E7%9A%84%E5%88%86%E7%B1%BB%E5%8F%8A%E5%BA%94%E7%94%A8">
			<text transform="matrix(1 0 0 1 429.8757 412.28)" font-family="'Arial-BoldMT'" font-size="19">T </text>
			<text transform="matrix(1 0 0 1 445.3757 412.28)" font-family="'AdobeSongStd-Light-GBpc-EUC-H'" font-size="19">检验</text>
		</a>
		<path fill="#F2F2F2" d="M520.5,391.6c0.5-4.9,3.5-8.6,7.9-7.8c15.4,0.8,30.2,0.9,50,0c19.8-0.9,30.1,0.5,46.1,0
			c4.7,0.2,8.3,4.3,7.9,7.8c1.5,12.8,0.3,22,0,31.3c-0.7,4.9-2.8,7.9-7.9,7.8c-21,1.9-26.9,1-48.1,0s-26.6,1-48.1,0
			c-4.5,0.2-8.1-2.7-7.9-7.8C519.3,412.5,522,403.2,520.5,391.6z"/>
		<path fill="none" stroke="#2F528F" stroke-width="1.3333" stroke-miterlimit="8" d="M520.5,391.6c-0.2-4.5,3.4-7.8,7.9-7.8
			c11.1-1.9,33.6-0.1,45.2,0c11.6,0.1,27.1,2.3,50.9,0c4-0.2,7.4,2.7,7.9,7.8c-0.2,11.6-0.9,16.6,0,31.3c-0.9,3.7-3.7,8-7.9,7.8
			c-11.7,0.6-24.1,1.2-48.1,0c-24-1.2-36.6,0.3-48.1,0c-4.2-0.8-7.9-4.2-7.9-7.8C521.6,408.2,521.7,398.7,520.5,391.6z"/>
		<a href="https://bookdown.org/wxhyihuan/Notebook-of-medical-statistics-1605856202966/%E7%AC%AC%E4%B8%89%E7%AB%A0-%E6%80%BB%E4%BD%93%E5%9D%87%E6%95%B0%E7%9A%84%E4%BC%B0%E8%AE%A1%E4%B8%8E%E5%81%87%E8%AE%BE%E6%A3%80%E9%AA%8C.html#t%E6%A3%80%E9%AA%8C">
			<text transform="matrix(1 0 0 1 547.09 412.28)" font-family="'Arial-BoldMT'" font-size="19">T’ </text>
			<text transform="matrix(1 0 0 1 567.4233 412.28)" font-family="'AdobeSongStd-Light-GBpc-EUC-H'" font-size="19">检验</text>
		</a>
		<path fill="none" stroke="#4472C4" stroke-width="0.6667" stroke-miterlimit="8" d="M576.5,332.8v50.9"/>
		<path fill="none" stroke="#4472C4" stroke-width="0.6667" stroke-miterlimit="8" d="M456.5,332.8l0,50.9"/>
		<path fill="#F2F2F2" d="M639.5,391.6c0.1-3.7,3.5-7.8,8-7.8c10.5,1.6,36.4,1.5,48.5,0c12.1-1.5,28.1-1.2,48.5,0
			c4.5-0.9,8.4,4.1,8,7.8c0.7,15.4,1.5,17.6,0,31.3c0.3,4-3.2,8.5-8,7.8c-14-0.1-34-0.2-47.5,0c-13.5,0.2-34.8-0.5-49.5,0
			c-4.9-0.7-8.1-3.5-8-7.8C640.4,416.2,640.3,399.1,639.5,391.6z"/>
		<path fill="none" stroke="#2F528F" stroke-width="1.3333" stroke-miterlimit="8" d="M639.5,391.6c-0.8-4.5,2.8-8,8-7.8
			c19.2-1.6,23,0.2,45.6,0c22.6-0.2,41-2.1,51.4,0c3.7-0.5,8.4,2.5,8,7.8c0.1,11.1-0.3,20.8,0,31.3c0.3,4.3-4.2,7.7-8,7.8
			c-13.8,0.3-29.3,0.4-46.5,0s-38.1,0.6-50.4,0c-4.4,0.2-8.7-3.3-8-7.8C638.2,411,640.8,401.5,639.5,391.6z"/>
		<text transform="matrix(1 0 0 1 656.054 401.28)" font-family="'Arial-BoldMT'" font-size="19">Wilcoxon</text>
		<text transform="matrix(1 0 0 1 658.2207 424.28)" font-family="'AdobeSongStd-Light-GBpc-EUC-H'" font-size="19">秩和检验</text>
		<path fill="none" stroke="#4472C4" stroke-width="0.6667" stroke-miterlimit="8" d="M696.5,248.8v134.7"/>
		<path fill="#B4C7E7" d="M766.5,208.8c-0.1-4.3,3.1-8,7.9-8c10.4-1.4,24.8-0.1,47.1,0s37.7-0.5,49,0c4.6,0.1,8.5,3.3,7.9,8
			c0.3,9.6,0.6,17.4,0,32c-0.2,4.6-3.7,8-7.9,8c-20.8,0.3-27.6,1.3-50,0c-22.4-1.3-23.2-1.2-46.1,0c-3.9,0-8.3-3.2-7.9-8
			C766.5,227,767,216.1,766.5,208.8z"/>
		<path fill="none" stroke="#2F528F" stroke-width="1.3333" stroke-miterlimit="8" d="M766.5,208.8c-0.8-4.6,3.4-8.3,7.9-8
			c19.3-2.1,25.2,0.8,46.1,0s30.6,0.4,50,0c4.7-0.2,8,3.7,7.9,8c-1.2,13.9,0.3,22.7,0,32c-0.4,4.1-3.3,9-7.9,8
			c-11.1,0.4-24.7-0.2-46.1,0c-21.5,0.2-28.8,1.2-50,0c-4.2-1.1-7.3-4.1-7.9-8C766.1,233.5,765.8,223.6,766.5,208.8z"/>
		<text transform="matrix(1 0 0 1 789.889 231.28)" font-family="'AdobeSongStd-Light-GBpc-EUC-H'" font-size="21">非正态</text>
		<path fill="#FBE5D6" d="M949.5,208.8c-0.1-4.2,3.6-8.8,7.9-8c10.7-0.9,28.2,2.2,48.1,0s28.5-0.1,48.1,0c4.9,0.6,7.7,3.7,7.9,8
			c0.8,13.1,0.1,19,0,32c-0.9,3.8-4.1,7.8-7.9,8c-19.4-2.1-30.7,0.3-46.1,0c-15.4-0.3-27.2,1.6-50,0c-3.8-0.5-8-4.1-7.9-8
			C949.3,232.4,949.3,221,949.5,208.8z"/>
		<path fill="none" stroke="#2F528F" stroke-width="1.3333" stroke-miterlimit="8" d="M949.5,208.8c0.4-3.5,2.8-7.7,7.9-8
			c13.7,0.3,36.3-1.9,47.1,0s33.7,0.1,49,0c3.7-0.1,8,4.1,7.9,8c0.6,13.7-0.3,17.1,0,32c-0.6,5.1-2.8,8.2-7.9,8
			c-20.4-1.5-35.7,1.7-48.1,0s-24.6-0.7-48.1,0c-4.2,0.5-8.5-3.2-7.9-8C949.7,227.1,948.6,217.4,949.5,208.8z"/>
		<text transform="matrix(1 0 0 1 983.741 231.28)" font-family="'AdobeSongStd-Light-GBpc-EUC-H'" font-size="21">正态</text>
		<path fill="none" stroke="#4472C4" stroke-width="0.6667" stroke-miterlimit="8" d="M906.3,157.8v21.6h-83.8V201"/>
		<path fill="none" stroke="#4472C4" stroke-width="0.6667" stroke-miterlimit="8" d="M906.5,157.8v21.6h99.4V201"/>
		<path fill="#FFF2CC" d="M891.5,288.6c1-4,4.1-8.5,7.9-7.8c12.4-0.6,35.9,0.8,47.1,0s26.4-0.6,49,0c4.2-0.5,7.9,3.3,7.9,7.8
			c-1.5,14,0.5,16.6,0,31.3c0.3,3.9-4.4,7.7-7.9,7.8c-23.5,1.4-35.6-1.2-48.1,0s-30,0-48.1,0c-4.6,0.3-7.8-3.3-7.9-7.8
			C891.7,306.7,891.7,301.3,891.5,288.6z"/>
		<path fill="none" stroke="#2F528F" stroke-width="1.3333" stroke-miterlimit="8" d="M891.5,288.6c0.2-4.2,3.2-7.5,7.9-7.8
			c14.1-1.8,28.4,0.2,48.1,0s26.8,0.2,48.1,0c4.8,0.2,8.1,3.1,7.9,7.8c-0.8,10.3-1.4,16.7,0,31.3c-0.2,4.3-3.3,7-7.9,7.8
			c-21.2-1.7-34.3-1.6-50,0c-15.7,1.6-25.1-1.3-46.1,0c-4.2,0.3-8.5-3.6-7.9-7.8C892.1,309.6,892.1,297.9,891.5,288.6z"/>
		<text transform="matrix(1 0 0 1 914.806 311.28)" font-family="'AdobeSongStd-Light-GBpc-EUC-H'" font-size="21">方差齐</text>
		<path fill="#E2F0D9" d="M1013.5,288.6c0.8-4.6,2.9-8.6,7.9-7.8c18.4-1.3,36.3,1.8,47.1,0c10.8-1.8,31.8,2.3,49,0
			c4.9,0.5,7.3,2.9,7.9,7.8c1,6.7,0,16.2,0,31.3c-0.5,4.5-4,8.2-7.9,7.8c-19.7-0.7-32.9-2-48.1,0s-27-1.5-48.1,0
			c-3.9,0.1-6.9-3.6-7.9-7.8C1012.6,306.1,1013.5,299.8,1013.5,288.6z"/>
		<path fill="none" stroke="#2F528F" stroke-width="1.3333" stroke-miterlimit="8" d="M1013.5,288.6c-0.5-4.5,3.8-8,7.9-7.8
			c19.5-1.5,25.1-0.4,48.1,0c22.9,0.4,26-0.1,48.1,0c5,0.1,8.4,3.9,7.9,7.8c0.2,10.2,0.6,20.1,0,31.3c0.7,4.7-3.1,7.8-7.9,7.8
			c-17.8,0.2-33.9,2.3-50,0c-16.1-2.3-29-0.6-46.1,0c-3.5,0.7-8.7-3.9-7.9-7.8C1012.7,312.8,1014.4,300.9,1013.5,288.6z"/>
		<text transform="matrix(1 0 0 1 1026.606 311.28)" font-family="'AdobeSongStd-Light-GBpc-EUC-H'" font-size="21">方差不齐</text>
		<path fill="#F2F2F2" d="M891.5,391.6c-0.5-4.6,3.3-8.3,7.9-7.8c20.4-1.3,25.4-1.6,45.2,0c19.8,1.6,40.4,1.5,50.9,0
			c4.6-0.4,8,3.3,7.9,7.8c1,12.8,1.3,19.7,0,31.3c-0.1,4.3-4.4,7.3-7.9,7.8c-20.7-1.5-24.7-0.6-49,0c-24.4,0.6-27.8,0.9-47.1,0
			c-5-0.6-8.3-4.4-7.9-7.8C890.8,407.8,892,403.6,891.5,391.6z"/>
		<path fill="none" stroke="#2F528F" stroke-width="1.3333" stroke-miterlimit="8" d="M891.5,391.6c0-3.7,3.5-8.3,7.9-7.8
			c20.3,0.5,29.9,1.8,48.1,0s35.8,1.8,48.1,0c3.6-0.2,7.8,3.2,7.9,7.8c1,14.2,0.6,21.1,0,31.3c0.2,4.3-4.2,7.6-7.9,7.8
			c-13.2,1.7-33.5-0.5-48.1,0s-31.3-1-48.1,0c-4.3-0.2-7.5-3.4-7.9-7.8C891.4,412.3,892.8,405.3,891.5,391.6z"/>
		<a href="https://bookdown.org/wxhyihuan/Notebook-of-medical-statistics-1605856202966/%E7%AC%AC%E5%9B%9B%E7%AB%A0-%E5%A4%9A%E4%B8%AA%E6%A0%B7%E6%9C%AC%E5%9D%87%E6%95%B0%E6%AF%94%E8%BE%83%E7%9A%84%E6%96%B9%E5%B7%AE%E5%88%86%E6%9E%90.html#%E5%8D%95%E5%9B%A0%E5%AD%90%E6%96%B9%E5%B7%AE%E5%88%86%E6%9E%90">
		<text transform="matrix(1 0 0 1 909.472 412.28)" font-family="'AdobeSongStd-Light-GBpc-EUC-H'" font-size="19">方差分析</text></a>
		<path fill="#F2F2F2" d="M1013.5,391.6c0.4-4.1,3.8-7.9,7.9-7.8c19.4-0.1,28.3,1.7,49,0c20.7-1.7,28.2-0.6,47.1,0
			c5.2-0.3,8.4,3,7.9,7.8c0.8,13.3,1.1,22.8,0,31.3c0.1,4.4-4.2,8.3-7.9,7.8c-23.1,0.4-32.9-1.1-49,0s-30.8-1.5-47.1,0
			c-5.2,0.7-7.6-3.6-7.9-7.8C1012.2,410.4,1012.2,399.3,1013.5,391.6z"/>
		<path fill="none" stroke="#2F528F" stroke-width="1.3333" stroke-miterlimit="8" d="M1013.5,391.6c-0.2-3.9,3.1-7.3,7.9-7.8
			c12.6-1,34.5-1.6,45.2,0s35.4-1,50.9,0c4.6-0.3,8.7,3.6,7.9,7.8c-0.3,11.5,0.2,16.4,0,31.3c0.1,4.6-2.5,7.7-7.9,7.8
			c-9.4-1.9-34.1-1.5-45.2,0s-32.3,0.6-50.9,0c-4.2,0-8.3-3.5-7.9-7.8C1013.3,410.2,1013.2,406.7,1013.5,391.6z"/>
		<text transform="matrix(1 0 0 1 1043.022 401.28)" font-family="'Arial-BoldMT'" font-size="19">Welch</text>
		<text transform="matrix(1 0 0 1 1050.6021 424.28)" font-family="'AdobeSongStd-Light-GBpc-EUC-H'" font-size="19">检验</text>
		<path fill="none" stroke="#4472C4" stroke-width="0.6667" stroke-miterlimit="8" d="M1069.5,327.8v55.4"/>
		<path fill="none" stroke="#4472C4" stroke-width="0.6667" stroke-miterlimit="8" d="M947.5,327.8v55.4"/>
		<path fill="none" stroke="#4472C4" stroke-width="0.6667" stroke-miterlimit="8" d="M1005.8,248.8v15.8h-58.3v15.8"/>
		<path fill="none" stroke="#4472C4" stroke-width="0.6667" stroke-miterlimit="8" d="M1005.5,248.8v15.8h64.2v15.8"/>
		<path fill="#F2F2F2" d="M762.5,374.9c0.1-5.7,4.1-11.3,11.2-11.2c24.4-1.3,37.7-0.3,49.8,0c12.1,0.3,39.5-2,49.8,0
			c6.6-0.1,11.4,5.3,11.2,11.2c-0.5,22,1.8,33.9,0,44.7c0.3,6.2-3.8,10.5-11.2,11.2c-17.1-1-29.3,2-50.8,0s-34.3-1.4-48.8,0
			c-5.2-0.8-11.5-6.1-11.2-11.2C763.3,410.3,761.8,394.8,762.5,374.9z"/>
		<path fill="none" stroke="#2F528F" stroke-width="1.3333" stroke-miterlimit="8" d="M762.5,374.9c0.4-6.7,5-12.3,11.2-11.2
			c14.9,0.8,32,1.5,48.8,0s38.1,1.3,50.8,0c5.9,0.2,11.8,5.5,11.2,11.2c-1.4,21.8-1.3,26.4,0,44.7c0.5,5.3-5.1,10.4-11.2,11.2
			c-17.6,0-28.2-1.2-51.8,0s-32.1-2.3-47.8,0c-5-0.2-10.8-4-11.2-11.2C760.3,399,763.4,385.7,762.5,374.9z"/>
		<text transform="matrix(1 0 0 1 787.519 380.28)" font-family="'Arial-BoldMT'" font-size="19">Kruskal</text>
		<text transform="matrix(1 0 0 1 848.8523 380.28)" font-family="'Arial-BoldMT'" font-size="19">-</text>
		<text transform="matrix(1 0 0 1 797.7656 403.28)" font-family="'Arial-BoldMT'" font-size="19">Wallis</text>
		<text transform="matrix(1 0 0 1 785.519 425.28)" font-family="'AdobeSongStd-Light-GBpc-EUC-H'" font-size="19">秩和检验</text>
		<path fill="none" stroke="#4472C4" stroke-width="0.6667" stroke-miterlimit="8" d="M822.5,248.8l1,115.4"/>
		<path fill="#F2F2F2" d="M1153.5,119.8c0.8-4.3,3.5-7.2,7.9-8c11.3-2.3,39.9,0.6,50,0c10-0.6,26-0.5,46.1,0c4.6-0.9,7.3,3.8,7.9,8
			c-0.8,6.9,0.4,17.1,0,32c0.9,4.2-4.3,8.5-7.9,8c-17.1,2-38.2,1-49,0c-10.8-1-32.2,2.3-47.1,0c-3.8,0.4-7.4-4.5-7.9-8
			C1152.9,138.7,1152.4,133.5,1153.5,119.8z"/>
		<path fill="none" stroke="#2F528F" stroke-width="1.3333" stroke-miterlimit="8" d="M1153.5,119.8c0.1-4.4,3.3-8.2,7.9-8
			c14.7,0.9,28.1-1.8,45.2,0c17.1,1.8,28.6,1.3,50.9,0c4.5-0.5,7.9,4.2,7.9,8c-0.7,15.4-1.1,24.1,0,32c0.3,3.6-3.4,7.9-7.9,8
			c-15.5-0.8-34.8,1.7-48.1,0c-13.2-1.7-26.3,2-48.1,0c-4.3,0-8-3.3-7.9-8C1152.6,138.9,1154,130.7,1153.5,119.8z"/>
		<text transform="matrix(1 0 0 1 1176.886 142.28)" font-family="'AdobeSongStd-Light-GBpc-EUC-H'" font-size="21">二分类</text>
		<path fill="#F2F2F2" d="M1393.5,119.8c0.9-4.7,4-7.5,7.9-8c9.3,2.3,25.7,1,45.2,0c19.4-1,36.1-2,50.9,0c3.4,0.2,8,3.5,7.9,8
			c0.1,13.9-0.2,23.1,0,32c0.9,3.9-2.7,7.6-7.9,8c-21.8,0.6-36.2,2.2-46.1,0c-10-2.2-25.5-1.9-50,0c-5,0.3-8.5-3.9-7.9-8
			C1393.1,137.4,1393.2,126.8,1393.5,119.8z"/>
		<path fill="none" stroke="#2F528F" stroke-width="1.3333" stroke-miterlimit="8" d="M1393.5,119.8c-0.7-4.9,3.1-8.1,7.9-8
			c13-1.8,38.7,0.7,49,0c10.4-0.7,27.4-0.5,47.1,0c3.6,0.8,7.9,3.6,7.9,8c0.6,15.4-1.5,23.2,0,32c-0.1,4.4-4.2,8.1-7.9,8
			c-23.3-1.1-26.5-2.3-48.1,0s-26.3,0.6-48.1,0c-5.3-0.3-8.3-2.8-7.9-8C1394.7,137.4,1394.4,130.5,1393.5,119.8z"/>
		<text transform="matrix(1 0 0 1 1416.9 142.28)" font-family="'AdobeSongStd-Light-GBpc-EUC-H'" font-size="21">多分类</text>
		<path fill="#FFFF00" d="M1133.5,288.6c-0.9-4.2,3.2-7.8,8-7.8c22.6,0.4,35.3-1.6,56,0c3.8-0.4,7.6,3.5,8,7.8
			c-1.4,6.3-0.3,22.6,0,31.3c0.1,3.9-3.5,8.3-8,7.8c-11.8-1.6-34.6-1.2-56,0c-4.3,0.1-8.6-3.1-8-7.8
			C1133.5,309.9,1131.9,300.6,1133.5,288.6z"/>
		<path fill="none" stroke="#2F528F" stroke-width="1.3333" stroke-miterlimit="8" d="M1133.5,288.6c0-4.6,4.4-8.2,8-7.8
			c12.3,2.1,41.8-2.1,56,0c4.7-0.2,7.5,3.7,8,7.8c0.8,10.5-0.7,17.9,0,31.3c0.2,4.8-3.3,8.1-8,7.8c-27.4,2.6-34-0.1-56,0
			c-4.2-0.3-8.3-3.4-8-7.8C1133,307.6,1132.6,300.2,1133.5,288.6z"/>
		<text transform="matrix(1 0 0 1 1147.6641 311.28)" font-family="'AdobeSongStd-Light-GBpc-EUC-H'" font-size="21">两组</text>
		<path fill="#FFFF00" d="M1217.5,288.6c-0.2-5,3.8-8.3,7.9-7.8c24.4,0.9,30.9,1.6,55.2,0c4.2-0.3,8.4,3.2,7.9,7.8
			c0.9,9.7-1.4,22.2,0,31.3c-0.2,4.2-4.1,7.9-7.9,7.8c-13,2.6-43.5-1-55.2,0c-3.9-0.8-8-3.2-7.9-7.8
			C1217.4,310.2,1216.6,300.1,1217.5,288.6z"/>
		<path fill="none" stroke="#2F528F" stroke-width="1.3333" stroke-miterlimit="8" d="M1217.5,288.6c0.5-4.1,3.4-7.9,7.9-7.8
			c23.3-2.5,37.4,1.3,55.2,0c4.5,0.2,8.2,3.3,7.9,7.8c0.3,11.2-0.5,17,0,31.3c-0.6,5-3.8,8.1-7.9,7.8c-12.6,2.7-39.9,1.3-55.2,0
			c-4.9-0.4-8.4-3.9-7.9-7.8C1218.2,305,1218.7,303.1,1217.5,288.6z"/>
		<text transform="matrix(1 0 0 1 1230.996 311.28)" font-family="'AdobeSongStd-Light-GBpc-EUC-H'" font-size="21">多组</text>
		<path fill="#F2F2F2" d="M1320.5,206.6c0.6-4,3.8-8.8,7.9-7.8c9.7,0.7,34.8-1.5,45.2,0c10.4,1.5,36.2,1.5,50.9,0
			c4-0.5,7.7,3.6,7.9,7.8c0.6,12.3-0.3,23.9,0,31.3c-0.6,4.1-3.8,7.3-7.9,7.8c-13,1.2-33.7-1.1-50,0c-16.3,1.1-31.3,1.8-46.1,0
			c-4.3-0.5-8-3.1-7.9-7.8C1321,231.4,1321.3,221,1320.5,206.6z"/>
		<path fill="none" stroke="#2F528F" stroke-width="1.3333" stroke-miterlimit="8" d="M1320.5,206.6c0-4.6,4.1-8.3,7.9-7.8
			c17.2,0,26.2-0.1,50,0s34.7-0.9,46.1,0c4.9-0.2,8,3.8,7.9,7.8c-1.1,10-1.1,20.6,0,31.3c0.1,4.1-4.2,8.2-7.9,7.8
			c-15-1.3-36.4-0.8-48.1,0s-36.9-1.9-48.1,0c-4.5,0-8.2-3.6-7.9-7.8C1319.4,225.3,1320.9,214.5,1320.5,206.6z"/>
		<text transform="matrix(1 0 0 1 1354.8831 229.28)" font-family="'AdobeSongStd-Light-GBpc-EUC-H'" font-size="21">无序</text>
		<path fill="#F2F2F2" d="M1490.5,206.8c-0.5-4.8,4.3-7.5,7.9-8c12.5-2,32.2-1.5,45.2,0c13,1.5,32.3,1.1,50.9,0
			c4.6-0.1,7.8,3.6,7.9,8c1.1,11-0.6,16.3,0,32c1,4.5-4.5,8-7.9,8c-15.7,2.2-26.8,1.9-49,0c-22.3-1.9-34.8-0.7-47.1,0
			c-4,0.7-8.1-4-7.9-8C1490.9,232.2,1491.6,218.7,1490.5,206.8z"/>
		<path fill="none" stroke="#2F528F" stroke-width="1.3333" stroke-miterlimit="8" d="M1490.5,206.8c-0.7-4.9,3.9-7.7,7.9-8
			c16.3-0.8,35.2-2,46.1,0c10.9,2,32.6,0.9,50,0c4.3,0,8.6,3.2,7.9,8c-1.6,10.7,0.2,23.3,0,32c0.3,4.7-3.5,7.7-7.9,8
			c-21.8,1.1-33.3,1.8-48.1,0s-33.8,1.3-48.1,0c-4.7-0.2-7.8-3.8-7.9-8C1491,224,1492.1,219,1490.5,206.8z"/>
		<text transform="matrix(1 0 0 1 1524.6 229.28)" font-family="'AdobeSongStd-Light-GBpc-EUC-H'" font-size="21">有序</text>
		<path fill="#FFFF00" d="M1304.5,288.6c0.8-4.3,3-8.1,7.9-7.8c16.6-0.6,34.2-0.6,55.2,0c4.4-0.2,8.6,4,7.9,7.8
			c0.5,14.9,0.2,18.2,0,31.3c0.2,3.9-4,8.1-7.9,7.8c-25.4,1.6-40.9,2-55.2,0c-4.5-0.1-7.8-3.5-7.9-7.8
			C1303.3,307.8,1303.3,301,1304.5,288.6z"/>
		<path fill="none" stroke="#2F528F" stroke-width="1.3333" stroke-miterlimit="8" d="M1304.5,288.6c0.2-5.2,3.8-7,7.9-7.8
			c12.4-1.2,41.9,2.7,55.2,0c5-0.2,7.7,4.2,7.9,7.8c-1.3,8,0.1,17.5,0,31.3c-1,4.6-3.3,7-7.9,7.8c-13.1,0.1-29,1.1-55.2,0
			c-4.9,0.2-7.7-2.7-7.9-7.8C1305.4,310.9,1304.7,297.6,1304.5,288.6z"/>
		<text transform="matrix(1 0 0 1 1318.26 311.28)" font-family="'AdobeSongStd-Light-GBpc-EUC-H'" font-size="21">两组</text>
		<path fill="#FFFF00" d="M1383.5,288.6c-0.5-4.6,4.3-8.1,7.9-7.8c21.5-0.5,41.1,1.9,55.2,0c4.9,0.2,8.6,2.9,7.9,7.8
			c0.4,6.8-1.1,21.8,0,31.3c0.2,4.4-3.3,7.1-7.9,7.8c-14.8,0.5-42.4,0.3-55.2,0c-5.1,0.2-8.5-3.8-7.9-7.8
			C1383.9,305.8,1384.7,301.4,1383.5,288.6z"/>
		<path fill="none" stroke="#2F528F" stroke-width="1.3333" stroke-miterlimit="8" d="M1383.5,288.6c0.4-4.4,3.3-7.8,7.9-7.8
			c20.9-1.3,30.4,1.3,55.2,0c3.8,0.2,8.1,4.1,7.9,7.8c1.2,12-0.8,19.5,0,31.3c-0.4,4.3-2.6,7.8-7.9,7.8c-14.9,1.4-35.5-1-55.2,0
			c-5.2,0.4-8.4-4.2-7.9-7.8C1382,313.4,1382.1,299.1,1383.5,288.6z"/>
		<text transform="matrix(1 0 0 1 1397.338 311.28)" font-family="'AdobeSongStd-Light-GBpc-EUC-H'" font-size="21">多组</text>
		<path fill="#F2F2F2" d="M1462.5,287.8c0.7-4.7,4.1-7.2,7.9-8c15.9-0.1,42.5,2,55.2,0c5-0.6,8.1,4.6,7.9,8c-0.9,13.7,1.5,21.5,0,32
			c-0.2,4.9-4.4,8.2-7.9,8c-20.3-2-34.1-0.1-55.2,0c-4.1-0.5-7.3-2.8-7.9-8C1461,304.8,1463.7,295.1,1462.5,287.8z"/>
		<path fill="none" stroke="#2F528F" stroke-width="1.3333" stroke-miterlimit="8" d="M1462.5,287.8c0.7-3.6,3.9-7.6,7.9-8
			c23.2,0.4,29.8,0.6,55.2,0c4-1,8,3.3,7.9,8c0.3,10.4-1.2,21.5,0,32c0.5,4.7-3,7.8-7.9,8c-23.5-0.2-43.7,2.3-55.2,0
			c-4.2,0.4-7.4-3.4-7.9-8C1461.1,310.6,1463.4,301.1,1462.5,287.8z"/>
		<text transform="matrix(1 0 0 1 1476.16 310.28)" font-family="'AdobeSongStd-Light-GBpc-EUC-H'" font-size="21">两组</text>
		<path fill="#F2F2F2" d="M1569.5,287.8c1.1-4.3,3.3-8.2,8-8c11.5-2.3,31.8-1.6,56,0c4.2,0.5,7.9,3.6,8,8c0.2,15.6,0.7,16,0,32
			c0.2,5.3-2.7,8-8,8c-25.3-0.6-42.3,1.6-56,0c-5.2-0.6-7.8-3.7-8-8C1570.8,311.3,1568.4,294.4,1569.5,287.8z"/>
		<path fill="none" stroke="#2F528F" stroke-width="1.3333" stroke-miterlimit="8" d="M1569.5,287.8c0-3.9,3.8-8.4,8-8
			c27.7,1,35.2-0.7,56,0c3.9-0.7,8.6,4,8,8c0.4,11.1,0.3,17.2,0,32c0.4,5.1-4.4,8.7-8,8c-20.2-1.9-35.5,2.5-56,0
			c-4.1,0.7-8.7-3.3-8-8C1568.2,308.2,1570.9,296.3,1569.5,287.8z"/>
		<text transform="matrix(1 0 0 1 1583.5 310.28)" font-family="'AdobeSongStd-Light-GBpc-EUC-H'" font-size="21">多组</text>
		<path fill="#F2F2F2" d="M1249.5,391.6c0.3-3.8,3.9-8.5,8-7.8c15.1-0.8,27-1.8,46.6,0c19.5,1.8,32.4-1.2,50.4,0
			c4.8,0.5,8.8,3.4,8,7.8c-0.2,11.1,0.8,24.2,0,31.3c0.3,4.5-3.7,7.2-8,7.8c-20.9-2.2-34.4,1.2-50.4,0c-16-1.2-37.2,0.6-46.6,0
			c-4.3-0.3-8-3.3-8-7.8C1250.3,410.4,1250,398.9,1249.5,391.6z"/>
		<path fill="none" stroke="#2F528F" stroke-width="1.3333" stroke-miterlimit="8" d="M1249.5,391.6c0.3-5.2,4-7.8,8-7.8
			c11,0.2,25.1,0.8,49.5,0c24.4-0.8,36.3,1.5,47.5,0c4,0.7,7.4,3.6,8,7.8c1.3,6.6-1.1,22.1,0,31.3c0.1,4.2-3.3,7.2-8,7.8
			c-9.6-0.4-24.5,1.6-46.6,0c-22.1-1.6-31.5-2.1-50.4,0c-4.2-0.2-7.8-3.6-8-7.8C1250.4,408.2,1249.5,405.4,1249.5,391.6z"/>
		<text transform="matrix(1 0 0 1 1269.821 401.28)" font-family="'AdobeSongStd-Light-GBpc-EUC-H'" font-size="19">卡方</text>
		<text transform="matrix(1 0 0 1 1307.1543 401.28)" font-family="'Arial-BoldMT'" font-size="19">(X2)</text>
		<text transform="matrix(1 0 0 1 1286.901 424.28)" font-family="'AdobeSongStd-Light-GBpc-EUC-H'" font-size="19">检验</text>
		<path fill="none" stroke="#4472C4" stroke-width="0.6667" stroke-miterlimit="8" d="M1306.2,70.8v20.8h-96.7v20.8"/>
		<path fill="none" stroke="#4472C4" stroke-width="0.6667" stroke-miterlimit="8" d="M1306.5,70.8v20.8h143.3v20.8"/>
		<path fill="none" stroke="#4472C4" stroke-width="0.6667" stroke-miterlimit="8" d="M1209.4,159.8v60.4h-39.9v60.4"/>
		<path fill="none" stroke="#4472C4" stroke-width="0.6667" stroke-miterlimit="8" d="M1209.5,159.8v60.4h43.4v60.4"/>
		<path fill="none" stroke="#4472C4" stroke-width="0.6667" stroke-miterlimit="8" d="M1449.2,159.8v19.4h-72.7v19.4"/>
		<path fill="none" stroke="#4472C4" stroke-width="0.6667" stroke-miterlimit="8" d="M1449.5,159.8v19.5h97v19.5"/>
		<path fill="none" stroke="#4472C4" stroke-width="0.6667" stroke-miterlimit="8" d="M1377.1,245.8V263h-36.6v17.2"/>
		<path fill="none" stroke="#4472C4" stroke-width="0.6667" stroke-miterlimit="8" d="M1376.5,245.8V263h42.5v17.2"/>
		<path fill="none" stroke="#4472C4" stroke-width="0.6667" stroke-miterlimit="8" d="M1545.9,246.8v16.7h-48.4v16.7"/>
		<path fill="none" stroke="#4472C4" stroke-width="0.6667" stroke-miterlimit="8" d="M1546.5,246.8v16.7h58.9v16.7"/>
		<path fill="none" stroke="#4472C4" stroke-width="0.6667" stroke-miterlimit="8" d="M1169.5,327.8v27.7h136.6v27.7"/>
		<path fill="none" stroke="#4472C4" stroke-width="0.6667" stroke-miterlimit="8" d="M1252.5,327.8v27.7h53.2v27.7"/>
		<path fill="none" stroke="#4472C4" stroke-width="0.6667" stroke-miterlimit="8" d="M1340.5,327.8v27.7h-34v27.7"/>
		<path fill="none" stroke="#4472C4" stroke-width="0.6667" stroke-miterlimit="8" d="M1419.6,327.8v27.7h-113.1v27.7"/>
		<path fill="#F2F2F2" d="M1444.5,391.6c0.3-4.2,2.8-7.1,7.9-7.8c13.5,0,35.5,0.5,45.2,0c9.7-0.5,29.1-1.8,50.9,0
			c5.4,0.3,8.1,3.6,7.9,7.8c-0.2,8.1-1.2,24.2,0,31.3c0.1,5.1-4.3,7.5-7.9,7.8c-22.6,2-27.9-1.5-46.1,0c-18.3,1.5-39.7,2.3-50,0
			c-4-0.3-7.1-2.9-7.9-7.8C1445.2,412.9,1443.8,406.5,1444.5,391.6z"/>
		<path fill="none" stroke="#2F528F" stroke-width="1.3333" stroke-miterlimit="8" d="M1444.5,391.6c0.1-4.3,3.4-7.9,7.9-7.8
			c12.4-0.2,36.1,1.9,48.1,0s35.1,0.7,48.1,0c4.8,0,8.1,3.5,7.9,7.8c-0.7,8.2-0.8,20.3,0,31.3c0.4,5.3-3.9,7.4-7.9,7.8
			c-22.7,1.2-29.6,1.6-48.1,0s-25.7-2.3-48.1,0c-3.8,0.3-7.9-2.8-7.9-7.8C1445.3,414.1,1443.4,399.5,1444.5,391.6z"/>
		<text transform="matrix(1 0 0 1 1460.74 401.28)" font-family="'Arial-BoldMT'" font-size="19">Wilcoxon</text>
		<text transform="matrix(1 0 0 1 1462.9067 424.28)" font-family="'AdobeSongStd-Light-GBpc-EUC-H'" font-size="19">秩和检验</text>
		<path fill="#F2F2F2" d="M1564.5,374.9c0.7-5.1,5.8-11.6,11.2-11.2c20.9-0.7,22.9-0.4,44.8,0s22.7-1.7,44.8,0
			c5.8-0.5,10.8,4.8,11.2,11.2c2.1,17.8-1.4,23.3,0,44.7c-0.5,4.8-5.3,10.5-11.2,11.2c-18.3-0.6-21.7-0.4-43,0
			c-21.3,0.4-33.9,0.4-46.6,0c-6.2,1.1-10.1-6.1-11.2-11.2C1563.1,399.1,1564.4,389.6,1564.5,374.9z"/>
		<path fill="none" stroke="#2F528F" stroke-width="1.3333" stroke-miterlimit="8" d="M1564.5,374.9c-0.7-7.5,4.5-12.5,11.2-11.2
			c18.4-0.7,30.1-2,43,0c12.9,2,30.5-1.5,46.6,0c6.5-0.5,10.3,5.4,11.2,11.2c-2,19.7-0.5,35.4,0,44.7c0.2,6.3-4.4,10.9-11.2,11.2
			c-16.8,1.2-31.2-1.3-43,0s-37,0-46.6,0c-6.6,0.5-11.5-5.6-11.2-11.2C1563.3,409.5,1562.7,396.1,1564.5,374.9z"/>
		<text transform="matrix(1 0 0 1 1584.84 380.28)" font-family="'Arial-BoldMT'" font-size="19">Kruskal</text>
		<text transform="matrix(1 0 0 1 1646.1733 380.28)" font-family="'Arial-BoldMT'" font-size="19">-</text>
		<text transform="matrix(1 0 0 1 1595.0867 403.28)" font-family="'Arial-BoldMT'" font-size="19">Wallis</text>
		<text transform="matrix(1 0 0 1 1582.84 425.28)" font-family="'AdobeSongStd-Light-GBpc-EUC-H'" font-size="19">秩和检验</text>
		<path fill="none" stroke="#4472C4" stroke-width="0.6667" stroke-miterlimit="8" d="M1498,327.8v28h-8.5v28"/>
		<path fill="none" stroke="#4472C4" stroke-width="0.6667" stroke-miterlimit="8" d="M1605.5,327.8v18.4h15.3v18.4"/>
		<path fill="none" stroke="#000000" stroke-linejoin="round" stroke-miterlimit="10" d="M762.5,562.8c30.6-3,45.1,2.3,71.2,0
			c26.1-2.3,44.9,1.1,59.5,0c14.5-1.1,24.4,0.3,47.7,0s37.3-2.9,59.5,0c22.2,2.9,31.9-1.7,47.7,0s41.1,3.6,77.1,0
			c36-3.6,40.4,2.2,59.5,0c19-2.2,36,1,65.3,0c29.3-1,60.9,0.2,100.6,0c0,24.2,1.2,41.3,0,58c-17.8-0.2-28.3,0.3-53.6,0
			c-25.2-0.3-39.7,2.6-59.5,0c-19.8-2.6-39.6-3.4-71.2,0c-31.6,3.4-35.5-1.5-47.7,0s-34.9-1.5-47.7,0c-12.8,1.5-40.6,2.4-65.3,0
			c-24.8-2.4-42.9-3-65.3,0c-22.4,3-37.8,1.3-53.6,0c-15.7-1.3-26.9,1-53.6,0s-47.5-2.6-70.6,0C764.4,600.3,762.2,588.1,762.5,562.8
			z"/>
		<text transform="matrix(1 0 0 1 875.925 589.28)" font-family="'AdobeSongStd-Light-GBpc-EUC-H'" font-size="24">完全随机设计的统计方法选择思路</text>
		<text transform="matrix(1 0 0 1 812.7583 612.4207)" font-family="'AdobeSongStd-Light-GBpc-EUC-H'" font-size="16">内容参考来源：冯国双</text>
		<text transform="matrix(1 0 0 1 972.7584 611.28)" font-family="'ArialMT'" font-size="16">, </text>
		<text transform="matrix(1 0 0 1 980.592 612.4207)" font-family="'AdobeSongStd-Light-GBpc-EUC-H'" font-size="16">刘德平</text>
		<text transform="matrix(1 0 0 1 1028.592 611.28)" font-family="'ArialMT'" font-size="16">. </text>
		<text transform="matrix(1 0 0 1 1036.425 612.4207)" font-family="'AdobeSongStd-Light-GBpc-EUC-H'" font-size="16">医学实验设计分析与</text>
		<text transform="matrix(1 0 0 1 1180.425 611.28)" font-family="'ArialMT'" font-size="16">SAS</text>
		<text transform="matrix(1 0 0 1 1206.925 612.4207)" font-family="'AdobeSongStd-Light-GBpc-EUC-H'" font-size="16">实现</text>
		<text transform="matrix(1 0 0 1 1238.925 611.28)" font-family="'ArialMT'" font-size="16">[J]. 2014.</text>
		<a href="https://bookdown.org/wxhyihuan/Notebook-of-medical-statistics-1605856202966/%E7%AC%AC%E4%BA%8C%E7%AB%A0-%E8%AE%A1%E9%87%8F%E8%B5%84%E6%96%99%E7%9A%84%E7%BB%9F%E8%AE%A1%E6%8F%8F%E8%BF%B0.html#%E6%AD%A3%E6%80%81%E5%88%86%E5%B8%83%E6%A3%80%E9%AA%8C">
			<text transform="matrix(1 0 0 1 583.614 176.5588)" fill="#FF0000" font-family="'AdobeSongStd-Light-GBpc-EUC-H'" font-size="15">正态</text>
			<path fill="#FF0000" d="M583.9,177.4h29v1h-29V177.4z"/>
			<text transform="matrix(1 0 0 1 568.947 193.28)" fill="#FF0000" font-family="'AdobeSongStd-Light-GBpc-EUC-H'" font-size="15">分布检验</text>
		</a>
		<path fill="#FF0000" d="M568.9,195.4h29.5h29.5v1h-29.5h-29.5V195.4z"/>
		<a href="https://bookdown.org/wxhyihuan/Notebook-of-medical-statistics-1605856202966/%E7%AC%AC%E4%B8%89%E7%AB%A0-%E6%80%BB%E4%BD%93%E5%9D%87%E6%95%B0%E7%9A%84%E4%BC%B0%E8%AE%A1%E4%B8%8E%E5%81%87%E8%AE%BE%E6%A3%80%E9%AA%8C.html#%E4%B8%A4%E6%A0%B7%E6%9C%AC%E6%96%B9%E5%B7%AE%E9%BD%90%E6%80%A7%E6%A3%80%E9%AA%8C">
			<text transform="matrix(1 0 0 1 499.894 262.28)" fill="#FF0000" font-family="'AdobeSongStd-Light-GBpc-EUC-H'" font-size="15">方差</text>
			<path fill="#FF0000" d="M500.2,264.6h29v1h-29V264.6z"/>
			<text transform="matrix(1 0 0 1 485.2272 280.28)" fill="#FF0000" font-family="'AdobeSongStd-Light-GBpc-EUC-H'" font-size="15">齐性检验</text>
		</a>
		<path fill="#FF0000" d="M485.2,282.6h29.5h29.5v1h-29.5h-29.5V282.6z"/>
		<path fill="#92D050" d="M762.5,451.9c0.2-3,2.7-5.7,6.3-6.2c25-2.9,46.9-3.3,70.1,0c23.2,3.3,33.4,2.5,63.1,0s45.2,0,59.6,0
			c14.4,0,48.6,3.3,73.6,0s55.7,2.5,84.1,0c3.7-0.3,6,3.1,6.3,6.2c0.1,6.7-0.1,15.2,0,24.7c-0.4,3.1-3.2,6.8-6.3,6.2
			c-19.1,1.5-55.7-3.3-73.6,0s-44.5-0.8-70.1,0s-43.8,2.9-73.6,0s-69-6.5-133.2,0c-3.6,0.1-6.4-2.3-6.3-6.2
			C762.1,469.8,763.6,460,762.5,451.9z"/>
		<path fill="none" stroke="#2F528F" stroke-width="1.3333" stroke-miterlimit="8" d="M762.5,451.9c0.5-3.6,2.8-5.6,6.3-6.2
			c19.1,2.2,41.3-1.6,70.1,0c28.8,1.6,52.1,0.5,70.1,0s52.3-0.8,73.6,0s41.4-0.6,63.1,0c21.7,0.6,54.4,2.2,73.6,0
			c3.8,0.1,6.2,3,6.3,6.2c-0.3,6-0.4,15,0,24.7c0.5,3.4-2.4,6.1-6.3,6.2c-16.2,1.5-53.4-2.7-70.1,0s-41-2.1-73.6,0s-33.5,2.1-66.6,0
			s-32.7,0-59.6,0c-26.9,0-45.6-1.6-80.6,0c-3.4-0.1-6.4-2.2-6.3-6.2C761.9,469,762.4,457.8,762.5,451.9z"/>
		<a href="https://bookdown.org/wxhyihuan/Notebook-of-medical-statistics-1605856202966/%E7%AC%AC%E5%9B%9B%E7%AB%A0-%E5%A4%9A%E4%B8%AA%E6%A0%B7%E6%9C%AC%E5%9D%87%E6%95%B0%E6%AF%94%E8%BE%83%E7%9A%84%E6%96%B9%E5%B7%AE%E5%88%86%E6%9E%90.html#%E5%A4%9A%E4%B8%AA%E6%A0%B7%E6%9C%AC%E5%9D%87%E6%95%B0%E9%97%B4%E7%9A%84%E5%A4%9A%E9%87%8D%E6%AF%94%E8%BE%83">
		<text transform="matrix(1 0 0 1 887.647 469.28)" font-family="'AdobeSongStd-Light-GBpc-EUC-H'" font-size="19">均值多重比较</text></a>
	</g>
	<g clip-path="url(#SVGID_2_)">
	<a href="https://bookdown.org/wxhyihuan/Notebook-of-medical-statistics-1605856202966/%E7%AC%AC%E5%9B%9B%E7%AB%A0-%E5%A4%9A%E4%B8%AA%E6%A0%B7%E6%9C%AC%E5%9D%87%E6%95%B0%E6%AF%94%E8%BE%83%E7%9A%84%E6%96%B9%E5%B7%AE%E5%88%86%E6%9E%90.html#%E5%A4%9A%E6%A0%B7%E6%9C%AC%E6%96%B9%E5%B7%AE%E9%BD%90%E6%80%A7%E6%A3%80%E9%AA%8C">

		<text transform="matrix(1 0 0 1 980.3332 260.893)"><tspan x="0" y="0" fill="#E60012" font-family="'AdobeSongStd-Light-GBpc-EUC-H'" font-size="14">多样本方</tspan><tspan x="-7" y="16.8" fill="#E60012" font-family="'AdobeSongStd-Light-GBpc-EUC-H'" font-size="14">差齐性检验</tspan></text></a>
	</g>
	<g clip-path="url(#SVGID_2_)">
	<a href="https://bookdown.org/wxhyihuan/Notebook-of-medical-statistics-1605856202966/%E7%AC%AC%E4%BA%8C%E7%AB%A0-%E8%AE%A1%E9%87%8F%E8%B5%84%E6%96%99%E7%9A%84%E7%BB%9F%E8%AE%A1%E6%8F%8F%E8%BF%B0.html#%E6%AD%A3%E6%80%81%E5%88%86%E5%B8%83%E6%A3%80%E9%AA%8C">
		<text transform="matrix(1 0 0 1 892.3332 174.893)"><tspan x="0" y="0" fill="#E60012" font-family="'AdobeSongStd-Light-GBpc-EUC-H'" font-size="14">正态</tspan><tspan x="-14" y="16.8" fill="#E60012" font-family="'AdobeSongStd-Light-GBpc-EUC-H'" font-size="14">分布检验</tspan></text></a>
	</g>
</g>
</svg>
