<svg width="1280" height="720" xmlns="http://www.w3.org/2000/svg" xmlns:xlink="http://www.w3.org/1999/xlink" overflow="hidden"><defs><clipPath id="clip0"><rect x="0" y="0" width="1280" height="720"/></clipPath></defs><g clip-path="url(#clip0)"><rect x="0" y="0" width="1280" height="720" fill="#FFFFFF"/><path d="M589.5 91.3336C589.5 87.0072 593.007 83.5001 597.334 83.5001L693.667 83.5001C697.993 83.5001 701.5 87.0072 701.5 91.3336L701.5 122.667C701.5 126.993 697.993 130.5 693.667 130.5L597.334 130.5C593.007 130.5 589.5 126.993 589.5 122.667Z" stroke="#2F528F" stroke-width="1.33333" stroke-miterlimit="8" fill="#F2F2F2" fill-rule="evenodd"/><text font-family="DengXian,DengXian_MSFontService,sans-serif" font-weight="700" font-size="21" transform="translate(601.953 114)">资料类型</text><path d="M284.5 163.5C284.5 159.082 288.082 155.5 292.5 155.5L388.5 155.5C392.918 155.5 396.5 159.082 396.5 163.5L396.5 195.5C396.5 199.918 392.918 203.5 388.5 203.5L292.5 203.5C288.082 203.5 284.5 199.918 284.5 195.5Z" stroke="#2F528F" stroke-width="1.33333" stroke-miterlimit="8" fill="#F2F2F2" fill-rule="evenodd"/><text font-family="DengXian,DengXian_MSFontService,sans-serif" font-weight="700" font-size="21" transform="translate(297.719 186)">定量资料</text><path d="M850.5 163.5C850.5 159.082 854.082 155.5 858.5 155.5L955.5 155.5C959.918 155.5 963.5 159.082 963.5 163.5L963.5 195.5C963.5 199.918 959.918 203.5 955.5 203.5L858.5 203.5C854.082 203.5 850.5 199.918 850.5 195.5Z" stroke="#2F528F" stroke-width="1.33333" stroke-miterlimit="8" fill="#F2F2F2" fill-rule="evenodd"/><text font-family="DengXian,DengXian_MSFontService,sans-serif" font-weight="700" font-size="21" transform="translate(863.904 186)">分类资料</text><path d="M143.5 250.5C143.5 246.082 147.082 242.5 151.5 242.5L247.5 242.5C251.918 242.5 255.5 246.082 255.5 250.5L255.5 282.5C255.5 286.918 251.918 290.5 247.5 290.5L151.5 290.5C147.082 290.5 143.5 286.918 143.5 282.5Z" stroke="#2F528F" stroke-width="1.33333" stroke-miterlimit="8" fill="#F2F2F2" fill-rule="evenodd"/><text font-family="DengXian,DengXian_MSFontService,sans-serif" font-weight="700" font-size="21" transform="translate(155.914 274)">两组比较</text><path d="M451.5 250.5C451.5 246.082 455.082 242.5 459.5 242.5L555.5 242.5C559.918 242.5 563.5 246.082 563.5 250.5L563.5 282.5C563.5 286.918 559.918 290.5 555.5 290.5L459.5 290.5C455.082 290.5 451.5 286.918 451.5 282.5Z" stroke="#2F528F" stroke-width="1.33333" stroke-miterlimit="8" fill="#F2F2F2" fill-rule="evenodd"/><text font-family="DengXian,DengXian_MSFontService,sans-serif" font-weight="700" font-size="21" transform="translate(464.017 274)">多组比较</text><path d="M644.735 130.5 644.735 142.747 340.5 142.747 340.5 154.994" stroke="#4472C4" stroke-width="0.666667" stroke-miterlimit="8" fill="none" fill-rule="evenodd"/><path d="M0 0 12.2468 0 12.2468 261.951 24.4933 261.951" stroke="#4472C4" stroke-width="0.666667" stroke-miterlimit="8" fill="none" fill-rule="evenodd" transform="matrix(-4.37114e-08 1 1 4.37114e-08 645.5 130.5)"/><path d="M0 0 19.9815 0 19.9815 166.298 39.963 166.298" stroke="#4472C4" stroke-width="0.666667" stroke-miterlimit="8" fill="none" fill-rule="evenodd" transform="matrix(-4.37114e-08 1 1 4.37114e-08 340.5 203.5)"/><path d="M341.305 203.5 341.305 223.482 199.5 223.482 199.5 243.463" stroke="#4472C4" stroke-width="0.666667" stroke-miterlimit="8" fill="none" fill-rule="evenodd"/><path d="M63.5001 341.5C63.5001 337.082 67.0818 333.5 71.5001 333.5L167.5 333.5C171.918 333.5 175.5 337.082 175.5 341.5L175.5 373.5C175.5 377.918 171.918 381.5 167.5 381.5L71.5001 381.5C67.0818 381.5 63.5001 377.918 63.5001 373.5Z" stroke="#2F528F" stroke-width="1.33333" stroke-miterlimit="8" fill="#FBE5D6" fill-rule="evenodd"/><text font-family="DengXian,DengXian_MSFontService,sans-serif" font-weight="700" font-size="21" transform="translate(97.3208 364)">正态</text><path d="M240.5 341.5C240.5 337.082 244.082 333.5 248.5 333.5L345.5 333.5C349.918 333.5 353.5 337.082 353.5 341.5L353.5 373.5C353.5 377.918 349.918 381.5 345.5 381.5L248.5 381.5C244.082 381.5 240.5 377.918 240.5 373.5Z" stroke="#2F528F" stroke-width="1.33333" stroke-miterlimit="8" fill="#B4C7E7" fill-rule="evenodd"/><text font-family="DengXian,DengXian_MSFontService,sans-serif" font-weight="700" font-size="21" transform="translate(264.554 364)">非正态</text><path d="M199.427 290.5 199.427 312.093 119.5 312.093 119.5 333.686" stroke="#4472C4" stroke-width="0.666667" stroke-miterlimit="8" fill="none" fill-rule="evenodd"/><path d="M0 0 21.593 0 21.593 97.9733 43.1858 97.9733" stroke="#4472C4" stroke-width="0.666667" stroke-miterlimit="8" fill="none" fill-rule="evenodd" transform="matrix(-4.37114e-08 1 1 4.37114e-08 199.5 290.5)"/><path d="M1.50005 425.5C1.50005 421.082 5.08181 417.5 9.50014 417.5L105.5 417.5C109.918 417.5 113.5 421.082 113.5 425.5L113.5 457.5C113.5 461.918 109.918 465.5 105.5 465.5L9.50014 465.5C5.08181 465.5 1.50005 461.918 1.50005 457.5Z" stroke="#2F528F" stroke-width="1.33333" stroke-miterlimit="8" fill="#FFF2CC" fill-rule="evenodd"/><text font-family="DengXian,DengXian_MSFontService,sans-serif" font-weight="700" font-size="21" transform="translate(25.2924 448)">方差齐</text><path d="M121.5 425.5C121.5 421.082 125.082 417.5 129.5 417.5L225.5 417.5C229.918 417.5 233.5 421.082 233.5 425.5L233.5 457.5C233.5 461.918 229.918 465.5 225.5 465.5L129.5 465.5C125.082 465.5 121.5 461.918 121.5 457.5Z" stroke="#2F528F" stroke-width="1.33333" stroke-miterlimit="8" fill="#E2F0D9" fill-rule="evenodd"/><text font-family="DengXian,DengXian_MSFontService,sans-serif" font-weight="700" font-size="21" transform="translate(134.256 448)">方差不齐</text><path d="M118.862 381.5 118.862 399.548 57.5001 399.548 57.5001 417.596" stroke="#4472C4" stroke-width="0.666667" stroke-miterlimit="8" fill="none" fill-rule="evenodd"/><path d="M0 0 18.0479 0 18.0479 58.269 36.0959 58.269" stroke="#4472C4" stroke-width="0.666667" stroke-miterlimit="8" fill="none" fill-rule="evenodd" transform="matrix(-4.37114e-08 1 1 4.37114e-08 119.5 381.5)"/><path d="M1.50005 524.334C1.50005 520.007 5.00723 516.5 9.33356 516.5L105.667 516.5C109.993 516.5 113.5 520.007 113.5 524.334L113.5 555.667C113.5 559.993 109.993 563.5 105.667 563.5L9.33356 563.5C5.00723 563.5 1.50005 559.993 1.50005 555.667Z" stroke="#2F528F" stroke-width="1.33333" stroke-miterlimit="8" fill="#F2F2F2" fill-rule="evenodd"/><a href="https://wxhyihuan.github.io/MedicalStatisNotes/%E7%AC%AC%E4%B8%89%E7%AB%A0-%E6%80%BB%E4%BD%93%E5%9D%87%E6%95%B0%E7%9A%84%E4%BC%B0%E8%AE%A1%E4%B8%8E%E5%81%87%E8%AE%BE%E6%A3%80%E9%AA%8C.html#%E5%8D%95%E6%A0%B7%E6%9C%ACt%E6%A3%80%E9%AA%8C"><text font-family="DengXian,DengXian_MSFontService,sans-serif" font-style="oblique" font-weight="700" font-size="19" transform="translate(35.2924 545)">t<tspan font-style="normal" x="6.66667" y="0">检验</tspan></text></a><path d="M35.2124 549.43 57.2124 549.43 79.2124 549.43 79.2124 550.43 57.2124 550.43 35.2124 550.43Z" fill-rule="evenodd"/><path d="M121.5 524.334C121.5 520.007 125.007 516.5 129.334 516.5L225.667 516.5C229.993 516.5 233.5 520.007 233.5 524.334L233.5 555.667C233.5 559.993 229.993 563.5 225.667 563.5L129.334 563.5C125.007 563.5 121.5 559.993 121.5 555.667Z" stroke="#2F528F" stroke-width="1.33333" stroke-miterlimit="8" fill="#F2F2F2" fill-rule="evenodd"/><a href="https://wxhyihuan.github.io/MedicalStatisNotes/%E7%AC%AC%E4%B8%89%E7%AB%A0-%E6%80%BB%E4%BD%93%E5%9D%87%E6%95%B0%E7%9A%84%E4%BC%B0%E8%AE%A1%E4%B8%8E%E5%81%87%E8%AE%BE%E6%A3%80%E9%AA%8C.html#%E4%B8%A4%E7%A7%8D%E7%8B%AC%E7%AB%8B%E6%A0%B7%E6%9C%ACt%E6%A3%80%E9%AA%8C"><text font-family="DengXian,DengXian_MSFontService,sans-serif" font-style="oblique" font-weight="700" font-size="19" transform="translate(152.506 545)">t’ <tspan font-style="normal" x="11.5" y="0">检验</tspan></text></a><path d="M152.84 549.43 169.173 549.43 185.506 549.43 201.84 549.43 201.84 550.43 185.506 550.43 169.173 550.43 152.84 550.43Z" fill-rule="evenodd"/><path d="M177.5 465.5 177.5 516.421" stroke="#4472C4" stroke-width="0.666667" stroke-miterlimit="8" fill="none" fill-rule="evenodd"/><path d="M57.5001 465.5 57.5002 516.421" stroke="#4472C4" stroke-width="0.666667" stroke-miterlimit="8" fill="none" fill-rule="evenodd"/><path d="M240.5 524.334C240.5 520.007 244.007 516.5 248.334 516.5L345.667 516.5C349.993 516.5 353.5 520.007 353.5 524.334L353.5 555.667C353.5 559.993 349.993 563.5 345.667 563.5L248.334 563.5C244.007 563.5 240.5 559.993 240.5 555.667Z" stroke="#2F528F" stroke-width="1.33333" stroke-miterlimit="8" fill="#F2F2F2" fill-rule="evenodd"/><text font-family="DengXian,DengXian_MSFontService,sans-serif" font-weight="700" font-size="19" transform="translate(257.054 534)">Wilcoxon<tspan x="2.16669" y="23">秩和检验</tspan></text><path d="M297.5 381.5 297.5 516.214" stroke="#4472C4" stroke-width="0.666667" stroke-miterlimit="8" fill="none" fill-rule="evenodd"/><path d="M367.5 341.5C367.5 337.082 371.082 333.5 375.5 333.5L471.5 333.5C475.918 333.5 479.5 337.082 479.5 341.5L479.5 373.5C479.5 377.918 475.918 381.5 471.5 381.5L375.5 381.5C371.082 381.5 367.5 377.918 367.5 373.5Z" stroke="#2F528F" stroke-width="1.33333" stroke-miterlimit="8" fill="#B4C7E7" fill-rule="evenodd"/><text font-family="DengXian,DengXian_MSFontService,sans-serif" font-weight="700" font-size="21" transform="translate(390.889 364)">非正态</text><path d="M550.5 341.5C550.5 337.082 554.082 333.5 558.5 333.5L654.5 333.5C658.918 333.5 662.5 337.082 662.5 341.5L662.5 373.5C662.5 377.918 658.918 381.5 654.5 381.5L558.5 381.5C554.082 381.5 550.5 377.918 550.5 373.5Z" stroke="#2F528F" stroke-width="1.33333" stroke-miterlimit="8" fill="#FBE5D6" fill-rule="evenodd"/><text font-family="DengXian,DengXian_MSFontService,sans-serif" font-weight="700" font-size="21" transform="translate(584.741 364)">正态</text><path d="M507.295 290.5 507.295 312.093 423.5 312.093 423.5 333.686" stroke="#4472C4" stroke-width="0.666667" stroke-miterlimit="8" fill="none" fill-rule="evenodd"/><path d="M0 0 21.593 0 21.593 99.3903 43.1858 99.3903" stroke="#4472C4" stroke-width="0.666667" stroke-miterlimit="8" fill="none" fill-rule="evenodd" transform="matrix(-4.37114e-08 1 1 4.37114e-08 507.5 290.5)"/><path d="M492.5 421.334C492.5 417.007 496.007 413.5 500.334 413.5L596.667 413.5C600.993 413.5 604.5 417.007 604.5 421.334L604.5 452.667C604.5 456.993 600.993 460.5 596.667 460.5L500.334 460.5C496.007 460.5 492.5 456.993 492.5 452.667Z" stroke="#2F528F" stroke-width="1.33333" stroke-miterlimit="8" fill="#FFF2CC" fill-rule="evenodd"/><text font-family="DengXian,DengXian_MSFontService,sans-serif" font-weight="700" font-size="21" transform="translate(515.806 444)">方差齐</text><path d="M614.5 421.334C614.5 417.007 618.007 413.5 622.334 413.5L718.667 413.5C722.993 413.5 726.5 417.007 726.5 421.334L726.5 452.667C726.5 456.993 722.993 460.5 718.667 460.5L622.334 460.5C618.007 460.5 614.5 456.993 614.5 452.667Z" stroke="#2F528F" stroke-width="1.33333" stroke-miterlimit="8" fill="#E2F0D9" fill-rule="evenodd"/><text font-family="DengXian,DengXian_MSFontService,sans-serif" font-weight="700" font-size="21" transform="translate(627.606 444)">方差不齐</text><path d="M492.5 524.334C492.5 520.007 496.007 516.5 500.334 516.5L596.667 516.5C600.993 516.5 604.5 520.007 604.5 524.334L604.5 555.667C604.5 559.993 600.993 563.5 596.667 563.5L500.334 563.5C496.007 563.5 492.5 559.993 492.5 555.667Z" stroke="#2F528F" stroke-width="1.33333" stroke-miterlimit="8" fill="#F2F2F2" fill-rule="evenodd"/><a href="https://wxhyihuan.github.io/MedicalStatisNotes/%E7%AC%AC%E5%9B%9B%E7%AB%A0-%E5%A4%9A%E4%B8%AA%E6%A0%B7%E6%9C%AC%E5%9D%87%E6%95%B0%E6%AF%94%E8%BE%83%E7%9A%84%E6%96%B9%E5%B7%AE%E5%88%86%E6%9E%90.html#%E5%AE%8C%E5%85%A8%E9%9A%8F%E6%9C%BA%E8%AE%BE%E8%AE%A1%E8%B5%84%E6%96%99%E7%9A%84%E6%96%B9%E5%B7%AE%E5%88%86%E6%9E%90"><text font-family="DengXian,DengXian_MSFontService,sans-serif" font-weight="700" font-size="19" transform="translate(510.472 545)">方差分析</text></a><path d="M614.5 524.334C614.5 520.007 618.007 516.5 622.334 516.5L718.667 516.5C722.993 516.5 726.5 520.007 726.5 524.334L726.5 555.667C726.5 559.993 722.993 563.5 718.667 563.5L622.334 563.5C618.007 563.5 614.5 559.993 614.5 555.667Z" stroke="#2F528F" stroke-width="1.33333" stroke-miterlimit="8" fill="#F2F2F2" fill-rule="evenodd"/><a href="https://wxhyihuan.github.io/MedicalStatisNotes/%E7%AC%AC%E5%9B%9B%E7%AB%A0-%E5%A4%9A%E4%B8%AA%E6%A0%B7%E6%9C%AC%E5%9D%87%E6%95%B0%E6%AF%94%E8%BE%83%E7%9A%84%E6%96%B9%E5%B7%AE%E5%88%86%E6%9E%90.html#%E5%AE%8C%E5%85%A8%E9%9A%8F%E6%9C%BA%E8%AE%BE%E8%AE%A1%E8%B5%84%E6%96%99%E7%9A%84%E6%96%B9%E5%B7%AE%E5%88%86%E6%9E%90"><text font-family="DengXian,DengXian_MSFontService,sans-serif" font-weight="700" font-size="19" transform="translate(644.022 534)">Welch<tspan x="7.58002" y="23">检验</tspan></text></a><path d="M670.5 460.5 670.5 515.933" stroke="#4472C4" stroke-width="0.666667" stroke-miterlimit="8" fill="none" fill-rule="evenodd"/><path d="M548.5 460.5 548.5 515.933" stroke="#4472C4" stroke-width="0.666667" stroke-miterlimit="8" fill="none" fill-rule="evenodd"/><path d="M606.768 381.5 606.768 397.292 548.5 397.292 548.5 413.084" stroke="#4472C4" stroke-width="0.666667" stroke-miterlimit="8" fill="none" fill-rule="evenodd"/><path d="M0 0 15.7919 0 15.7919 64.1985 31.5837 64.1985" stroke="#4472C4" stroke-width="0.666667" stroke-miterlimit="8" fill="none" fill-rule="evenodd" transform="matrix(-4.37114e-08 1 1 4.37114e-08 606.5 381.5)"/><path d="M363.5 507.667C363.5 501.5 368.5 496.5 374.667 496.5L474.333 496.5C480.5 496.5 485.5 501.5 485.5 507.667L485.5 552.333C485.5 558.5 480.5 563.5 474.333 563.5L374.667 563.5C368.5 563.5 363.5 558.5 363.5 552.333Z" stroke="#2F528F" stroke-width="1.33333" stroke-miterlimit="8" fill="#F2F2F2" fill-rule="evenodd"/><text font-family="DengXian,DengXian_MSFontService,sans-serif" font-weight="700" font-size="19" transform="translate(388.519 513)">Kruskal<tspan x="61.3333" y="0">-</tspan><tspan x="10.2466" y="23">Wallis</tspan><tspan x="-2" y="45">秩和检验</tspan></text><path d="M423.5 381.5 424.464 496.877" stroke="#4472C4" stroke-width="0.666667" stroke-miterlimit="8" fill="none" fill-rule="evenodd"/><path d="M754.5 252.5C754.5 248.082 758.082 244.5 762.5 244.5L858.5 244.5C862.918 244.5 866.5 248.082 866.5 252.5L866.5 284.5C866.5 288.918 862.918 292.5 858.5 292.5L762.5 292.5C758.082 292.5 754.5 288.918 754.5 284.5Z" stroke="#2F528F" stroke-width="1.33333" stroke-miterlimit="8" fill="#F2F2F2" fill-rule="evenodd"/><text font-family="DengXian,DengXian_MSFontService,sans-serif" font-weight="700" font-size="21" transform="translate(777.886 275)">二分类</text><path d="M994.5 252.5C994.5 248.082 998.082 244.5 1002.5 244.5L1098.5 244.5C1102.92 244.5 1106.5 248.082 1106.5 252.5L1106.5 284.5C1106.5 288.918 1102.92 292.5 1098.5 292.5L1002.5 292.5C998.082 292.5 994.5 288.918 994.5 284.5Z" stroke="#2F528F" stroke-width="1.33333" stroke-miterlimit="8" fill="#F2F2F2" fill-rule="evenodd"/><text font-family="DengXian,DengXian_MSFontService,sans-serif" font-weight="700" font-size="21" transform="translate(1017.9 275)">多分类</text><path d="M734.5 421.334C734.5 417.007 738.007 413.5 742.333 413.5L798.667 413.5C802.993 413.5 806.5 417.007 806.5 421.334L806.5 452.667C806.5 456.993 802.993 460.5 798.667 460.5L742.333 460.5C738.007 460.5 734.5 456.993 734.5 452.667Z" stroke="#2F528F" stroke-width="1.33333" stroke-miterlimit="8" fill="#FFFF00" fill-rule="evenodd"/><text font-family="DengXian,DengXian_MSFontService,sans-serif" font-weight="700" font-size="21" transform="translate(748.664 444)">两组</text><path d="M818.5 421.334C818.5 417.007 822.007 413.5 826.334 413.5L881.667 413.5C885.993 413.5 889.5 417.007 889.5 421.334L889.5 452.667C889.5 456.993 885.993 460.5 881.667 460.5L826.334 460.5C822.007 460.5 818.5 456.993 818.5 452.667Z" stroke="#2F528F" stroke-width="1.33333" stroke-miterlimit="8" fill="#FFFF00" fill-rule="evenodd"/><text font-family="DengXian,DengXian_MSFontService,sans-serif" font-weight="700" font-size="21" transform="translate(831.996 444)">多组</text><path d="M921.5 339.334C921.5 335.007 925.007 331.5 929.334 331.5L1025.67 331.5C1029.99 331.5 1033.5 335.007 1033.5 339.334L1033.5 370.667C1033.5 374.993 1029.99 378.5 1025.67 378.5L929.334 378.5C925.007 378.5 921.5 374.993 921.5 370.667Z" stroke="#2F528F" stroke-width="1.33333" stroke-miterlimit="8" fill="#F2F2F2" fill-rule="evenodd"/><text font-family="DengXian,DengXian_MSFontService,sans-serif" font-weight="700" font-size="21" transform="translate(955.883 362)">无序</text><path d="M1091.5 339.5C1091.5 335.082 1095.08 331.5 1099.5 331.5L1195.5 331.5C1199.92 331.5 1203.5 335.082 1203.5 339.5L1203.5 371.5C1203.5 375.918 1199.92 379.5 1195.5 379.5L1099.5 379.5C1095.08 379.5 1091.5 375.918 1091.5 371.5Z" stroke="#2F528F" stroke-width="1.33333" stroke-miterlimit="8" fill="#F2F2F2" fill-rule="evenodd"/><text font-family="DengXian,DengXian_MSFontService,sans-serif" font-weight="700" font-size="21" transform="translate(1125.6 362)">有序</text><path d="M905.5 421.334C905.5 417.007 909.007 413.5 913.334 413.5L968.667 413.5C972.993 413.5 976.5 417.007 976.5 421.334L976.5 452.667C976.5 456.993 972.993 460.5 968.667 460.5L913.334 460.5C909.007 460.5 905.5 456.993 905.5 452.667Z" stroke="#2F528F" stroke-width="1.33333" stroke-miterlimit="8" fill="#FFFF00" fill-rule="evenodd"/><text font-family="DengXian,DengXian_MSFontService,sans-serif" font-weight="700" font-size="21" transform="translate(919.26 444)">两组</text><path d="M984.5 421.334C984.5 417.007 988.007 413.5 992.334 413.5L1047.67 413.5C1051.99 413.5 1055.5 417.007 1055.5 421.334L1055.5 452.667C1055.5 456.993 1051.99 460.5 1047.67 460.5L992.334 460.5C988.007 460.5 984.5 456.993 984.5 452.667Z" stroke="#2F528F" stroke-width="1.33333" stroke-miterlimit="8" fill="#FFFF00" fill-rule="evenodd"/><text font-family="DengXian,DengXian_MSFontService,sans-serif" font-weight="700" font-size="21" transform="translate(998.338 444)">多组</text><path d="M1063.5 420.5C1063.5 416.082 1067.08 412.5 1071.5 412.5L1126.5 412.5C1130.92 412.5 1134.5 416.082 1134.5 420.5L1134.5 452.5C1134.5 456.918 1130.92 460.5 1126.5 460.5L1071.5 460.5C1067.08 460.5 1063.5 456.918 1063.5 452.5Z" stroke="#2F528F" stroke-width="1.33333" stroke-miterlimit="8" fill="#F2F2F2" fill-rule="evenodd"/><text font-family="DengXian,DengXian_MSFontService,sans-serif" font-weight="700" font-size="21" transform="translate(1077.16 443)">两组</text><path d="M1170.5 420.5C1170.5 416.082 1174.08 412.5 1178.5 412.5L1234.5 412.5C1238.92 412.5 1242.5 416.082 1242.5 420.5L1242.5 452.5C1242.5 456.918 1238.92 460.5 1234.5 460.5L1178.5 460.5C1174.08 460.5 1170.5 456.918 1170.5 452.5Z" stroke="#2F528F" stroke-width="1.33333" stroke-miterlimit="8" fill="#F2F2F2" fill-rule="evenodd"/><text font-family="DengXian,DengXian_MSFontService,sans-serif" font-weight="700" font-size="21" transform="translate(1184.5 443)">多组</text><path d="M850.5 524.334C850.5 520.007 854.007 516.5 858.334 516.5L955.667 516.5C959.993 516.5 963.5 520.007 963.5 524.334L963.5 555.667C963.5 559.993 959.993 563.5 955.667 563.5L858.334 563.5C854.007 563.5 850.5 559.993 850.5 555.667Z" stroke="#2F528F" stroke-width="1.33333" stroke-miterlimit="8" fill="#F2F2F2" fill-rule="evenodd"/><text font-family="DengXian,DengXian_MSFontService,sans-serif" font-weight="700" font-size="19" transform="translate(870.821 534)">卡方<tspan x="37.3333" y="0">(X2)</tspan><tspan x="17.08" y="23">检验</tspan></text><path d="M907.184 203.5 907.184 224.287 810.5 224.287 810.5 245.074" stroke="#4472C4" stroke-width="0.666667" stroke-miterlimit="8" fill="none" fill-rule="evenodd"/><path d="M0 0 20.7869 0 20.7869 143.331 41.5739 143.331" stroke="#4472C4" stroke-width="0.666667" stroke-miterlimit="8" fill="none" fill-rule="evenodd" transform="matrix(-4.37114e-08 1 1 4.37114e-08 907.5 203.5)"/><path d="M810.389 292.5 810.389 352.928 770.5 352.928 770.5 413.356" stroke="#4472C4" stroke-width="0.666667" stroke-miterlimit="8" fill="none" fill-rule="evenodd"/><path d="M0 0 60.4281 0 60.4281 43.4434 120.856 43.4434" stroke="#4472C4" stroke-width="0.666667" stroke-miterlimit="8" fill="none" fill-rule="evenodd" transform="matrix(-4.37114e-08 1 1 4.37114e-08 810.5 292.5)"/><path d="M1050.19 292.5 1050.19 311.869 977.5 311.869 977.5 331.238" stroke="#4472C4" stroke-width="0.666667" stroke-miterlimit="8" fill="none" fill-rule="evenodd"/><path d="M0 0 19.5404 0 19.5404 97.0286 39.0806 97.0286" stroke="#4472C4" stroke-width="0.666667" stroke-miterlimit="8" fill="none" fill-rule="evenodd" transform="matrix(-4.37114e-08 1 1 4.37114e-08 1050.5 292.5)"/><path d="M978.123 378.5 978.123 395.71 941.5 395.71 941.5 412.921" stroke="#4472C4" stroke-width="0.666667" stroke-miterlimit="8" fill="none" fill-rule="evenodd"/><path d="M0 0 17.2102 0 17.2102 42.4555 34.4205 42.4555" stroke="#4472C4" stroke-width="0.666667" stroke-miterlimit="8" fill="none" fill-rule="evenodd" transform="matrix(-4.37114e-08 1 1 4.37114e-08 977.5 378.5)"/><path d="M1146.94 379.5 1146.94 396.238 1098.5 396.238 1098.5 412.976" stroke="#4472C4" stroke-width="0.666667" stroke-miterlimit="8" fill="none" fill-rule="evenodd"/><path d="M0 0 16.6522 0 16.6522 58.9024 33.3045 58.9024" stroke="#4472C4" stroke-width="0.666667" stroke-miterlimit="8" fill="none" fill-rule="evenodd" transform="matrix(-4.37114e-08 1 1 4.37114e-08 1147.5 379.5)"/><path d="M0 0 27.7165 0 27.7165 136.574 55.4329 136.574" stroke="#4472C4" stroke-width="0.666667" stroke-miterlimit="8" fill="none" fill-rule="evenodd" transform="matrix(-4.37114e-08 1 1 4.37114e-08 770.5 460.5)"/><path d="M0 0 27.7164 0 27.7164 53.2412 55.4329 53.2412" stroke="#4472C4" stroke-width="0.666667" stroke-miterlimit="8" fill="none" fill-rule="evenodd" transform="matrix(-4.37114e-08 1 1 4.37114e-08 853.5 460.5)"/><path d="M941.522 460.5 941.522 488.216 907.5 488.216 907.5 515.933" stroke="#4472C4" stroke-width="0.666667" stroke-miterlimit="8" fill="none" fill-rule="evenodd"/><path d="M1020.6 460.5 1020.6 488.216 907.5 488.216 907.5 515.933" stroke="#4472C4" stroke-width="0.666667" stroke-miterlimit="8" fill="none" fill-rule="evenodd"/><path d="M1045.5 524.334C1045.5 520.007 1049.01 516.5 1053.33 516.5L1149.67 516.5C1153.99 516.5 1157.5 520.007 1157.5 524.334L1157.5 555.667C1157.5 559.993 1153.99 563.5 1149.67 563.5L1053.33 563.5C1049.01 563.5 1045.5 559.993 1045.5 555.667Z" stroke="#2F528F" stroke-width="1.33333" stroke-miterlimit="8" fill="#F2F2F2" fill-rule="evenodd"/><text font-family="DengXian,DengXian_MSFontService,sans-serif" font-weight="700" font-size="19" transform="translate(1061.74 534)">Wilcoxon<tspan x="2.16675" y="23">秩和检验</tspan></text><path d="M1165.5 507.667C1165.5 501.5 1170.5 496.5 1176.67 496.5L1266.33 496.5C1272.5 496.5 1277.5 501.5 1277.5 507.667L1277.5 552.333C1277.5 558.5 1272.5 563.5 1266.33 563.5L1176.67 563.5C1170.5 563.5 1165.5 558.5 1165.5 552.333Z" stroke="#2F528F" stroke-width="1.33333" stroke-miterlimit="8" fill="#F2F2F2" fill-rule="evenodd"/><text font-family="DengXian,DengXian_MSFontService,sans-serif" font-weight="700" font-size="19" transform="translate(1185.84 513)">Kruskal<tspan x="61.3334" y="0">-</tspan><tspan x="10.2467" y="23">Wallis</tspan><tspan x="-2" y="45">秩和检验</tspan></text><path d="M1099 460.5 1099 488.518 1090.5 488.518 1090.5 516.535" stroke="#4472C4" stroke-width="0.666667" stroke-miterlimit="8" fill="none" fill-rule="evenodd"/><path d="M0 0 18.4348 0 18.4348 15.3391 36.8695 15.3391" stroke="#4472C4" stroke-width="0.666667" stroke-miterlimit="8" fill="none" fill-rule="evenodd" transform="matrix(-4.37114e-08 1 1 4.37114e-08 1206.5 460.5)"/><text font-family="DengXian,DengXian_MSFontService,sans-serif" font-weight="700" font-size="24" transform="translate(470.866 634)">完全随机设计的统计方法选择思路<tspan font-weight="400" font-size="16" x="-63.1667" y="22">内容参考来源：</tspan><tspan font-weight="400" font-size="16" x="48.8333" y="22">冯国双</tspan><tspan font-weight="400" font-size="16" x="96.8333" y="22">, </tspan><tspan font-weight="400" font-size="16" x="104.667" y="22">刘德平</tspan><tspan font-weight="400" font-size="16" x="152.667" y="22">. </tspan><tspan font-weight="400" font-size="16" x="160.5" y="22">医学实验设计分析与</tspan><tspan font-weight="400" font-size="16" x="304.5" y="22">SAS</tspan><tspan font-weight="400" font-size="16" x="331" y="22">实现</tspan><tspan font-weight="400" font-size="16" x="363" y="22">[J]. 2014.</tspan><a xlink:href="https://wxhyihuan.github.io/MedicalStatisNotes/%E7%AC%AC%E4%BA%8C%E7%AB%A0-%E8%AE%A1%E9%87%8F%E8%B5%84%E6%96%99%E7%9A%84%E7%BB%9F%E8%AE%A1%E6%8F%8F%E8%BF%B0.html#%E6%AD%A3%E6%80%81%E5%88%86%E5%B8%83%E6%A3%80%E9%AA%8C"><tspan fill="#FF0000" font-family="Microsoft YaHei,Microsoft YaHei_MSFontService,sans-serif" font-size="15" x="-286.252" y="-326">正态</tspan></a></text><path d="M184.947 310.161 213.947 310.161 213.947 311.161 184.947 311.161Z" fill="#FF0000" fill-rule="evenodd"/><a href="https://wxhyihuan.github.io/MedicalStatisNotes/%E7%AC%AC%E4%BA%8C%E7%AB%A0-%E8%AE%A1%E9%87%8F%E8%B5%84%E6%96%99%E7%9A%84%E7%BB%9F%E8%AE%A1%E6%8F%8F%E8%BF%B0.html#%E6%AD%A3%E6%80%81%E5%88%86%E5%B8%83%E6%A3%80%E9%AA%8C"><text fill="#FF0000" font-family="Microsoft YaHei,Microsoft YaHei_MSFontService,sans-serif" font-weight="700" font-size="15" transform="translate(169.947 326)">分布检验</text></a><path d="M169.947 328.161 199.447 328.161 228.947 328.161 228.947 329.161 199.447 329.161 169.947 329.161Z" fill="#FF0000" fill-rule="evenodd"/><a href="https://wxhyihuan.github.io/MedicalStatisNotes/%E7%AC%AC%E4%B8%89%E7%AB%A0-%E6%80%BB%E4%BD%93%E5%9D%87%E6%95%B0%E7%9A%84%E4%BC%B0%E8%AE%A1%E4%B8%8E%E5%81%87%E8%AE%BE%E6%A3%80%E9%AA%8C.html#%E4%B8%A4%E6%A0%B7%E6%9C%AC%E6%96%B9%E5%B7%AE%E9%BD%90%E6%80%A7%E6%A3%80%E9%AA%8C"><text fill="#FF0000" font-family="Microsoft YaHei,Microsoft YaHei_MSFontService,sans-serif" font-weight="700" font-size="15" transform="translate(100.894 395)">方差</text></a><path d="M101.227 397.295 130.227 397.295 130.227 398.295 101.227 398.295Z" fill="#FF0000" fill-rule="evenodd"/><a href="https://wxhyihuan.github.io/MedicalStatisNotes/%E7%AC%AC%E4%B8%89%E7%AB%A0-%E6%80%BB%E4%BD%93%E5%9D%87%E6%95%B0%E7%9A%84%E4%BC%B0%E8%AE%A1%E4%B8%8E%E5%81%87%E8%AE%BE%E6%A3%80%E9%AA%8C.html#%E4%B8%A4%E6%A0%B7%E6%9C%AC%E6%96%B9%E5%B7%AE%E9%BD%90%E6%80%A7%E6%A3%80%E9%AA%8C"><text fill="#FF0000" font-family="Microsoft YaHei,Microsoft YaHei_MSFontService,sans-serif" font-weight="700" font-size="15" transform="translate(86.2272 413)">齐性检验</text></a><path d="M86.2272 415.295 115.727 415.295 145.227 415.295 145.227 416.295 115.727 416.295 86.2272 416.295Z" fill="#FF0000" fill-rule="evenodd"/></g></svg>