<svg width="1270" height="507" xmlns="http://www.w3.org/2000/svg" xmlns:xlink="http://www.w3.org/1999/xlink" overflow="hidden"><defs><clipPath id="clip0"><rect x="0" y="0" width="1270" height="507"/></clipPath></defs><g clip-path="url(#clip0)"><rect x="0" y="0" width="1270" height="507" fill="#FFFFFF" transform="scale(1 1.00099)"/><path d="M0 0 0.000104987 418.283" stroke="#4472C4" stroke-width="3" stroke-miterlimit="8" fill="none" fill-rule="evenodd" transform="matrix(1 0 -0 1.00099 9.50005 53.5529)"/><path d="M0 0 612.094 0.000104987" stroke="#4472C4" stroke-width="3" stroke-miterlimit="8" fill="none" fill-rule="evenodd" transform="matrix(1 0 -0 1.00099 9.50005 425.92)"/><path d="M0 304.437C4.60356 304.265 9.20712 304.092 14.5012 303.747 19.7953 303.402 24.629 303.172 31.7646 302.366 38.9001 301.561 50.6392 300.181 57.3143 298.915 63.9895 297.65 68.1327 296.039 71.8155 294.774 75.4984 293.508 79.4114 291.323 79.4114 291.323 83.3244 289.482 90.46 286.376 95.2937 283.73 100.127 281.084 104.616 278.323 108.414 275.447 112.212 272.571 115.319 269.235 118.081 266.474 120.843 263.713 122.915 260.952 124.987 258.881 127.058 256.81 128.785 256.12 130.511 254.049 132.237 251.979 133.618 248.757 135.345 246.457 137.071 244.156 138.682 243.12 140.869 240.244 143.056 237.368 148.465 229.2 148.465 229.2 150.997 225.519 153.874 222.068 156.061 218.157 158.247 214.245 159.283 210.219 161.585 205.732 163.887 201.245 166.994 196.529 169.871 191.237 172.749 185.945 176.201 179.388 178.848 173.981 181.495 168.574 183.567 163.627 185.754 158.795 187.94 153.964 189.782 149.707 191.968 144.99 194.155 140.274 196.457 135.902 198.874 130.495 201.291 125.088 204.168 118.071 206.47 112.549 208.771 107.027 211.188 101.045 212.684 97.3635 214.181 93.6822 214.296 92.6468 215.447 90.4611 216.597 88.2753 218.324 86.4346 219.59 84.2488 220.856 82.0631 222.007 79.6472 223.042 77.3464 224.078 75.0456 224.654 72.9748 225.805 70.4439 226.956 67.913 228.452 64.8069 229.948 62.161 231.444 59.515 233.4 57.2142 234.782 54.5683 236.163 51.9223 236.163 49.9666 238.234 46.2853 240.306 42.604 244.679 36.1617 247.211 32.4804 249.743 28.7991 251.585 26.8434 253.426 24.1975 255.267 21.5515 256.418 19.0206 258.26 16.6048 260.101 14.1889 262.173 11.773 264.475 9.7023 266.776 7.63156 269.423 5.67587 272.07 4.18034 274.717 2.6848 277.71 1.41935 280.357 0.729106 283.004 0.0388603 285.421-0.0761807 287.953 0.0388603 290.485 0.153901 293.017 0.268942 295.549 1.41935 298.08 2.56976 300.497 4.98562 303.144 6.94132 305.791 8.89701 308.669 10.6226 311.431 13.1535 314.193 15.6844 317.185 18.7905 319.717 22.1267 322.249 25.4629 324.321 29.3743 326.623 33.1707 328.924 36.967 331.456 41.1085 333.528 44.9048 335.6 48.7012 337.326 52.8427 339.052 55.9488 340.779 59.0549 341.814 59.8602 343.886 63.5415 345.958 67.2228 349.18 73.55 351.482 78.0366 353.784 82.5232 356.085 87.0098 357.697 90.4611 359.308 93.9123 359.768 95.1777 361.149 98.744 362.53 102.31 363.796 106.682 365.983 111.859 368.17 117.036 371.968 124.973 374.269 129.805 376.571 134.637 378.067 137.053 379.794 140.849 381.52 144.645 382.901 148.442 384.627 152.583 386.354 156.725 387.735 160.751 390.152 165.698 392.569 170.645 396.251 176.857 399.129 182.264 402.006 187.671 404.768 192.963 407.415 198.139 410.062 203.316 412.709 209.528 415.011 213.325 417.313 217.121 419.499 218.387 421.226 220.917 422.952 223.448 423.412 225.519 425.369 228.51 427.325 231.501 430.663 235.873 432.965 238.864 435.267 241.855 436.993 243.235 439.18 246.457 441.366 249.678 443.438 254.97 446.085 258.191 448.732 261.412 451.954 262.907 455.062 265.783 458.169 268.659 461.277 272.916 464.729 275.447 468.182 277.978 472.67 279.013 475.778 280.969 478.885 282.925 480.727 285.571 483.374 287.181 486.021 288.792 488.783 289.252 491.66 290.632 494.537 292.013 497.3 294.314 500.637 295.464 503.975 296.614 508.118 296.614 511.686 297.535 515.253 298.455 519.627 300.526 522.044 300.986 524.461 301.446 524.115 300.066 526.187 300.296 528.258 300.526 531.366 301.791 534.473 302.366 537.581 302.942 541.264 303.172 544.831 303.747 548.399 304.322 552.542 305.473 555.88 305.818 559.217 306.163 562.67 305.933 564.857 305.818 567.043 305.703 568.022 305.415 569 305.128" stroke="#000000" stroke-width="2" stroke-miterlimit="8" stroke-dasharray="2 2" fill="#F2F2F2" fill-rule="evenodd" fill-opacity="0.34902" transform="matrix(1 0 -0 1.00099 18 109.108)"/><path d="M0 109.438C1.27832 109.376 2.55663 109.314 4.0267 109.19 5.49676 109.066 6.839 108.983 8.82039 108.694 10.8018 108.404 14.0615 107.908 15.915 107.453 17.7686 106.998 18.9191 106.419 19.9417 105.964 20.9644 105.51 22.051 104.724 22.051 104.724 23.1375 104.062 25.1189 102.946 26.4612 101.994 27.8034 101.043 29.0498 100.051 30.1044 99.0169 31.159 97.983 32.0218 96.7837 32.7888 95.7912 33.5558 94.7987 34.1311 93.8062 34.7063 93.0618 35.2816 92.3174 35.7609 92.0693 36.2403 91.3249 36.7197 90.5805 37.1032 89.4226 37.5825 88.5955 38.0619 87.7684 38.5093 87.3962 39.1165 86.3624 39.7237 85.3285 41.2257 82.3923 41.2257 82.3923 41.9288 81.069 42.7277 79.8283 43.3349 78.4223 43.9422 77.0162 44.2298 75.5688 44.8689 73.956 45.5081 72.3432 46.371 70.6476 47.1699 68.7453 47.9688 66.843 48.9276 64.4858 49.6626 62.5421 50.3977 60.5984 50.9729 58.8202 51.5801 57.0833 52.1873 55.3464 52.6986 53.8163 53.3058 52.1208 53.913 50.4252 54.5522 48.8537 55.2233 46.9101 55.8944 44.9664 56.6934 42.4438 57.3325 40.4588 57.9717 38.4737 58.6428 36.3233 59.0583 35 59.4737 33.6766 59.5057 33.3044 59.8252 32.5187 60.1448 31.7329 60.6242 31.0713 60.9757 30.2855 61.3273 29.4998 61.6468 28.6313 61.9345 27.8043 62.2221 26.9772 62.3819 26.2328 62.7015 25.323 63.021 24.4132 63.4365 23.2966 63.8519 22.3455 64.2674 21.3943 64.8107 20.5672 65.1942 19.616 65.5777 18.6649 65.5777 17.9619 66.1529 16.6385 66.7282 15.3152 67.9426 12.9993 68.6456 11.676 69.3487 10.3526 69.86 9.64959 70.3714 8.69843 70.8827 7.74728 71.2023 6.83748 71.7136 5.96903 72.2249 5.10058 72.8002 4.23214 73.4393 3.48776 74.0785 2.74337 74.8135 2.04034 75.5485 1.50273 76.2836 0.965125 77.1145 0.510225 77.8495 0.262097 78.5845 0.0139694 79.2557-0.0273852 79.9587 0.0139694 80.6618 0.055324 81.3649 0.0966786 82.068 0.510225 82.771 0.92377 83.4421 1.79222 84.1772 2.49524 84.9122 3.19827 85.7112 3.81859 86.4782 4.72839 87.2451 5.63819 88.076 6.75477 88.7791 7.95405 89.4822 9.15333 90.0574 10.5594 90.6966 11.9241 91.3358 13.2888 92.0388 14.7776 92.6141 16.1423 93.1893 17.507 93.6687 18.9957 94.1481 20.1123 94.6274 21.2289 94.915 21.5184 95.4903 22.8417 96.0655 24.1651 96.9604 26.4396 97.5995 28.0524 98.2387 29.6652 98.8778 31.278 99.3252 32.5187 99.7726 33.7593 99.9005 34.2142 100.284 35.4962 100.667 36.7782 101.019 38.3497 101.626 40.2106 102.233 42.0716 103.288 44.9251 103.927 46.6619 104.566 48.3988 104.982 49.2673 105.461 50.632 105.941 51.9967 106.324 53.3614 106.803 54.8502 107.283 56.3389 107.666 57.7863 108.337 59.5646 109.008 61.3428 110.031 63.576 110.83 65.5196 111.629 67.4633 112.396 69.3656 113.131 71.2266 113.866 73.0875 114.601 75.3207 115.24 76.6854 115.879 78.0501 116.487 78.505 116.966 79.4148 117.445 80.3246 117.573 81.069 118.117 82.1442 118.66 83.2194 119.587 84.7909 120.226 85.8661 120.865 86.9413 121.344 87.4376 121.951 88.5955 122.559 89.7534 123.134 91.6558 123.869 92.8137 124.604 93.9716 125.499 94.5092 126.362 95.5431 127.225 96.5769 128.087 98.1071 129.046 99.0169 130.005 99.9267 131.251 100.299 132.114 101.002 132.977 101.705 133.488 102.656 134.223 103.235 134.958 103.814 135.725 103.979 136.524 104.476 137.323 104.972 138.09 105.799 139.017 106.213 139.944 106.626 141.094 106.626 142.085 106.957 143.076 107.288 144.29 108.032 144.961 108.198 145.632 108.363 145.536 107.867 146.112 107.949 146.687 108.032 147.55 108.487 148.413 108.694 149.275 108.901 150.298 108.983 151.289 109.19 152.28 109.397 153.43 109.81 154.357 109.934 155.284 110.059 156.242 109.976 156.85 109.934 157.457 109.893 157.728 109.79 158 109.686" stroke="#F8CBAD" stroke-width="2" stroke-miterlimit="8" fill="#F8CBAD" fill-rule="evenodd" fill-opacity="0.470588" transform="matrix(1 0 -0 1.00099 131 295.291)"/><text fill="#FF0000" font-family="Baskerville Old Face,Baskerville Old Face_MSFontService,sans-serif" font-style="oblique" font-weight="400" font-size="17" transform="matrix(1 0 0 1.00099 204.174 356)">X</text><path d="M0 52.7293C1.78803 52.6994 3.57605 52.6696 5.63228 52.6098 7.68851 52.55 9.56594 52.5101 12.3374 52.3707 15.1088 52.2312 19.6683 51.9921 22.2609 51.7729 24.8536 51.5537 26.4628 51.2748 27.8932 51.0556 29.3236 50.8364 30.8434 50.4578 30.8434 50.4578 32.3633 50.139 35.1347 49.601 37.0121 49.1428 38.8896 48.6845 40.6329 48.2063 42.108 47.7081 43.5831 47.21 44.79 46.6322 45.8629 46.1539 46.9357 45.6757 47.7403 45.1975 48.5449 44.8389 49.3495 44.4802 50.02 44.3607 50.6905 44.002 51.361 43.6433 51.8974 43.0854 52.568 42.6869 53.2385 42.2884 53.8643 42.1091 54.7136 41.611 55.5629 41.1128 57.6638 39.6981 57.6638 39.6981 58.6472 39.0605 59.7648 38.4627 60.6141 37.7853 61.4634 37.1078 61.8657 36.4104 62.7597 35.6333 63.6537 34.8562 64.8606 34.0393 65.9782 33.1227 67.0957 32.2062 68.4367 31.0704 69.4648 30.1339 70.4929 29.1974 71.2975 28.3406 72.1468 27.5038 72.9962 26.6669 73.7114 25.9297 74.5607 25.1127 75.41 24.2958 76.304 23.5386 77.2427 22.6021 78.1814 21.6656 79.299 20.4502 80.193 19.4938 81.087 18.5373 82.0257 17.5012 82.6068 16.8636 83.1879 16.226 83.2326 16.0467 83.6796 15.6681 84.1266 15.2895 84.7971 14.9707 85.2888 14.5921 85.7805 14.2135 86.2275 13.7951 86.6299 13.3966 87.0322 12.9981 87.2557 12.6394 87.7027 12.2011 88.1497 11.7627 88.7308 11.2247 89.3119 10.7664 89.893 10.3082 90.6529 9.90965 91.1893 9.45137 91.7257 8.99308 91.7257 8.65435 92.5303 8.01674 93.335 7.37913 95.0336 6.2633 96.017 5.62569 97.0004 4.98808 97.7156 4.64935 98.4308 4.19106 99.146 3.73278 99.593 3.29442 100.308 2.87599 101.023 2.45755 101.828 2.03912 102.722 1.68046 103.616 1.32181 104.644 0.983075 105.672 0.724045 106.7 0.465015 107.863 0.245835 108.891 0.126283 109.919 0.0067307 110.858-0.0131947 111.841 0.0067307 112.824 0.0266561 113.808 0.0465815 114.791 0.245835 115.775 0.445089 116.713 0.863523 117.742 1.20225 118.77 1.54099 119.887 1.83987 120.96 2.27823 122.033 2.71658 123.195 3.25457 124.178 3.83241 125.162 4.41024 125.966 5.08771 126.86 5.74524 127.754 6.40278 128.738 7.1201 129.542 7.77764 130.347 8.43517 131.018 9.15249 131.688 9.69047 132.359 10.2285 132.761 10.3679 133.566 11.0055 134.37 11.6432 135.622 12.7391 136.516 13.5161 137.41 14.2932 138.304 15.0703 138.93 15.6681 139.555 16.2659 139.734 16.485 140.271 17.1027 140.807 17.7204 141.299 18.4776 142.148 19.3742 142.997 20.2709 144.472 21.6457 145.367 22.4826 146.261 23.3194 146.842 23.7379 147.512 24.3954 148.183 25.053 148.719 25.7105 149.39 26.4278 150.06 27.1451 150.596 27.8425 151.535 28.6993 152.474 29.5561 153.904 30.6321 155.022 31.5686 156.139 32.5051 157.212 33.4216 158.24 34.3183 159.268 35.2149 160.297 36.2909 161.191 36.9484 162.085 37.6059 162.934 37.8251 163.604 38.2635 164.275 38.7019 164.454 39.0605 165.214 39.5786 165.973 40.0966 167.27 40.8538 168.164 41.3719 169.058 41.8899 169.728 42.129 170.578 42.6869 171.427 43.2448 172.232 44.1614 173.26 44.7193 174.288 45.2772 175.539 45.5363 176.746 46.0344 177.953 46.5325 179.16 47.2698 180.501 47.7081 181.842 48.1465 183.586 48.3258 184.792 48.6645 185.999 49.0033 186.715 49.4616 187.743 49.7405 188.771 50.0195 189.844 50.0992 190.961 50.3383 192.079 50.5774 193.151 50.9759 194.448 51.1751 195.744 51.3744 197.353 51.3744 198.739 51.5338 200.125 51.6932 201.823 52.0519 202.762 52.1316 203.701 52.2113 203.567 51.9722 204.371 52.012 205.176 52.0519 206.383 52.271 207.59 52.3707 208.797 52.4703 210.227 52.5101 211.613 52.6098 212.999 52.7094 214.608 52.9087 215.904 52.9684 217.2 53.0282 218.541 52.9884 219.391 52.9684 220.24 52.9485 220.62 52.8987 221 52.8489" stroke="#C5E0B4" stroke-width="2" stroke-miterlimit="8" fill="#C5E0B4" fill-rule="evenodd" fill-opacity="0.419608" transform="matrix(1 0 -0 1.00099 159 292.288)"/><text fill="#FF0000" font-family="Baskerville Old Face,Baskerville Old Face_MSFontService,sans-serif" font-style="oblique" font-weight="400" font-size="17" transform="matrix(1 0 0 1.00099 264.043 325)">Y</text><path d="M0 69.6425C1.60194 69.603 3.20388 69.5636 5.04612 69.4846 6.88835 69.4057 8.57039 69.353 11.0534 69.1688 13.5364 68.9846 17.6214 68.6688 19.9442 68.3793 22.267 68.0898 23.7087 67.7214 24.9903 67.4319 26.2718 67.1424 27.6335 66.6424 27.6335 66.6424 28.9951 66.2214 31.4782 65.5108 33.1602 64.9055 34.8422 64.3002 36.4041 63.6686 37.7257 63.0107 39.0473 62.3528 40.1286 61.5896 41.0898 60.958 42.051 60.3264 42.7718 59.6948 43.4927 59.2211 44.2136 58.7475 44.8143 58.5896 45.415 58.1159 46.0158 57.6422 46.4964 56.9053 47.0971 56.379 47.6978 55.8526 48.2585 55.6158 49.0194 54.9579 49.7803 54.3 51.6626 52.4315 51.6626 52.4315 52.5437 51.5893 53.5449 50.7999 54.3058 49.9051 55.0667 49.0103 55.4272 48.0892 56.2282 47.0629 57.0291 46.0366 58.1104 44.9576 59.1117 43.747 60.1129 42.5364 61.3143 41.0364 62.2354 39.7995 63.1566 38.5626 63.8774 37.431 64.6383 36.3257 65.3993 35.2204 66.04 34.2467 66.801 33.1678 67.5619 32.0888 68.3629 31.0887 69.2039 29.8519 70.0449 28.615 71.0461 27.0097 71.8471 25.7465 72.6481 24.4833 73.4891 23.1148 74.0097 22.2727 74.5303 21.4306 74.5704 21.1937 74.9709 20.6937 75.3714 20.1937 75.9721 19.7726 76.4126 19.2726 76.8532 18.7726 77.2536 18.2199 77.6141 17.6936 77.9745 17.1673 78.1748 16.6936 78.5752 16.1146 78.9757 15.5357 79.4964 14.8251 80.017 14.2198 80.5376 13.6146 81.2184 13.0882 81.699 12.4829 82.1796 11.8777 82.1796 11.4303 82.9005 10.5881 83.6214 9.74602 85.1432 8.27229 86.0243 7.43016 86.9053 6.58803 87.5461 6.14065 88.1869 5.53537 88.8277 4.93009 89.2282 4.35112 89.8689 3.79847 90.5097 3.24583 91.2306 2.69318 92.0316 2.21948 92.8325 1.74578 93.7536 1.2984 94.6748 0.956286 95.5959 0.61417 96.6371 0.324688 97.5583 0.166789 98.4794 0.00888961 99.3204-0.0174269 100.201 0.00888961 101.083 0.0352062 101.964 0.0615227 102.845 0.324688 103.726 0.587854 104.567 1.1405 105.488 1.58788 106.409 2.03526 107.41 2.43001 108.371 3.00898 109.333 3.58794 110.374 4.29849 111.255 5.06167 112.136 5.82485 112.857 6.71961 113.658 7.58806 114.459 8.45651 115.34 9.4039 116.061 10.2723 116.782 11.1408 117.382 12.0882 117.983 12.7987 118.584 13.5093 118.944 13.6935 119.665 14.5356 120.386 15.3778 121.507 16.8252 122.308 17.8515 123.109 18.8779 123.91 19.9042 124.471 20.6937 125.032 21.4832 125.192 21.7727 125.672 22.5885 126.153 23.4043 126.593 24.4043 127.354 25.5886 128.115 26.7728 129.437 28.5887 130.238 29.694 131.039 30.7993 131.559 31.3519 132.16 32.2204 132.761 33.0888 133.242 33.9573 133.842 34.9046 134.443 35.852 134.924 36.7731 135.765 37.9047 136.606 39.0363 137.887 40.4574 138.888 41.6943 139.89 42.9312 140.851 44.1418 141.772 45.326 142.693 46.5103 143.614 47.9313 144.415 48.7998 145.216 49.6682 145.977 49.9577 146.578 50.5367 147.178 51.1156 147.339 51.5893 148.019 52.2736 148.7 52.9578 149.862 53.9578 150.663 54.6421 151.464 55.3263 152.064 55.6421 152.825 56.379 153.586 57.1158 154.307 58.3264 155.228 59.0633 156.149 59.8001 157.271 60.1422 158.352 60.8001 159.433 61.4581 160.515 62.4318 161.716 63.0107 162.917 63.5897 164.479 63.8265 165.561 64.2739 166.642 64.7213 167.283 65.3266 168.204 65.695 169.125 66.0635 170.086 66.1687 171.087 66.4845 172.089 66.8003 173.05 67.3267 174.211 67.5898 175.373 67.853 176.814 67.853 178.056 68.0635 179.297 68.274 180.819 68.7477 181.66 68.853 182.501 68.9583 182.381 68.6425 183.102 68.6951 183.823 68.7477 184.904 69.0372 185.985 69.1688 187.067 69.3004 188.348 69.353 189.59 69.4846 190.831 69.6162 192.273 69.8794 193.434 69.9583 194.596 70.0373 195.797 69.9846 196.558 69.9583 197.319 69.932 197.66 69.8662 198 69.8004" stroke="#8FAADC" stroke-width="2" stroke-miterlimit="8" fill="#00B0F0" fill-rule="evenodd" fill-opacity="0.419608" transform="matrix(1 0 -0 1.00099 240 338.334)"/><text fill="#FF0000" font-family="Baskerville Old Face,Baskerville Old Face_MSFontService,sans-serif" font-style="oblique" font-weight="400" font-size="17" transform="matrix(1 0 0 1.00099 333.988 380)">Z</text><path d="M0 0 0.000104987 0.000104987" stroke="#4472C4" stroke-width="0.666667" stroke-miterlimit="8" fill="none" fill-rule="evenodd" transform="matrix(1 0 -0 1.00099 164.5 390.886)"/><path d="M0 0 0.000104987 418.283" stroke="#4472C4" stroke-width="3" stroke-miterlimit="8" fill="none" fill-rule="evenodd" transform="matrix(1 0 -0 1.00099 649.5 53.5529)"/><path d="M0 0 612.094 0.000104987" stroke="#4472C4" stroke-width="3" stroke-miterlimit="8" fill="none" fill-rule="evenodd" transform="matrix(1 0 -0 1.00099 649.5 425.92)"/><path d="M0 304.437C4.60356 304.265 9.20712 304.092 14.5012 303.747 19.7953 303.402 24.629 303.172 31.7646 302.366 38.9001 301.561 50.6392 300.181 57.3143 298.915 63.9895 297.65 68.1327 296.039 71.8155 294.774 75.4984 293.508 79.4114 291.323 79.4114 291.323 83.3244 289.482 90.46 286.376 95.2937 283.73 100.127 281.084 104.616 278.323 108.414 275.447 112.212 272.571 115.319 269.235 118.081 266.474 120.843 263.713 122.915 260.952 124.987 258.881 127.058 256.81 128.785 256.12 130.511 254.049 132.237 251.979 133.618 248.757 135.345 246.457 137.071 244.156 138.682 243.12 140.869 240.244 143.056 237.368 148.465 229.2 148.465 229.2 150.997 225.519 153.874 222.068 156.061 218.157 158.247 214.245 159.283 210.219 161.585 205.732 163.887 201.245 166.994 196.529 169.871 191.237 172.749 185.945 176.201 179.388 178.848 173.981 181.495 168.574 183.567 163.627 185.754 158.795 187.94 153.964 189.782 149.707 191.968 144.99 194.155 140.274 196.457 135.902 198.874 130.495 201.291 125.088 204.168 118.071 206.47 112.549 208.771 107.027 211.188 101.045 212.684 97.3635 214.181 93.6822 214.296 92.6468 215.447 90.4611 216.597 88.2753 218.324 86.4346 219.59 84.2488 220.856 82.0631 222.007 79.6472 223.042 77.3464 224.078 75.0456 224.654 72.9748 225.805 70.4439 226.956 67.913 228.452 64.8069 229.948 62.161 231.444 59.515 233.4 57.2142 234.782 54.5683 236.163 51.9223 236.163 49.9666 238.234 46.2853 240.306 42.604 244.679 36.1617 247.211 32.4804 249.743 28.7991 251.585 26.8434 253.426 24.1975 255.267 21.5515 256.418 19.0206 258.26 16.6048 260.101 14.1889 262.173 11.773 264.475 9.7023 266.776 7.63156 269.423 5.67587 272.07 4.18034 274.717 2.6848 277.71 1.41935 280.357 0.729106 283.004 0.0388603 285.421-0.0761807 287.953 0.0388603 290.485 0.153901 293.017 0.268942 295.549 1.41935 298.08 2.56976 300.497 4.98562 303.144 6.94132 305.791 8.89701 308.669 10.6226 311.431 13.1535 314.193 15.6844 317.185 18.7905 319.717 22.1267 322.249 25.4629 324.321 29.3743 326.623 33.1707 328.924 36.967 331.456 41.1085 333.528 44.9048 335.6 48.7012 337.326 52.8427 339.052 55.9488 340.779 59.0549 341.814 59.8602 343.886 63.5415 345.958 67.2228 349.18 73.55 351.482 78.0366 353.784 82.5232 356.085 87.0098 357.697 90.4611 359.308 93.9123 359.768 95.1777 361.149 98.744 362.53 102.31 363.796 106.682 365.983 111.859 368.17 117.036 371.968 124.973 374.269 129.805 376.571 134.637 378.067 137.053 379.794 140.849 381.52 144.645 382.901 148.442 384.627 152.583 386.354 156.725 387.735 160.751 390.152 165.698 392.569 170.645 396.251 176.857 399.129 182.264 402.006 187.671 404.768 192.963 407.415 198.139 410.062 203.316 412.709 209.528 415.011 213.325 417.313 217.121 419.499 218.387 421.226 220.917 422.952 223.448 423.412 225.519 425.369 228.51 427.325 231.501 430.663 235.873 432.965 238.864 435.267 241.855 436.993 243.235 439.18 246.457 441.366 249.678 443.438 254.97 446.085 258.191 448.732 261.412 451.954 262.907 455.062 265.783 458.169 268.659 461.277 272.916 464.729 275.447 468.182 277.978 472.67 279.013 475.778 280.969 478.885 282.925 480.727 285.571 483.374 287.181 486.021 288.792 488.783 289.252 491.66 290.632 494.537 292.013 497.3 294.314 500.637 295.464 503.975 296.614 508.118 296.614 511.686 297.535 515.253 298.455 519.627 300.526 522.044 300.986 524.461 301.446 524.115 300.066 526.187 300.296 528.258 300.526 531.366 301.791 534.473 302.366 537.581 302.942 541.264 303.172 544.831 303.747 548.399 304.322 552.542 305.473 555.88 305.818 559.217 306.163 562.67 305.933 564.857 305.818 567.043 305.703 568.022 305.415 569 305.128" stroke="#000000" stroke-width="2" stroke-miterlimit="8" stroke-dasharray="2 2" fill="#F2F2F2" fill-rule="evenodd" fill-opacity="0.34902" transform="matrix(1 0 -0 1.00099 658 109.108)"/><path d="M0 108.443C1.27832 108.382 2.55663 108.32 4.0267 108.197 5.49676 108.075 6.839 107.993 8.82039 107.706 10.8018 107.419 14.0615 106.927 15.915 106.476 17.7686 106.026 18.9191 105.452 19.9417 105.001 20.9644 104.55 22.051 103.772 22.051 103.772 23.1375 103.116 25.1189 102.01 26.4612 101.067 27.8034 100.125 29.0498 99.1412 30.1044 98.1167 31.159 97.0922 32.0218 95.9039 32.7888 94.9204 33.5558 93.9369 34.1311 92.9534 34.7063 92.2158 35.2816 91.4782 35.7609 91.2323 36.2403 90.4947 36.7197 89.7571 37.1032 88.6097 37.5825 87.7901 38.0619 86.9705 38.5093 86.6017 39.1165 85.5772 39.7237 84.5528 41.2257 81.6433 41.2257 81.6433 41.9288 80.332 42.7277 79.1026 43.3349 77.7094 43.9422 76.3161 44.2298 74.8818 44.8689 73.2837 45.5081 71.6855 46.371 70.0054 47.1699 68.1203 47.9688 66.2353 48.9276 63.8995 49.6626 61.9735 50.3977 60.0476 50.9729 58.2855 51.5801 56.5644 52.1873 54.8433 52.6986 53.3271 53.3058 51.6469 53.913 49.9668 54.5522 48.4096 55.2233 46.4836 55.8944 44.5576 56.6934 42.0579 57.3325 40.091 57.9717 38.124 58.6428 35.9931 59.0583 34.6818 59.4737 33.3705 59.5057 33.0016 59.8252 32.2231 60.1448 31.4445 60.6242 30.7888 60.9757 30.0102 61.3273 29.2316 61.6468 28.3711 61.9345 27.5515 62.2221 26.7319 62.3819 25.9943 62.7015 25.0928 63.021 24.1912 63.4365 23.0848 63.8519 22.1423 64.2674 21.1998 64.8107 20.3802 65.1942 19.4377 65.5777 18.4952 65.5777 17.7986 66.1529 16.4873 66.7282 15.1759 67.9426 12.8811 68.6456 11.5698 69.3487 10.2585 69.86 9.56187 70.3714 8.61936 70.8827 7.67685 71.2023 6.77532 71.7136 5.91477 72.2249 5.05422 72.8002 4.19366 73.4393 3.45605 74.0785 2.71843 74.8135 2.0218 75.5485 1.48907 76.2836 0.956351 77.1145 0.505586 77.8495 0.259714 78.5845 0.0138424 79.2557-0.0271363 79.9587 0.0138424 80.6618 0.054821 81.3649 0.0957997 82.068 0.505586 82.771 0.915373 83.4421 1.77592 84.1772 2.47256 84.9122 3.1692 85.7112 3.78388 86.4782 4.68541 87.2451 5.58694 88.076 6.69336 88.7791 7.88174 89.4822 9.07012 90.0574 10.4634 90.6966 11.8157 91.3358 13.168 92.0388 14.6432 92.6141 15.9955 93.1893 17.3478 93.6687 18.823 94.1481 19.9295 94.6274 21.0359 94.915 21.3227 95.4903 22.6341 96.0655 23.9454 96.9604 26.1992 97.5995 27.7974 98.2387 29.3955 98.8778 30.9937 99.3252 32.2231 99.7726 33.4524 99.9005 33.9032 100.284 35.1735 100.667 36.4439 101.019 38.001 101.626 39.8451 102.233 41.6891 103.288 44.5166 103.927 46.2378 104.566 47.9589 104.982 48.8194 105.461 50.1717 105.941 51.524 106.324 52.8763 106.803 54.3515 107.283 55.8268 107.666 57.261 108.337 59.0231 109.008 60.7852 110.031 62.998 110.83 64.924 111.629 66.85 112.396 68.735 113.131 70.5791 113.866 72.4231 114.601 74.6359 115.24 75.9882 115.879 77.3405 116.487 77.7913 116.966 78.6928 117.445 79.5944 117.573 80.332 118.117 81.3974 118.66 82.4629 119.587 84.0201 120.226 85.0855 120.865 86.1509 121.344 86.6427 121.951 87.7901 122.559 88.9375 123.134 90.8225 123.869 91.9699 124.604 93.1173 125.499 93.65 126.362 94.6745 127.225 95.699 128.087 97.2152 129.046 98.1167 130.005 99.0182 131.251 99.3871 132.114 100.084 132.977 100.78 133.488 101.723 134.223 102.297 134.958 102.87 135.725 103.034 136.524 103.526 137.323 104.018 138.09 104.837 139.017 105.247 139.944 105.657 141.094 105.657 142.085 105.985 143.076 106.312 144.29 107.05 144.961 107.214 145.632 107.378 145.536 106.886 146.112 106.968 146.687 107.05 147.55 107.501 148.413 107.706 149.275 107.911 150.298 107.993 151.289 108.197 152.28 108.402 153.43 108.812 154.357 108.935 155.284 109.058 156.242 108.976 156.85 108.935 157.457 108.894 157.728 108.792 158 108.689" stroke="#F8CBAD" stroke-width="2" stroke-miterlimit="8" fill="#F8CBAD" fill-rule="evenodd" fill-opacity="0.470588" transform="matrix(1 0 -0 1.00099 837 270.267)"/><text fill="#FF0000" font-family="Baskerville Old Face,Baskerville Old Face_MSFontService,sans-serif" font-style="oblique" font-weight="400" font-size="17" transform="matrix(1 0 0 1.00099 910.016 331)">X</text><path d="M0 52.7293C1.78803 52.6994 3.57605 52.6696 5.63228 52.6098 7.68851 52.55 9.56594 52.5101 12.3374 52.3707 15.1088 52.2312 19.6683 51.9921 22.2609 51.7729 24.8536 51.5537 26.4628 51.2748 27.8932 51.0556 29.3236 50.8364 30.8434 50.4578 30.8434 50.4578 32.3633 50.139 35.1347 49.601 37.0121 49.1428 38.8896 48.6845 40.6329 48.2063 42.108 47.7081 43.5831 47.21 44.79 46.6322 45.8629 46.1539 46.9357 45.6757 47.7403 45.1975 48.5449 44.8389 49.3495 44.4802 50.02 44.3607 50.6905 44.002 51.361 43.6433 51.8974 43.0854 52.568 42.6869 53.2385 42.2884 53.8643 42.1091 54.7136 41.611 55.5629 41.1128 57.6638 39.6981 57.6638 39.6981 58.6472 39.0605 59.7648 38.4627 60.6141 37.7853 61.4634 37.1078 61.8657 36.4104 62.7597 35.6333 63.6537 34.8562 64.8606 34.0393 65.9782 33.1227 67.0957 32.2062 68.4367 31.0704 69.4648 30.1339 70.4929 29.1974 71.2975 28.3406 72.1468 27.5038 72.9962 26.6669 73.7114 25.9297 74.5607 25.1127 75.41 24.2958 76.304 23.5386 77.2427 22.6021 78.1814 21.6656 79.299 20.4502 80.193 19.4938 81.087 18.5373 82.0257 17.5012 82.6068 16.8636 83.1879 16.226 83.2326 16.0467 83.6796 15.6681 84.1266 15.2895 84.7971 14.9707 85.2888 14.5921 85.7805 14.2135 86.2275 13.7951 86.6299 13.3966 87.0322 12.9981 87.2557 12.6394 87.7027 12.2011 88.1497 11.7627 88.7308 11.2247 89.3119 10.7664 89.893 10.3082 90.6529 9.90965 91.1893 9.45137 91.7257 8.99308 91.7257 8.65435 92.5303 8.01674 93.335 7.37913 95.0336 6.2633 96.017 5.62569 97.0004 4.98808 97.7156 4.64935 98.4308 4.19106 99.146 3.73278 99.593 3.29442 100.308 2.87599 101.023 2.45755 101.828 2.03912 102.722 1.68046 103.616 1.32181 104.644 0.983075 105.672 0.724045 106.7 0.465015 107.863 0.245835 108.891 0.126283 109.919 0.0067307 110.858-0.0131947 111.841 0.0067307 112.824 0.0266561 113.808 0.0465815 114.791 0.245835 115.775 0.445089 116.713 0.863523 117.742 1.20225 118.77 1.54099 119.887 1.83987 120.96 2.27823 122.033 2.71658 123.195 3.25457 124.178 3.83241 125.162 4.41024 125.966 5.08771 126.86 5.74524 127.754 6.40278 128.738 7.1201 129.542 7.77764 130.347 8.43517 131.018 9.15249 131.688 9.69047 132.359 10.2285 132.761 10.3679 133.566 11.0055 134.37 11.6432 135.622 12.7391 136.516 13.5161 137.41 14.2932 138.304 15.0703 138.93 15.6681 139.555 16.2659 139.734 16.485 140.271 17.1027 140.807 17.7204 141.299 18.4776 142.148 19.3742 142.997 20.2709 144.472 21.6457 145.367 22.4826 146.261 23.3194 146.842 23.7379 147.512 24.3954 148.183 25.053 148.719 25.7105 149.39 26.4278 150.06 27.1451 150.596 27.8425 151.535 28.6993 152.474 29.5561 153.904 30.6321 155.022 31.5686 156.139 32.5051 157.212 33.4216 158.24 34.3183 159.268 35.2149 160.297 36.2909 161.191 36.9484 162.085 37.6059 162.934 37.8251 163.604 38.2635 164.275 38.7019 164.454 39.0605 165.214 39.5786 165.973 40.0966 167.27 40.8538 168.164 41.3719 169.058 41.8899 169.728 42.129 170.578 42.6869 171.427 43.2448 172.232 44.1614 173.26 44.7193 174.288 45.2772 175.539 45.5363 176.746 46.0344 177.953 46.5325 179.16 47.2698 180.501 47.7081 181.842 48.1465 183.586 48.3258 184.792 48.6645 185.999 49.0033 186.715 49.4616 187.743 49.7405 188.771 50.0195 189.844 50.0992 190.961 50.3383 192.079 50.5774 193.151 50.9759 194.448 51.1751 195.744 51.3744 197.353 51.3744 198.739 51.5338 200.125 51.6932 201.823 52.0519 202.762 52.1316 203.701 52.2113 203.567 51.9722 204.371 52.012 205.176 52.0519 206.383 52.271 207.59 52.3707 208.797 52.4703 210.227 52.5101 211.613 52.6098 212.999 52.7094 214.608 52.9087 215.904 52.9684 217.2 53.0282 218.541 52.9884 219.391 52.9684 220.24 52.9485 220.62 52.8987 221 52.8489" stroke="#C5E0B4" stroke-width="2" stroke-miterlimit="8" fill="#C5E0B4" fill-rule="evenodd" fill-opacity="0.419608" transform="matrix(1 0 -0 1.00099 859 253.25)"/><text fill="#FF0000" font-family="Baskerville Old Face,Baskerville Old Face_MSFontService,sans-serif" font-style="oblique" font-weight="400" font-size="17" transform="matrix(1 0 0 1.00099 964.26 286)">Y</text><path d="M0 68.6476C1.61003 68.6087 3.22006 68.5698 5.0716 68.492 6.92314 68.4142 8.61367 68.3623 11.1092 68.1807 13.6048 67.9991 17.7104 67.6878 20.0449 67.4025 22.3794 67.1171 23.8285 66.7539 25.1165 66.4686 26.4045 66.1833 27.7731 65.6904 27.7731 65.6904 29.1416 65.2753 31.6371 64.5749 33.3277 63.9783 35.0182 63.3817 36.588 62.7591 37.9163 62.1106 39.2445 61.4621 40.3313 60.7098 41.2973 60.0872 42.2633 59.4646 42.9879 58.8421 43.7124 58.3751 44.4369 57.9082 45.0407 57.7526 45.6444 57.2856 46.2482 56.8187 46.7312 56.0924 47.3349 55.5735 47.9387 55.0547 48.5022 54.8213 49.267 54.1728 50.0318 53.5242 51.9235 51.6825 51.9235 51.6825 52.8091 50.8524 53.8153 50.0741 54.5801 49.1922 55.3449 48.3102 55.7071 47.4023 56.5121 46.3906 57.3172 45.3789 58.4039 44.3153 59.4102 43.1221 60.4165 41.9288 61.624 40.4502 62.5498 39.231 63.4755 38.0118 64.2 36.8963 64.9648 35.8068 65.7296 34.7173 66.3736 33.7575 67.1383 32.6939 67.9031 31.6304 68.7081 30.6446 69.5534 29.4254 70.3987 28.2062 71.4049 26.6238 72.21 25.3787 73.015 24.1335 73.8602 22.7846 74.3835 21.9545 74.9068 21.1244 74.947 20.891 75.3495 20.3981 75.752 19.9052 76.3558 19.4902 76.7985 18.9973 77.2413 18.5044 77.6438 17.9597 78.0061 17.4409 78.3683 16.922 78.5696 16.4551 78.9721 15.8844 79.3746 15.3137 79.8979 14.6133 80.4211 14.0167 80.9444 13.4201 81.6286 12.9012 82.1116 12.3046 82.5947 11.708 82.5947 11.267 83.3192 10.4369 84.0437 9.60679 85.5732 8.15411 86.4587 7.32401 87.3443 6.49392 87.9883 6.05292 88.6323 5.45629 89.2763 4.85966 89.6788 4.28896 90.3228 3.74421 90.9668 3.19946 91.6913 2.6547 92.4964 2.18777 93.3014 1.72084 94.2271 1.27985 95.1529 0.942625 96.0787 0.605397 97.1252 0.32005 98.051 0.164406 98.9767 0.00876261 99.822-0.017178 100.708 0.00876261 101.593 0.0347032 102.479 0.0606438 103.364 0.32005 104.25 0.579456 105.095 1.12421 106.021 1.5652 106.946 2.00619 107.953 2.3953 108.919 2.96599 109.885 3.53669 110.931 4.23708 111.817 4.98936 112.702 5.74164 113.427 6.62362 114.232 7.47966 115.037 8.3357 115.922 9.26956 116.647 10.1256 117.371 10.9816 117.975 11.9155 118.579 12.6159 119.183 13.3163 119.545 13.4979 120.269 14.328 120.994 15.1581 122.121 16.5848 122.926 17.5965 123.731 18.6082 124.536 19.6199 125.1 20.3981 125.663 21.1763 125.824 21.4616 126.307 22.2658 126.79 23.07 127.233 24.0557 127.998 25.223 128.762 26.3904 130.091 28.1803 130.896 29.2698 131.701 30.3593 132.224 30.904 132.828 31.7601 133.431 32.6161 133.914 33.4721 134.518 34.406 135.122 35.3399 135.605 36.2478 136.45 37.3632 137.296 38.4787 138.584 39.8795 139.59 41.0987 140.596 42.3179 141.562 43.5112 142.488 44.6785 143.414 45.8458 144.339 47.2466 145.144 48.1027 145.949 48.9587 146.714 49.244 147.318 49.8147 147.922 50.3854 148.083 50.8524 148.767 51.5268 149.451 52.2013 150.619 53.187 151.424 53.8615 152.229 54.5359 152.832 54.8472 153.597 55.5735 154.362 56.2999 155.086 57.4932 156.012 58.2195 156.938 58.9458 158.065 59.2831 159.152 59.9316 160.238 60.5801 161.325 61.5399 162.533 62.1106 163.74 62.6813 165.31 62.9147 166.397 63.3557 167.484 63.7967 168.128 64.3933 169.053 64.7565 169.979 65.1197 170.945 65.2235 171.951 65.5347 172.958 65.846 173.924 66.3648 175.091 66.6242 176.258 66.8837 177.707 66.8837 178.955 67.0912 180.203 67.2987 181.732 67.7656 182.578 67.8694 183.423 67.9732 183.302 67.6619 184.027 67.7138 184.751 67.7656 185.838 68.051 186.925 68.1807 188.012 68.3104 189.3 68.3623 190.547 68.492 191.795 68.6217 193.244 68.8811 194.411 68.9589 195.579 69.0367 196.786 68.9848 197.551 68.9589 198.316 68.933 198.658 68.8681 199 68.8033" stroke="#8FAADC" stroke-width="2" stroke-miterlimit="8" fill="#00B0F0" fill-rule="evenodd" fill-opacity="0.419608" transform="matrix(1 0 -0 1.00099 969 326.322)"/><text fill="#FF0000" font-family="Baskerville Old Face,Baskerville Old Face_MSFontService,sans-serif" font-style="oblique" font-weight="400" font-size="17" transform="matrix(1 0 0 1.00099 1063.31 367)">Z</text><path d="M0 0 0.000104987 0.000104987" stroke="#4472C4" stroke-width="0.666667" stroke-miterlimit="8" fill="none" fill-rule="evenodd" transform="matrix(1 0 -0 1.00099 870.5 365.861)"/></g></svg>