<svg width="1270" height="507" xmlns="http://www.w3.org/2000/svg" xmlns:xlink="http://www.w3.org/1999/xlink" overflow="hidden"><defs><clipPath id="clip0"><rect x="0" y="0" width="1270" height="507"/></clipPath></defs><g clip-path="url(#clip0)"><rect x="0" y="0" width="1270" height="507" fill="#FFFFFF" transform="scale(1 1.00099)"/><path d="M0 0 0.000104987 425.928" stroke="#4472C4" stroke-width="3" stroke-miterlimit="8" fill="none" fill-rule="evenodd" transform="matrix(1 0 -0 1.00099 10.5001 53.5529)"/><path d="M0 0 623.281 0.000104987" stroke="#4472C4" stroke-width="3" stroke-miterlimit="8" fill="none" fill-rule="evenodd" transform="matrix(1 0 -0 1.00099 10.5001 432.927)"/><path d="M0 310.407C4.68447 310.231 9.36893 310.055 14.7561 309.703 20.1432 309.351 25.0619 309.116 32.3228 308.295 39.5837 307.474 51.5291 306.067 58.3216 304.776 65.1141 303.486 69.3301 301.844 73.0777 300.554 76.8252 299.263 80.807 297.035 80.807 297.035 84.7888 295.158 92.0498 291.991 96.9684 289.293 101.887 286.595 106.454 283.78 110.319 280.848 114.184 277.915 117.346 274.514 120.157 271.699 122.967 268.884 125.075 266.068 127.183 263.957 129.291 261.846 131.048 261.142 132.805 259.031 134.561 256.919 135.967 253.635 137.723 251.289 139.48 248.943 141.12 247.887 143.345 244.955 145.57 242.023 151.074 233.695 151.074 233.695 153.65 229.941 156.578 226.422 158.803 222.434 161.029 218.446 162.083 214.341 164.425 209.766 166.767 205.191 169.929 200.382 172.857 194.987 175.785 189.591 179.298 182.905 181.992 177.392 184.685 171.879 186.793 166.835 189.018 161.909 191.243 156.983 193.117 152.643 195.342 147.833 197.567 143.024 199.91 138.567 202.369 133.054 204.828 127.541 207.756 120.386 210.098 114.756 212.441 109.126 214.9 103.026 216.422 99.2726 217.945 95.5191 218.062 94.4634 219.233 92.2348 220.404 90.0062 222.161 88.1294 223.449 85.9008 224.737 83.6721 225.908 81.2089 226.962 78.863 228.016 76.5171 228.602 74.4057 229.773 71.8252 230.944 69.2447 232.467 66.0777 233.989 63.3798 235.512 60.682 237.502 58.3361 238.908 55.6382 240.313 52.9404 240.313 50.9464 242.421 47.1929 244.529 43.4394 248.979 36.8708 251.556 33.1173 254.132 29.3638 256.006 27.3697 257.88 24.6719 259.754 21.9741 260.925 19.3936 262.799 16.9303 264.672 14.4671 266.78 12.0039 269.123 9.89254 271.465 7.7812 274.158 5.78716 276.852 4.2623 279.546 2.73745 282.59 1.44718 285.284 0.743402 287.978 0.0396223 290.437-0.0776744 293.013 0.0396223 295.59 0.156919 298.166 0.274216 300.743 1.44718 303.319 2.62015 305.779 5.08338 308.472 7.07742 311.166 9.07147 314.093 10.8309 316.904 13.4114 319.715 15.992 322.76 19.159 325.336 22.5606 327.913 25.9622 330.021 29.9503 332.363 33.8211 334.705 37.6919 337.282 41.9145 339.39 45.7853 341.498 49.6561 343.254 53.8788 345.011 57.0458 346.768 60.2128 347.822 61.0339 349.93 64.7874 352.038 68.5409 355.317 74.9922 357.659 79.5668 360.001 84.1413 362.343 88.7159 363.983 92.2348 365.623 95.7537 366.091 97.044 367.496 100.68 368.902 104.316 370.19 108.774 372.415 114.052 374.64 119.33 378.505 127.424 380.847 132.35 383.189 137.277 384.712 139.74 386.468 143.611 388.225 147.482 389.63 151.352 391.387 155.575 393.144 159.798 394.549 163.903 397.008 168.947 399.468 173.991 403.215 180.325 406.143 185.838 409.071 191.35 411.882 196.746 414.575 202.024 417.269 207.303 419.962 213.637 422.305 217.508 424.647 221.378 426.872 222.669 428.629 225.249 430.385 227.83 430.854 229.941 432.845 232.991 434.836 236.041 438.232 240.498 440.574 243.548 442.916 246.597 444.673 248.005 446.898 251.289 449.123 254.573 451.231 259.969 453.925 263.253 456.618 266.538 459.897 268.062 463.059 270.995 466.221 273.927 469.384 278.267 472.897 280.848 476.41 283.428 480.978 284.484 484.14 286.478 487.302 288.472 489.175 291.17 491.869 292.812 494.562 294.454 497.373 294.923 500.301 296.331 503.229 297.739 506.039 300.085 509.436 301.257 512.832 302.43 517.048 302.43 520.678 303.369 524.309 304.307 528.759 306.419 531.218 306.888 533.678 307.357 533.326 305.949 535.434 306.184 537.542 306.419 540.704 307.709 543.867 308.295 547.029 308.882 550.776 309.116 554.407 309.703 558.037 310.289 562.253 311.462 565.649 311.814 569.045 312.166 572.559 311.931 574.784 311.814 577.009 311.697 578.005 311.404 579 311.11" stroke="#000000" stroke-width="2" stroke-miterlimit="8" stroke-dasharray="2 2" fill="#F2F2F2" fill-rule="evenodd" fill-opacity="0.34902" transform="matrix(1 0 -0 1.00099 20 110.109)"/><path d="M0 111.428C0.954692 111.365 1.90938 111.302 3.00728 111.175 4.10518 111.049 5.1076 110.965 6.58738 110.67 8.06715 110.375 10.5016 109.87 11.8859 109.407 13.2702 108.944 14.1294 108.354 14.8932 107.891 15.657 107.428 16.4684 106.628 16.4684 106.628 17.2799 105.954 18.7597 104.817 19.7621 103.849 20.7646 102.88 21.6954 101.87 22.483 100.817 23.2706 99.7645 23.915 98.5434 24.4879 97.5329 25.0607 96.5223 25.4903 95.5118 25.9199 94.7538 26.3495 93.9959 26.7075 93.7433 27.0655 92.9854 27.4235 92.2274 27.7099 91.0485 28.068 90.2063 28.426 89.3642 28.7601 88.9852 29.2136 87.9326 29.6671 86.8799 30.7888 83.8904 30.7888 83.8904 31.3139 82.543 31.9106 81.2798 32.3641 79.8481 32.8176 78.4165 33.0324 76.9428 33.5097 75.3006 33.9871 73.6585 34.6315 71.9321 35.2282 69.9952 35.8248 68.0583 36.5409 65.6582 37.0898 63.6792 37.6388 61.7002 38.0684 59.8897 38.5218 58.1212 38.9753 56.3527 39.3572 54.7948 39.8107 53.0684 40.2642 51.342 40.7415 49.742 41.2427 47.763 41.7439 45.784 42.3406 43.2155 42.818 41.1944 43.2953 39.1733 43.7965 36.9837 44.1068 35.6363 44.4171 34.2889 44.4409 33.91 44.6796 33.1099 44.9183 32.3099 45.2763 31.6362 45.5388 30.8362 45.8014 30.0362 46.04 29.1519 46.2549 28.3098 46.4697 27.4677 46.589 26.7097 46.8277 25.7834 47.0663 24.8571 47.3766 23.7202 47.6869 22.7517 47.9972 21.7833 48.4029 20.9412 48.6893 19.9727 48.9757 19.0043 48.9757 18.2884 49.4053 16.941 49.8349 15.5936 50.7419 13.2357 51.267 11.8883 51.7921 10.5408 52.1739 9.82504 52.5558 8.85659 52.9377 7.88814 53.1764 6.9618 53.5583 6.07756 53.9401 5.19332 54.3697 4.30909 54.8471 3.55117 55.3244 2.79325 55.8734 2.07744 56.4223 1.53006 56.9713 0.982673 57.5918 0.519501 58.1408 0.266862 58.6897 0.0142234 59.1909-0.0278831 59.716 0.0142234 60.2411 0.0563299 60.7662 0.0984364 61.2913 0.519501 61.8163 0.940566 62.3176 1.8248 62.8665 2.54061 63.4155 3.25642 64.0121 3.88802 64.585 4.81436 65.1578 5.74071 65.7783 6.87758 66.3034 8.09867 66.8285 9.31976 67.2581 10.7514 67.7354 12.1409 68.2128 13.5304 68.7379 15.0462 69.1675 16.4358 69.5971 17.8253 69.9551 19.3411 70.3131 20.478 70.6711 21.6149 70.8859 21.9096 71.3155 23.257 71.7451 24.6044 72.4134 26.9203 72.8908 28.5624 73.3681 30.2046 73.8455 31.8467 74.1796 33.1099 74.5137 34.3731 74.6092 34.8363 74.8956 36.1416 75.182 37.4469 75.4446 39.0469 75.8981 40.9417 76.3515 42.8365 77.1392 45.7419 77.6165 47.5103 78.0938 49.2788 78.4041 50.1631 78.7621 51.5526 79.1201 52.9421 79.4066 54.3316 79.7646 55.8474 80.1226 57.3633 80.409 58.837 80.9102 60.6476 81.4114 62.4582 82.1752 64.7319 82.7718 66.7109 83.3685 68.6899 83.9413 70.6268 84.4903 72.5216 85.0392 74.4164 85.5882 76.6902 86.0655 78.0797 86.5429 79.4692 86.9964 79.9324 87.3544 80.8587 87.7124 81.785 87.8078 82.543 88.2136 83.6377 88.6193 84.7325 89.3115 86.3325 89.7888 87.4273 90.2662 88.5221 90.6242 89.0274 91.0777 90.2063 91.5311 91.3853 91.9608 93.3222 92.5097 94.5012 93.0587 95.6802 93.7269 96.2276 94.3714 97.2802 95.0158 98.3329 95.6602 99.8908 96.3762 100.817 97.0922 101.744 98.0231 102.122 98.6675 102.838 99.3119 103.554 99.6938 104.523 100.243 105.112 100.792 105.702 101.364 105.87 101.961 106.375 102.558 106.881 103.131 107.723 103.823 108.144 104.515 108.565 105.374 108.565 106.114 108.902 106.854 109.238 107.761 109.996 108.262 110.165 108.763 110.333 108.692 109.828 109.121 109.912 109.551 109.996 110.195 110.46 110.84 110.67 111.484 110.881 112.248 110.965 112.988 111.175 113.728 111.386 114.587 111.807 115.279 111.933 115.971 112.06 116.687 111.975 117.141 111.933 117.594 111.891 117.797 111.786 118 111.681" stroke="#F8CBAD" stroke-width="2" stroke-miterlimit="8" fill="#F8CBAD" fill-rule="evenodd" fill-opacity="0.470588" transform="matrix(1 0 -0 1.00099 119 294.29)"/><text fill="#FF0000" font-family="Baskerville Old Face,Baskerville Old Face_MSFontService,sans-serif" font-style="oblique" font-weight="400" font-size="21" transform="matrix(1 0 0 1.00099 170.409 358)">X</text><path d="M0 53.7242C0.590615 53.6938 1.18123 53.6633 1.86044 53.6024 2.53964 53.5415 3.15979 53.5009 4.07524 53.3588 4.9907 53.2167 6.49676 52.9731 7.35316 52.7498 8.20955 52.5264 8.7411 52.2422 9.21359 52.0189 9.68608 51.7956 10.1881 51.4099 10.1881 51.4099 10.6901 51.085 11.6056 50.5369 12.2257 50.07 12.8459 49.603 13.4217 49.1158 13.909 48.6083 14.3962 48.1007 14.7949 47.512 15.1493 47.0248 15.5036 46.5375 15.7694 46.0503 16.0352 45.6849 16.301 45.3195 16.5224 45.1977 16.7439 44.8322 16.9654 44.4668 17.1426 43.8984 17.3641 43.4923 17.5856 43.0863 17.7923 42.9036 18.0728 42.3961 18.3534 41.8885 19.0473 40.4471 19.0473 40.4471 19.3722 39.7975 19.7413 39.1885 20.0218 38.4982 20.3024 37.808 20.4353 37.0974 20.7306 36.3057 21.0259 35.5139 21.4246 34.6816 21.7937 33.7477 22.1628 32.8138 22.6058 31.6567 22.9454 30.7025 23.285 29.7483 23.5508 28.8754 23.8313 28.0227 24.1119 27.1701 24.3481 26.4189 24.6286 25.5866 24.9092 24.7542 25.2045 23.9827 25.5146 23.0286 25.8246 22.0744 26.1938 20.836 26.4891 19.8616 26.7844 18.8871 27.0945 17.8314 27.2864 17.1818 27.4784 16.5322 27.4931 16.3494 27.6408 15.9637 27.7884 15.578 28.0099 15.2532 28.1723 14.8674 28.3347 14.4817 28.4824 14.0554 28.6153 13.6494 28.7482 13.2433 28.822 12.8779 28.9697 12.4313 29.1173 11.9847 29.3093 11.4365 29.5012 10.9696 29.6932 10.5027 29.9442 10.0966 30.1214 9.62969 30.2985 9.16276 30.2985 8.81764 30.5643 8.168 30.8301 7.51836 31.3912 6.38148 31.716 5.73184 32.0409 5.08219 32.2771 4.73707 32.5133 4.27014 32.7496 3.80321 32.8973 3.35658 33.1335 2.93025 33.3697 2.50392 33.6355 2.07759 33.9308 1.71217 34.2261 1.34675 34.5657 1.00162 34.9053 0.737706 35.2449 0.473789 35.6288 0.250474 35.9684 0.128666 36.308 0.0068577 36.6181-0.0134436 36.943 0.0068577 37.2678 0.027159 37.5926 0.0474604 37.9175 0.250474 38.2423 0.453487 38.5524 0.879816 38.892 1.22494 39.2316 1.57006 39.6007 1.87458 39.9551 2.32121 40.3095 2.76784 40.6934 3.31598 41.0182 3.90472 41.343 4.49346 41.6088 5.1837 41.9041 5.85365 42.1994 6.52359 42.5243 7.25444 42.79 7.92438 43.0558 8.59433 43.2773 9.32518 43.4988 9.87331 43.7203 10.4214 43.8532 10.5636 44.1189 11.2132 44.3847 11.8628 44.7981 12.9794 45.0934 13.7712 45.3888 14.5629 45.6841 15.3547 45.8908 15.9637 46.0975 16.5728 46.1566 16.7961 46.3337 17.4254 46.5109 18.0548 46.6733 18.8262 46.9539 19.7398 47.2344 20.6533 47.7217 22.0541 48.017 22.9068 48.3123 23.7594 48.5042 24.1858 48.7257 24.8557 48.9472 25.5257 49.1244 26.1956 49.3459 26.9264 49.5674 27.6573 49.7445 28.3678 50.0546 29.2408 50.3647 30.1138 50.8372 31.21 51.2063 32.1642 51.5754 33.1184 51.9298 34.0522 52.2694 34.9658 52.609 35.8793 52.9486 36.9756 53.2439 37.6456 53.5392 38.3155 53.8198 38.5388 54.0413 38.9854 54.2627 39.4321 54.3218 39.7975 54.5728 40.3253 54.8238 40.8532 55.252 41.6246 55.5473 42.1525 55.8426 42.6803 56.0641 42.9239 56.3447 43.4923 56.6252 44.0608 56.891 44.9946 57.2306 45.5631 57.5702 46.1315 57.9836 46.3954 58.3823 46.903 58.7809 47.4105 59.1796 48.1617 59.6226 48.6083 60.0655 49.0549 60.6414 49.2376 61.04 49.5827 61.4387 49.9279 61.675 50.3948 62.0146 50.679 62.3542 50.9632 62.7085 51.0444 63.0777 51.2881 63.4468 51.5317 63.8012 51.9377 64.2294 52.1407 64.6576 52.3437 65.1891 52.3437 65.6468 52.5061 66.1046 52.6685 66.6657 53.034 66.9757 53.1152 67.2858 53.1964 67.2415 52.9528 67.5073 52.9934 67.7731 53.034 68.1717 53.2573 68.5704 53.3588 68.9691 53.4603 69.4415 53.5009 69.8993 53.6024 70.357 53.7039 70.8885 53.9069 71.3167 53.9678 71.7449 54.0287 72.1879 53.9881 72.4684 53.9678 72.749 53.9475 72.8745 53.8968 73 53.846" stroke="#C5E0B4" stroke-width="2" stroke-miterlimit="8" fill="#C5E0B4" fill-rule="evenodd" fill-opacity="0.419608" transform="matrix(1 0 -0 1.00099 70 284.28)"/><text fill="#FF0000" font-family="Baskerville Old Face,Baskerville Old Face_MSFontService,sans-serif" font-style="oblique" font-weight="400" font-size="21" transform="matrix(1 0 0 1.00099 99.8114 318)">Y</text><path d="M0 70.6374C0.66343 70.5974 1.32686 70.5573 2.08981 70.4772 2.85275 70.3972 3.54935 70.3438 4.57767 70.1569 5.60599 69.9701 7.29773 69.6498 8.25971 69.3562 9.22168 69.0625 9.81877 68.6889 10.3495 68.3952 10.8803 68.1016 11.4442 67.5945 11.4442 67.5945 12.0081 67.1674 13.0364 66.4467 13.733 65.8327 14.4296 65.2188 15.0765 64.5782 15.6238 63.9109 16.1711 63.2436 16.6189 62.4695 17.017 61.8289 17.415 61.1883 17.7136 60.5476 18.0121 60.0672 18.3107 59.5867 18.5595 59.4265 18.8083 58.9461 19.057 58.4656 19.2561 57.7182 19.5049 57.1844 19.7536 56.6505 19.9858 56.4103 20.301 55.743 20.6161 55.0757 21.3956 53.1805 21.3956 53.1805 21.7605 52.3263 22.1752 51.5256 22.4903 50.618 22.8054 49.7105 22.9547 48.7762 23.2864 47.7352 23.6181 46.6942 24.0659 45.5998 24.4806 44.372 24.8952 43.1441 25.3928 41.6226 25.7743 40.3681 26.1557 39.1135 26.4543 37.9658 26.7694 36.8447 27.0845 35.7236 27.3499 34.736 27.665 33.6416 27.9802 32.5472 28.3119 31.5329 28.6602 30.2783 29.0085 29.0238 29.4231 27.3955 29.7549 26.1143 30.0866 24.8331 30.4349 23.445 30.6505 22.5909 30.8661 21.7367 30.8827 21.4965 31.0485 20.9893 31.2144 20.4822 31.4632 20.0551 31.6456 19.5479 31.8281 19.0408 31.9939 18.4802 32.1432 17.9464 32.2925 17.4125 32.3754 16.9321 32.5413 16.3448 32.7071 15.7576 32.9227 15.0369 33.1383 14.423 33.354 13.809 33.6359 13.2752 33.8349 12.6613 34.034 12.0473 34.034 11.5936 34.3325 10.7394 34.6311 9.88525 35.2613 8.39046 35.6262 7.5363 35.9911 6.68214 36.2565 6.22837 36.5218 5.61444 36.7872 5.00052 36.9531 4.41328 37.2184 3.85274 37.4838 3.2922 37.7824 2.73165 38.1141 2.25119 38.4458 1.77072 38.8273 1.31695 39.2087 0.969947 39.5902 0.622944 40.0214 0.329327 40.4029 0.169172 40.7844 0.0090166 41.1327-0.0176759 41.4976 0.0090166 41.8625 0.0357091 42.2273 0.0624016 42.5922 0.329327 42.9571 0.596252 43.3054 1.15679 43.6869 1.61057 44.0684 2.06434 44.483 2.46473 44.8811 3.05196 45.2791 3.6392 45.7104 4.3599 46.0752 5.13398 46.4401 5.90806 46.7387 6.81561 47.0704 7.69646 47.4021 8.57731 47.767 9.53824 48.0655 10.4191 48.3641 11.2999 48.6129 12.2609 48.8616 12.9816 49.1104 13.7023 49.2597 13.8891 49.5583 14.7433 49.8568 15.5974 50.3212 17.0655 50.6529 18.1065 50.9846 19.1475 51.3163 20.1886 51.5485 20.9893 51.7807 21.7901 51.8471 22.0837 52.0461 22.9112 52.2451 23.7387 52.4276 24.753 52.7427 25.9541 53.0578 27.1553 53.6052 28.9971 53.9369 30.1182 54.2686 31.2393 54.4842 31.7998 54.733 32.6806 54.9818 33.5615 55.1808 34.4424 55.4296 35.4033 55.6784 36.3642 55.8774 37.2985 56.2257 38.4462 56.574 39.594 57.1048 41.0354 57.5194 42.29 57.9341 43.5445 58.3321 44.7724 58.7136 45.9735 59.0951 47.1747 59.4765 48.6161 59.8083 49.4969 60.14 50.3778 60.4551 50.6714 60.7039 51.2586 60.9527 51.8459 61.019 52.3263 61.301 53.0203 61.5829 53.7143 62.0639 54.7287 62.3956 55.4227 62.7273 56.1167 62.9761 56.437 63.2913 57.1844 63.6064 57.9318 63.9049 59.1596 64.2864 59.907 64.6679 60.6544 65.1323 61.0014 65.5801 61.6687 66.0279 62.336 66.4757 63.3237 66.9733 63.9109 67.4709 64.4981 68.1177 64.7384 68.5655 65.1921 69.0133 65.6459 69.2787 66.2598 69.6602 66.6335 70.0417 67.0072 70.4397 67.114 70.8544 67.4343 71.269 67.7546 71.6671 68.2885 72.1481 68.5554 72.629 68.8223 73.2261 68.8223 73.7403 69.0359 74.2544 69.2494 74.8847 69.7299 75.233 69.8366 75.5813 69.9434 75.5316 69.6231 75.8301 69.6765 76.1286 69.7299 76.5765 70.0235 77.0243 70.1569 77.4721 70.2904 78.0028 70.3438 78.517 70.4772 79.0311 70.6107 79.6282 70.8776 80.1092 70.9577 80.5902 71.0378 81.0878 70.9844 81.4029 70.9577 81.718 70.931 81.859 70.8643 82 70.7976" stroke="#8FAADC" stroke-width="2" stroke-miterlimit="8" fill="#00B0F0" fill-rule="evenodd" fill-opacity="0.419608" transform="matrix(1 0 -0 1.00099 354 339.335)"/><text fill="#FF0000" font-family="Baskerville Old Face,Baskerville Old Face_MSFontService,sans-serif" font-style="oblique" font-weight="400" font-size="21" transform="matrix(1 0 0 1.00099 388.483 382)">Z</text><path d="M0 0 9.00493 0.000104987" stroke="#4472C4" stroke-width="0.666667" stroke-miterlimit="8" fill="none" fill-rule="evenodd" transform="matrix(1 0 -0 1.00099 144.5 391.887)"/><path d="M0 0 0.000104987 425.928" stroke="#4472C4" stroke-width="3" stroke-miterlimit="8" fill="none" fill-rule="evenodd" transform="matrix(1 0 -0 1.00099 643.5 53.5529)"/><path d="M0 0 623.281 0.000104987" stroke="#4472C4" stroke-width="3" stroke-miterlimit="8" fill="none" fill-rule="evenodd" transform="matrix(1 0 -0 1.00099 643.5 432.927)"/><path d="M0 310.407C4.69256 310.231 9.38511 310.055 14.7816 309.703 20.178 309.351 25.1052 309.116 32.3786 308.295 39.6521 307.474 51.6181 306.067 58.4223 304.776 65.2265 303.486 69.4498 301.844 73.2039 300.554 76.9579 299.263 80.9466 297.035 80.9466 297.035 84.9353 295.158 92.2087 291.991 97.1359 289.293 102.063 286.595 106.638 283.78 110.51 280.848 114.381 277.915 117.549 274.514 120.364 271.699 123.18 268.884 125.291 266.068 127.403 263.957 129.515 261.846 131.274 261.142 133.034 259.031 134.794 256.919 136.201 253.635 137.961 251.289 139.721 248.943 141.363 247.887 143.592 244.955 145.821 242.023 151.335 233.695 151.335 233.695 153.916 229.941 156.849 226.422 159.078 222.434 161.307 218.446 162.362 214.341 164.709 209.766 167.055 205.191 170.222 200.382 173.155 194.987 176.088 189.591 179.608 182.905 182.306 177.392 185.004 171.879 187.116 166.835 189.345 161.909 191.574 156.983 193.451 152.643 195.68 147.833 197.909 143.024 200.255 138.567 202.718 133.054 205.182 127.541 208.115 120.386 210.461 114.756 212.807 109.126 215.271 103.026 216.796 99.2726 218.321 95.5191 218.439 94.4634 219.612 92.2348 220.785 90.0062 222.544 88.1294 223.835 85.9008 225.125 83.6721 226.299 81.2089 227.354 78.863 228.41 76.5171 228.997 74.4057 230.17 71.8252 231.343 69.2447 232.868 66.0777 234.393 63.3798 235.918 60.682 237.913 58.3361 239.32 55.6382 240.728 52.9404 240.728 50.9464 242.84 47.1929 244.951 43.4394 249.409 36.8708 251.99 33.1173 254.571 29.3638 256.448 27.3697 258.325 24.6719 260.202 21.9741 261.375 19.3936 263.252 16.9303 265.129 14.4671 267.241 12.0039 269.587 9.89254 271.934 7.7812 274.632 5.78716 277.33 4.2623 280.028 2.73745 283.078 1.44718 285.777 0.743402 288.475 0.0396223 290.939-0.0776744 293.519 0.0396223 296.1 0.156919 298.681 0.274216 301.262 1.44718 303.843 2.62015 306.307 5.08338 309.005 7.07742 311.703 9.07147 314.636 10.8309 317.451 13.4114 320.267 15.992 323.317 19.159 325.898 22.5606 328.479 25.9622 330.591 29.9503 332.937 33.8211 335.283 37.6919 337.864 41.9145 339.976 45.7853 342.087 49.6561 343.847 53.8788 345.607 57.0458 347.366 60.2128 348.422 61.0339 350.534 64.7874 352.646 68.5409 355.93 74.9922 358.277 79.5668 360.623 84.1413 362.969 88.7159 364.612 92.2348 366.254 95.7537 366.723 97.044 368.131 100.68 369.539 104.316 370.829 108.774 373.058 114.052 375.287 119.33 379.159 127.424 381.505 132.35 383.851 137.277 385.376 139.74 387.136 143.611 388.896 147.482 390.303 151.352 392.063 155.575 393.823 159.798 395.231 163.903 397.694 168.947 400.158 173.991 403.912 180.325 406.845 185.838 409.777 191.35 412.593 196.746 415.291 202.024 417.989 207.303 420.688 213.637 423.034 217.508 425.38 221.378 427.609 222.669 429.369 225.249 431.129 227.83 431.598 229.941 433.592 232.991 435.587 236.041 438.989 240.498 441.335 243.548 443.681 246.597 445.441 248.005 447.67 251.289 449.899 254.573 452.01 259.969 454.709 263.253 457.407 266.538 460.692 268.062 463.859 270.995 467.027 273.927 470.194 278.267 473.714 280.848 477.233 283.428 481.808 284.484 484.976 286.478 488.143 288.472 490.02 291.17 492.718 292.812 495.417 294.454 498.232 294.923 501.165 296.331 504.098 297.739 506.913 300.085 510.316 301.257 513.718 302.43 517.941 302.43 521.578 303.369 525.214 304.307 529.672 306.419 532.136 306.888 534.599 307.357 534.248 305.949 536.359 306.184 538.471 306.419 541.638 307.709 544.806 308.295 547.973 308.882 551.727 309.116 555.364 309.703 559.001 310.289 563.224 311.462 566.626 311.814 570.028 312.166 573.548 311.931 575.777 311.814 578.006 311.697 579.003 311.404 580 311.11" stroke="#000000" stroke-width="2" stroke-miterlimit="8" stroke-dasharray="2 2" fill="#F2F2F2" fill-rule="evenodd" fill-opacity="0.34902" transform="matrix(1 0 -0 1.00099 652 110.109)"/><path d="M0 110.433C0.809061 110.371 1.61812 110.308 2.54854 110.183 3.47896 110.058 4.32848 109.974 5.58252 109.682 6.83657 109.39 8.89968 108.889 10.0728 108.43 11.246 107.971 11.9741 107.387 12.6214 106.928 13.2686 106.469 13.9563 105.676 13.9563 105.676 14.644 105.008 15.8981 103.881 16.7476 102.922 17.5971 101.962 18.3859 100.96 19.0534 99.917 19.7209 98.8738 20.267 97.6636 20.7524 96.662 21.2379 95.6605 21.6019 94.659 21.966 93.9078 22.3301 93.1567 22.6335 92.9063 22.9369 92.1551 23.2403 91.404 23.483 90.2355 23.7864 89.4009 24.0898 88.5663 24.373 88.1907 24.7573 87.1475 25.1416 86.1042 26.0922 83.1413 26.0922 83.1413 26.5372 81.806 27.0429 80.554 27.4272 79.1352 27.8115 77.7164 27.9935 76.2558 28.3981 74.6283 28.8026 73.0008 29.3487 71.2899 29.8544 69.3703 30.36 67.4507 30.9668 65.072 31.432 63.1107 31.8972 61.1493 32.2613 59.3549 32.6456 57.6022 33.0299 55.8496 33.3536 54.3055 33.7379 52.5946 34.1222 50.8836 34.5267 49.2979 34.9515 47.3365 35.3762 45.3752 35.8819 42.8296 36.2864 40.8266 36.6909 38.8235 37.1157 36.6535 37.3786 35.3181 37.6416 33.9828 37.6618 33.6072 37.8641 32.8143 38.0663 32.0214 38.3697 31.3537 38.5922 30.5609 38.8147 29.768 39.017 28.8916 39.199 28.057 39.3811 27.2224 39.4822 26.4713 39.6845 25.5532 39.8867 24.6351 40.1497 23.5084 40.4126 22.5486 40.6756 21.5888 41.0194 20.7542 41.2621 19.7944 41.5049 18.8346 41.5049 18.1252 41.8689 16.7898 42.233 15.4544 43.0016 13.1175 43.4466 11.7821 43.8916 10.4467 44.2152 9.73731 44.5388 8.77751 44.8625 7.81771 45.0647 6.89964 45.3883 6.02329 45.712 5.14695 46.076 4.27061 46.4806 3.51946 46.8851 2.76831 47.3503 2.05889 47.8155 1.5164 48.2807 0.973899 48.8066 0.514863 49.2718 0.26448 49.7371 0.0140964 50.1618-0.0276342 50.6068 0.0140964 51.0518 0.0558269 51.4968 0.0975575 51.9417 0.514863 52.3867 0.932168 52.8115 1.80851 53.2767 2.51793 53.7419 3.22735 54.2476 3.85331 54.733 4.77138 55.2184 5.68945 55.7443 6.81617 56.1893 8.02636 56.6343 9.23655 56.9984 10.6554 57.4029 12.0325 57.8074 13.4096 58.2524 14.9119 58.6165 16.289 58.9806 17.6661 59.284 19.1684 59.5874 20.2951 59.8908 21.4219 60.0728 21.714 60.4369 23.0494 60.801 24.3847 61.3673 26.6799 61.7718 28.3074 62.1764 29.9349 62.5809 31.5624 62.8641 32.8143 63.1472 34.0662 63.2282 34.5253 63.4709 35.8189 63.7136 37.1126 63.9361 38.6983 64.3204 40.5762 64.7047 42.4541 65.3722 45.3335 65.7767 47.0862 66.1812 48.8388 66.4442 49.7152 66.7476 51.0923 67.051 52.4694 67.2937 53.8465 67.5971 55.3488 67.9005 56.8511 68.1432 58.3117 68.568 60.1061 68.9927 61.9005 69.64 64.1539 70.1456 66.1153 70.6513 68.0766 71.1367 69.9962 71.6019 71.8741 72.0671 73.752 72.5324 76.0054 72.9369 77.3825 73.3414 78.7596 73.7257 79.2187 74.0291 80.1367 74.3325 81.0548 74.4134 81.806 74.7573 82.891 75.1011 83.976 75.6877 85.5617 76.0922 86.6467 76.4968 87.7317 76.8002 88.2325 77.1845 89.4009 77.5688 90.5694 77.9328 92.489 78.3981 93.6574 78.8633 94.8259 79.4296 95.3684 79.9757 96.4117 80.5218 97.4549 81.068 98.9989 81.6748 99.917 82.2816 100.835 83.0704 101.211 83.6165 101.92 84.1626 102.63 84.4862 103.589 84.9515 104.174 85.4167 104.758 85.9021 104.925 86.4078 105.425 86.9134 105.926 87.3989 106.761 87.9854 107.178 88.572 107.595 89.3002 107.595 89.9272 107.929 90.5542 108.263 91.3228 109.014 91.7476 109.181 92.1723 109.348 92.1116 108.847 92.4757 108.931 92.8398 109.014 93.3859 109.473 93.932 109.682 94.4781 109.891 95.1254 109.974 95.7524 110.183 96.3794 110.391 97.1076 110.809 97.6942 110.934 98.2807 111.059 98.8875 110.976 99.2718 110.934 99.6561 110.892 99.8281 110.788 100 110.684" stroke="#F8CBAD" stroke-width="2" stroke-miterlimit="8" fill="#F8CBAD" fill-rule="evenodd" fill-opacity="0.470588" transform="matrix(1 0 -0 1.00099 730 269.266)"/><text fill="#FF0000" font-family="Baskerville Old Face,Baskerville Old Face_MSFontService,sans-serif" font-style="oblique" font-weight="400" font-size="21" transform="matrix(1 0 0 1.00099 772.01 332)">X</text><path d="M0 53.7242C0.631068 53.6938 1.26214 53.6633 1.98786 53.6024 2.71359 53.5415 3.37621 53.5009 4.35437 53.3588 5.33252 53.2167 6.94175 52.9731 7.8568 52.7498 8.77184 52.5264 9.33981 52.2422 9.84466 52.0189 10.3495 51.7956 10.8859 51.4099 10.8859 51.4099 11.4223 51.085 12.4005 50.5369 13.0631 50.07 13.7257 49.603 14.341 49.1158 14.8616 48.6083 15.3823 48.1007 15.8083 47.512 16.1869 47.0248 16.5655 46.5375 16.8495 46.0503 17.1335 45.6849 17.4175 45.3195 17.6541 45.1977 17.8908 44.8322 18.1274 44.4668 18.3167 43.8984 18.5534 43.4923 18.79 43.0863 19.0109 42.9036 19.3107 42.3961 19.6104 41.8885 20.3519 40.4471 20.3519 40.4471 20.699 39.7975 21.0934 39.1885 21.3932 38.4982 21.693 37.808 21.8349 37.0974 22.1505 36.3057 22.466 35.5139 22.892 34.6816 23.2864 33.7477 23.6808 32.8138 24.1541 31.6567 24.517 30.7025 24.8799 29.7483 25.1638 28.8754 25.4636 28.0227 25.7633 27.1701 26.0158 26.4189 26.3155 25.5866 26.6153 24.7542 26.9308 23.9827 27.2621 23.0286 27.5934 22.0744 27.9879 20.836 28.3034 19.8616 28.6189 18.8871 28.9502 17.8314 29.1553 17.1818 29.3604 16.5322 29.3762 16.3494 29.534 15.9637 29.6917 15.578 29.9284 15.2532 30.1019 14.8674 30.2755 14.4817 30.4333 14.0554 30.5752 13.6494 30.7172 13.2433 30.7961 12.8779 30.9539 12.4313 31.1116 11.9847 31.3167 11.4365 31.5218 10.9696 31.7269 10.5027 31.9951 10.0966 32.1845 9.62969 32.3738 9.16276 32.3738 8.81764 32.6578 8.168 32.9417 7.51836 33.5413 6.38148 33.8883 5.73184 34.2354 5.08219 34.4879 4.73707 34.7403 4.27014 34.9927 3.80321 35.1505 3.35658 35.4029 2.93025 35.6553 2.50392 35.9393 2.07759 36.2549 1.71217 36.5704 1.34675 36.9333 1.00162 37.2961 0.737706 37.659 0.473789 38.0692 0.250474 38.432 0.128666 38.7949 0.0068577 39.1262-0.0134436 39.4733 0.0068577 39.8204 0.027159 40.1675 0.0474604 40.5146 0.250474 40.8616 0.453487 41.193 0.879816 41.5558 1.22494 41.9187 1.57006 42.3131 1.87458 42.6917 2.32121 43.0704 2.76784 43.4806 3.31598 43.8277 3.90472 44.1748 4.49346 44.4587 5.1837 44.7743 5.85365 45.0898 6.52359 45.4369 7.25444 45.7209 7.92438 46.0049 8.59433 46.2415 9.32518 46.4782 9.87331 46.7148 10.4214 46.8568 10.5636 47.1408 11.2132 47.4248 11.8628 47.8665 12.9794 48.182 13.7712 48.4976 14.5629 48.8131 15.3547 49.034 15.9637 49.2549 16.5728 49.318 16.7961 49.5073 17.4254 49.6966 18.0548 49.8701 18.8262 50.1699 19.7398 50.4697 20.6533 50.9903 22.0541 51.3058 22.9068 51.6214 23.7594 51.8265 24.1858 52.0631 24.8557 52.2998 25.5257 52.4891 26.1956 52.7257 26.9264 52.9624 27.6573 53.1517 28.3678 53.483 29.2408 53.8143 30.1138 54.3192 31.21 54.7136 32.1642 55.108 33.1184 55.4867 34.0522 55.8495 34.9658 56.2124 35.8793 56.5752 36.9756 56.8908 37.6456 57.2063 38.3155 57.5061 38.5388 57.7427 38.9854 57.9794 39.4321 58.0425 39.7975 58.3107 40.3253 58.5789 40.8532 59.0364 41.6246 59.3519 42.1525 59.6675 42.6803 59.9041 42.9239 60.2039 43.4923 60.5036 44.0608 60.7876 44.9946 61.1505 45.5631 61.5133 46.1315 61.9551 46.3954 62.3811 46.903 62.807 47.4105 63.233 48.1617 63.7063 48.6083 64.1796 49.0549 64.7949 49.2376 65.2209 49.5827 65.6468 49.9279 65.8993 50.3948 66.2621 50.679 66.625 50.9632 67.0036 51.0444 67.3981 51.2881 67.7925 51.5317 68.1711 51.9377 68.6286 52.1407 69.0862 52.3437 69.6541 52.3437 70.1432 52.5061 70.6323 52.6685 71.2318 53.034 71.5631 53.1152 71.8944 53.1964 71.8471 52.9528 72.1311 52.9934 72.415 53.034 72.841 53.2573 73.267 53.3588 73.693 53.4603 74.1978 53.5009 74.6869 53.6024 75.176 53.7039 75.7439 53.9069 76.2015 53.9678 76.659 54.0287 77.1323 53.9881 77.432 53.9678 77.7318 53.9475 77.8659 53.8968 78 53.846" stroke="#C5E0B4" stroke-width="2" stroke-miterlimit="8" fill="#C5E0B4" fill-rule="evenodd" fill-opacity="0.419608" transform="matrix(1 0 -0 1.00099 1039 270.267)"/><text fill="#FF0000" font-family="Baskerville Old Face,Baskerville Old Face_MSFontService,sans-serif" font-style="oblique" font-weight="400" font-size="21" transform="matrix(1 0 0 1.00099 1070.71 305)">Y</text><path d="M0 72.6272C0.679612 72.586 1.35922 72.5449 2.14078 72.4625 2.92233 72.3802 3.63592 72.3253 4.68932 72.1332 5.74272 71.9411 7.47573 71.6117 8.46116 71.3099 9.4466 71.008 10.0583 70.6237 10.6019 70.3219 11.1456 70.02 11.7233 69.4985 11.7233 69.4985 12.301 69.0594 13.3544 68.3184 14.068 67.6872 14.7816 67.056 15.4442 66.3973 16.0049 65.7112 16.5655 65.0251 17.0243 64.2292 17.432 63.5705 17.8398 62.9119 18.1456 62.2532 18.4515 61.7592 18.7573 61.2652 19.0121 61.1005 19.267 60.6065 19.5218 60.1125 19.7257 59.3441 19.9806 58.7952 20.2354 58.2463 20.4733 57.9993 20.7961 57.3132 21.1189 56.6271 21.9175 54.6785 21.9175 54.6785 22.2913 53.8003 22.716 52.977 23.0388 52.0439 23.3617 51.1108 23.5146 50.1502 23.8544 49.0799 24.1942 48.0095 24.6529 46.8843 25.0777 45.6219 25.5024 44.3594 26.0121 42.7951 26.4029 41.5052 26.7937 40.2153 27.0995 39.0352 27.4223 37.8826 27.7451 36.7299 28.017 35.7145 28.3398 34.5892 28.6626 33.464 29.0024 32.4211 29.3592 31.1312 29.716 29.8413 30.1408 28.1672 30.4806 26.8499 30.8204 25.5326 31.1772 24.1055 31.3981 23.2272 31.6189 22.349 31.6359 22.102 31.8058 21.5806 31.9757 21.0591 32.2306 20.62 32.4175 20.0986 32.6044 19.5771 32.7743 19.0008 32.9272 18.4519 33.0801 17.903 33.165 17.409 33.3349 16.8053 33.5049 16.2015 33.7257 15.4605 33.9466 14.8293 34.1675 14.198 34.4563 13.6491 34.6602 13.0179 34.8641 12.3867 34.8641 11.9201 35.1699 11.0419 35.4757 10.1637 36.1214 8.62682 36.4951 7.74859 36.8689 6.87037 37.1408 6.40382 37.4126 5.7726 37.6845 5.14138 37.8544 4.5376 38.1262 3.96127 38.3981 3.38493 38.7039 2.8086 39.0437 2.3146 39.3835 1.8206 39.7743 1.35405 40.165 0.99727 40.5558 0.640492 40.9976 0.338604 41.3883 0.173937 41.7791 0.00927059 42.1359-0.0181738 42.5097 0.00927059 42.8835 0.036715 43.2573 0.0641594 43.6311 0.338604 44.0049 0.613048 44.3616 1.18938 44.7524 1.65594 45.1432 2.12249 45.568 2.53416 45.9757 3.13793 46.3835 3.74171 46.8252 4.48271 47.199 5.2786 47.5728 6.07449 47.8786 7.0076 48.2184 7.91326 48.5583 8.81893 48.932 9.80693 49.2379 10.7126 49.5437 11.6183 49.7985 12.6063 50.0534 13.3473 50.3083 14.0883 50.4612 14.2804 50.767 15.1586 51.0728 16.0368 51.5485 17.5462 51.8883 18.6166 52.2282 19.6869 52.568 20.7572 52.8058 21.5806 53.0437 22.4039 53.1116 22.7058 53.3155 23.5566 53.5194 24.4074 53.7063 25.4502 54.0291 26.6852 54.3519 27.9202 54.9126 29.8139 55.2524 30.9666 55.5922 32.1192 55.8131 32.6956 56.068 33.6012 56.3228 34.5069 56.5267 35.4126 56.7816 36.4006 57.0364 37.3886 57.2403 38.3491 57.5971 39.5292 57.9539 40.7093 58.4976 42.1913 58.9223 43.4812 59.3471 44.7711 59.7549 46.0336 60.1456 47.2685 60.5364 48.5035 60.9272 49.9855 61.267 50.8912 61.6068 51.7969 61.9296 52.0988 62.1845 52.7025 62.4393 53.3063 62.5073 53.8003 62.7961 54.5139 63.085 55.2274 63.5777 56.2703 63.9175 56.9839 64.2573 57.6974 64.5121 58.0268 64.835 58.7952 65.1578 59.5636 65.4636 60.8261 65.8544 61.5945 66.2451 62.363 66.7209 62.7198 67.1796 63.4059 67.6383 64.092 68.0971 65.1074 68.6068 65.7112 69.1165 66.315 69.7791 66.562 70.2379 67.0285 70.6966 67.4951 70.9684 68.1263 71.3592 68.5105 71.75 68.8947 72.1578 69.0045 72.5825 69.3339 73.0073 69.6632 73.415 70.2121 73.9078 70.4865 74.4005 70.761 75.0121 70.761 75.5388 70.9805 76.0655 71.2001 76.7112 71.6941 77.068 71.8039 77.4248 71.9136 77.3738 71.5843 77.6796 71.6392 77.9854 71.6941 78.4442 71.996 78.9029 72.1332 79.3616 72.2704 79.9053 72.3253 80.432 72.4625 80.9587 72.5997 81.5704 72.8742 82.0631 72.9565 82.5558 73.0388 83.0655 72.984 83.3883 72.9565 83.7112 72.9291 83.8556 72.8605 84 72.7919" stroke="#8FAADC" stroke-width="2" stroke-miterlimit="8" fill="#00B0F0" fill-rule="evenodd" fill-opacity="0.419608" transform="matrix(1 0 -0 1.00099 1093 330.326)"/><text fill="#FF0000" font-family="Baskerville Old Face,Baskerville Old Face_MSFontService,sans-serif" font-style="oblique" font-weight="400" font-size="21" transform="matrix(1 0 0 1.00099 1128.28 374)">Z</text><path d="M0 0 12.575 0.000104987" stroke="#4472C4" stroke-width="0.666667" stroke-miterlimit="8" fill="none" fill-rule="evenodd" transform="matrix(1 0 -0 1.00099 750.5 366.862)"/></g></svg>