<svg width="1270" height="507" xmlns="http://www.w3.org/2000/svg" xmlns:xlink="http://www.w3.org/1999/xlink" overflow="hidden"><defs><clipPath id="clip0"><rect x="0" y="0" width="1270" height="507"/></clipPath></defs><g clip-path="url(#clip0)"><rect x="0" y="0" width="1270" height="507" fill="#FFFFFF" transform="scale(1 1.00099)"/><path d="M0 0 0.000104987 426.741" stroke="#4472C4" stroke-width="3" stroke-miterlimit="8" fill="none" fill-rule="evenodd" transform="matrix(1 0 -0 1.00099 8.50005 53.5529)"/><path d="M0 0 624.472 0.000104987" stroke="#4472C4" stroke-width="3" stroke-miterlimit="8" fill="none" fill-rule="evenodd" transform="matrix(1 0 -0 1.00099 8.50005 433.928)"/><path d="M0 311.401C4.70065 311.225 9.40129 311.048 14.807 310.695 20.2128 310.342 25.1485 310.107 32.4345 309.283 39.7205 308.46 51.7071 307.048 58.5231 305.753 65.339 304.459 69.5696 302.811 73.3301 301.517 77.0906 300.223 81.0862 297.987 81.0862 297.987 85.0817 296.104 92.3677 292.927 97.3034 290.22 102.239 287.514 106.822 284.69 110.7 281.748 114.578 278.806 117.751 275.394 120.572 272.57 123.392 269.745 125.507 266.921 127.623 264.803 129.738 262.685 131.501 261.979 133.263 259.861 135.026 257.743 136.436 254.448 138.199 252.095 139.962 249.741 141.607 248.682 143.84 245.74 146.073 242.798 151.596 234.444 151.596 234.444 154.181 230.678 157.119 227.148 159.352 223.147 161.585 219.146 162.642 215.028 164.993 210.438 167.343 205.849 170.516 201.025 173.454 195.612 176.392 190.199 179.917 183.491 182.62 177.961 185.323 172.43 187.438 167.37 189.671 162.428 191.904 157.486 193.784 153.132 196.017 148.307 198.25 143.483 200.6 139.011 203.068 133.48 205.536 127.95 208.474 120.772 210.824 115.124 213.174 109.475 215.642 103.356 217.17 99.5908 218.698 95.8253 218.815 94.7662 219.99 92.5304 221.165 90.2946 222.928 88.4119 224.221 86.1761 225.514 83.9403 226.689 81.4692 227.746 79.1157 228.804 76.7623 229.392 74.6442 230.567 72.0554 231.742 69.4666 233.27 66.2894 234.797 63.583 236.325 60.8765 238.323 58.523 239.733 55.8166 241.143 53.1101 241.143 51.1097 243.258 47.3441 245.374 43.5786 249.839 36.989 252.425 33.2234 255.01 29.4579 256.89 27.4575 258.771 24.751 260.651 22.0445 261.826 19.4557 263.706 16.9846 265.587 14.5135 267.702 12.0424 270.052 9.92425 272.402 7.80614 275.105 5.80571 277.808 4.27596 280.511 2.74622 283.567 1.45182 286.269 0.745785 288.972 0.0397493 291.44-0.0779234 294.025 0.0397493 296.611 0.157422 299.196 0.275095 301.782 1.45182 304.367 2.62855 306.835 5.09967 309.538 7.10011 312.24 9.10054 315.178 10.8656 317.999 13.4544 320.819 16.0432 323.875 19.2204 326.46 22.6329 329.045 26.0454 331.161 30.0463 333.511 33.9295 335.861 37.8127 338.447 42.0489 340.562 45.9321 342.677 49.8153 344.44 54.0515 346.203 57.2286 347.965 60.4058 349.023 61.2295 351.138 64.995 353.254 68.7606 356.544 75.2326 358.894 79.8218 361.245 84.411 363.595 89.0002 365.24 92.5304 366.885 96.0606 367.356 97.355 368.766 101.003 370.176 104.651 371.469 109.122 373.701 114.418 375.934 119.713 379.812 127.832 382.163 132.774 384.513 137.717 386.041 140.188 387.803 144.071 389.566 147.954 390.976 151.837 392.739 156.074 394.502 160.31 395.912 164.428 398.38 169.488 400.848 174.548 404.608 180.903 407.546 186.433 410.484 191.964 413.304 197.377 416.007 202.672 418.71 207.967 421.413 214.322 423.763 218.205 426.114 222.088 428.346 223.382 430.109 225.971 431.872 228.56 432.342 230.678 434.34 233.738 436.338 236.797 439.746 241.269 442.096 244.328 444.446 247.388 446.209 248.8 448.442 252.095 450.675 255.389 452.79 260.802 455.493 264.097 458.196 267.392 461.486 268.922 464.659 271.863 467.832 274.805 471.005 279.159 474.53 281.748 478.056 284.337 482.639 285.396 485.812 287.396 488.985 289.397 490.865 292.103 493.568 293.751 496.271 295.398 499.091 295.869 502.029 297.281 504.967 298.693 507.787 301.046 511.195 302.223 514.603 303.4 518.834 303.4 522.477 304.341 526.12 305.283 530.586 307.401 533.053 307.871 535.521 308.342 535.169 306.93 537.284 307.165 539.399 307.401 542.572 308.695 545.745 309.283 548.918 309.872 552.679 310.107 556.322 310.695 559.965 311.284 564.195 312.461 567.603 312.814 571.011 313.167 574.537 312.931 576.769 312.814 579.002 312.696 580.001 312.402 581 312.108" stroke="#000000" stroke-width="2" stroke-miterlimit="8" stroke-dasharray="2 2" fill="#F2F2F2" fill-rule="evenodd" fill-opacity="0.34902" transform="matrix(1 0 -0 1.00099 17 110.109)"/><path d="M0 111.428C0.954692 111.365 1.90938 111.302 3.00728 111.175 4.10518 111.049 5.1076 110.965 6.58738 110.67 8.06715 110.375 10.5016 109.87 11.8859 109.407 13.2702 108.944 14.1294 108.354 14.8932 107.891 15.657 107.428 16.4684 106.628 16.4684 106.628 17.2799 105.954 18.7597 104.817 19.7621 103.849 20.7646 102.88 21.6954 101.87 22.483 100.817 23.2706 99.7645 23.915 98.5434 24.4879 97.5329 25.0607 96.5223 25.4903 95.5118 25.9199 94.7538 26.3495 93.9959 26.7075 93.7433 27.0655 92.9854 27.4235 92.2274 27.7099 91.0485 28.068 90.2063 28.426 89.3642 28.7601 88.9852 29.2136 87.9326 29.6671 86.8799 30.7888 83.8904 30.7888 83.8904 31.3139 82.543 31.9106 81.2798 32.3641 79.8481 32.8176 78.4165 33.0324 76.9428 33.5097 75.3006 33.9871 73.6585 34.6315 71.9321 35.2282 69.9952 35.8248 68.0583 36.5409 65.6582 37.0898 63.6792 37.6388 61.7002 38.0684 59.8897 38.5218 58.1212 38.9753 56.3527 39.3572 54.7948 39.8107 53.0684 40.2642 51.342 40.7415 49.742 41.2427 47.763 41.7439 45.784 42.3406 43.2155 42.818 41.1944 43.2953 39.1733 43.7965 36.9837 44.1068 35.6363 44.4171 34.2889 44.4409 33.91 44.6796 33.1099 44.9183 32.3099 45.2763 31.6362 45.5388 30.8362 45.8014 30.0362 46.04 29.1519 46.2549 28.3098 46.4697 27.4677 46.589 26.7097 46.8277 25.7834 47.0663 24.8571 47.3766 23.7202 47.6869 22.7517 47.9972 21.7833 48.4029 20.9412 48.6893 19.9727 48.9757 19.0043 48.9757 18.2884 49.4053 16.941 49.8349 15.5936 50.7419 13.2357 51.267 11.8883 51.7921 10.5408 52.1739 9.82504 52.5558 8.85659 52.9377 7.88814 53.1764 6.9618 53.5583 6.07756 53.9401 5.19332 54.3697 4.30909 54.8471 3.55117 55.3244 2.79325 55.8734 2.07744 56.4223 1.53006 56.9713 0.982673 57.5918 0.519501 58.1408 0.266862 58.6897 0.0142234 59.1909-0.0278831 59.716 0.0142234 60.2411 0.0563299 60.7662 0.0984364 61.2913 0.519501 61.8163 0.940566 62.3176 1.8248 62.8665 2.54061 63.4155 3.25642 64.0121 3.88802 64.585 4.81436 65.1578 5.74071 65.7783 6.87758 66.3034 8.09867 66.8285 9.31976 67.2581 10.7514 67.7354 12.1409 68.2128 13.5304 68.7379 15.0462 69.1675 16.4358 69.5971 17.8253 69.9551 19.3411 70.3131 20.478 70.6711 21.6149 70.8859 21.9096 71.3155 23.257 71.7451 24.6044 72.4134 26.9203 72.8908 28.5624 73.3681 30.2046 73.8455 31.8467 74.1796 33.1099 74.5137 34.3731 74.6092 34.8363 74.8956 36.1416 75.182 37.4469 75.4446 39.0469 75.8981 40.9417 76.3515 42.8365 77.1392 45.7419 77.6165 47.5103 78.0938 49.2788 78.4041 50.1631 78.7621 51.5526 79.1201 52.9421 79.4066 54.3316 79.7646 55.8474 80.1226 57.3633 80.409 58.837 80.9102 60.6476 81.4114 62.4582 82.1752 64.7319 82.7718 66.7109 83.3685 68.6899 83.9413 70.6268 84.4903 72.5216 85.0392 74.4164 85.5882 76.6902 86.0655 78.0797 86.5429 79.4692 86.9964 79.9324 87.3544 80.8587 87.7124 81.785 87.8078 82.543 88.2136 83.6377 88.6193 84.7325 89.3115 86.3325 89.7888 87.4273 90.2662 88.5221 90.6242 89.0274 91.0777 90.2063 91.5311 91.3853 91.9608 93.3222 92.5097 94.5012 93.0587 95.6802 93.7269 96.2276 94.3714 97.2802 95.0158 98.3329 95.6602 99.8908 96.3762 100.817 97.0922 101.744 98.0231 102.122 98.6675 102.838 99.3119 103.554 99.6938 104.523 100.243 105.112 100.792 105.702 101.364 105.87 101.961 106.375 102.558 106.881 103.131 107.723 103.823 108.144 104.515 108.565 105.374 108.565 106.114 108.902 106.854 109.238 107.761 109.996 108.262 110.165 108.763 110.333 108.692 109.828 109.121 109.912 109.551 109.996 110.195 110.46 110.84 110.67 111.484 110.881 112.248 110.965 112.988 111.175 113.728 111.386 114.587 111.807 115.279 111.933 115.971 112.06 116.687 111.975 117.141 111.933 117.594 111.891 117.797 111.786 118 111.681" stroke="#F8CBAD" stroke-width="2" stroke-miterlimit="8" fill="#F8CBAD" fill-rule="evenodd" fill-opacity="0.470588" transform="matrix(1 0 -0 1.00099 245 281.277)"/><text fill="#FF0000" font-family="Baskerville Old Face,Baskerville Old Face_MSFontService,sans-serif" font-style="oblique" font-weight="400" font-size="21" transform="matrix(1 0 0 1.00099 295.99 345)">X</text><path d="M0 70.6374C0.590615 70.5974 1.18123 70.5573 1.86044 70.4772 2.53964 70.3972 3.15979 70.3438 4.07524 70.1569 4.9907 69.9701 6.49676 69.6498 7.35316 69.3562 8.20955 69.0625 8.7411 68.6889 9.21359 68.3952 9.68608 68.1016 10.1881 67.5945 10.1881 67.5945 10.6901 67.1674 11.6056 66.4467 12.2257 65.8327 12.8459 65.2188 13.4217 64.5782 13.909 63.9109 14.3962 63.2436 14.7949 62.4695 15.1493 61.8289 15.5036 61.1883 15.7694 60.5476 16.0352 60.0672 16.301 59.5867 16.5224 59.4265 16.7439 58.9461 16.9654 58.4656 17.1426 57.7182 17.3641 57.1844 17.5856 56.6505 17.7923 56.4103 18.0728 55.743 18.3534 55.0757 19.0473 53.1805 19.0473 53.1805 19.3722 52.3263 19.7413 51.5256 20.0218 50.618 20.3024 49.7105 20.4353 48.7762 20.7306 47.7352 21.0259 46.6942 21.4246 45.5998 21.7937 44.372 22.1628 43.1441 22.6058 41.6226 22.9454 40.3681 23.285 39.1135 23.5508 37.9658 23.8313 36.8447 24.1119 35.7236 24.3481 34.736 24.6286 33.6416 24.9092 32.5472 25.2045 31.5329 25.5146 30.2783 25.8246 29.0238 26.1938 27.3955 26.4891 26.1143 26.7844 24.8331 27.0945 23.445 27.2864 22.5909 27.4784 21.7367 27.4931 21.4965 27.6408 20.9893 27.7884 20.4822 28.0099 20.0551 28.1723 19.5479 28.3347 19.0408 28.4824 18.4802 28.6153 17.9464 28.7482 17.4125 28.822 16.9321 28.9697 16.3448 29.1173 15.7576 29.3093 15.0369 29.5012 14.423 29.6932 13.809 29.9442 13.2752 30.1214 12.6613 30.2985 12.0473 30.2985 11.5936 30.5643 10.7394 30.8301 9.88525 31.3912 8.39046 31.716 7.5363 32.0409 6.68214 32.2771 6.22837 32.5133 5.61444 32.7496 5.00052 32.8973 4.41328 33.1335 3.85274 33.3697 3.2922 33.6355 2.73165 33.9308 2.25119 34.2261 1.77072 34.5657 1.31695 34.9053 0.969947 35.2449 0.622944 35.6288 0.329327 35.9684 0.169172 36.308 0.0090166 36.6181-0.0176759 36.943 0.0090166 37.2678 0.0357091 37.5926 0.0624016 37.9175 0.329327 38.2423 0.596252 38.5524 1.15679 38.892 1.61057 39.2316 2.06434 39.6007 2.46473 39.9551 3.05196 40.3095 3.6392 40.6934 4.3599 41.0182 5.13398 41.343 5.90806 41.6088 6.81561 41.9041 7.69646 42.1994 8.57731 42.5243 9.53824 42.79 10.4191 43.0558 11.2999 43.2773 12.2609 43.4988 12.9816 43.7203 13.7023 43.8532 13.8891 44.1189 14.7433 44.3847 15.5974 44.7981 17.0655 45.0934 18.1065 45.3888 19.1475 45.6841 20.1886 45.8908 20.9893 46.0975 21.7901 46.1566 22.0837 46.3337 22.9112 46.5109 23.7387 46.6733 24.753 46.9539 25.9541 47.2344 27.1553 47.7217 28.9971 48.017 30.1182 48.3123 31.2393 48.5042 31.7998 48.7257 32.6806 48.9472 33.5615 49.1244 34.4424 49.3459 35.4033 49.5674 36.3642 49.7445 37.2985 50.0546 38.4462 50.3647 39.594 50.8372 41.0354 51.2063 42.29 51.5754 43.5445 51.9298 44.7724 52.2694 45.9735 52.609 47.1747 52.9486 48.6161 53.2439 49.4969 53.5392 50.3778 53.8198 50.6714 54.0413 51.2586 54.2627 51.8459 54.3218 52.3263 54.5728 53.0203 54.8238 53.7143 55.252 54.7287 55.5473 55.4227 55.8426 56.1167 56.0641 56.437 56.3447 57.1844 56.6252 57.9318 56.891 59.1596 57.2306 59.907 57.5702 60.6544 57.9836 61.0014 58.3823 61.6687 58.7809 62.336 59.1796 63.3237 59.6226 63.9109 60.0655 64.4981 60.6414 64.7384 61.04 65.1921 61.4387 65.6459 61.675 66.2598 62.0146 66.6335 62.3542 67.0072 62.7085 67.114 63.0777 67.4343 63.4468 67.7546 63.8012 68.2885 64.2294 68.5554 64.6576 68.8223 65.1891 68.8223 65.6468 69.0359 66.1046 69.2494 66.6657 69.7299 66.9757 69.8366 67.2858 69.9434 67.2415 69.6231 67.5073 69.6765 67.7731 69.7299 68.1717 70.0235 68.5704 70.1569 68.9691 70.2904 69.4415 70.3438 69.8993 70.4772 70.357 70.6107 70.8885 70.8776 71.3167 70.9577 71.7449 71.0378 72.1879 70.9844 72.4684 70.9577 72.749 70.931 72.8745 70.8643 73 70.7976" stroke="#C5E0B4" stroke-width="2" stroke-miterlimit="8" fill="#C5E0B4" fill-rule="evenodd" fill-opacity="0.419608" transform="matrix(1 0 -0 1.00099 317 276.272)"/><text fill="#FF0000" font-family="Baskerville Old Face,Baskerville Old Face_MSFontService,sans-serif" font-style="oblique" font-weight="400" font-size="21" transform="matrix(1 0 0 1.00099 346.904 319)">Y</text><path d="M0 70.6374C0.66343 70.5974 1.32686 70.5573 2.08981 70.4772 2.85275 70.3972 3.54935 70.3438 4.57767 70.1569 5.60599 69.9701 7.29773 69.6498 8.25971 69.3562 9.22168 69.0625 9.81877 68.6889 10.3495 68.3952 10.8803 68.1016 11.4442 67.5945 11.4442 67.5945 12.0081 67.1674 13.0364 66.4467 13.733 65.8327 14.4296 65.2188 15.0765 64.5782 15.6238 63.9109 16.1711 63.2436 16.6189 62.4695 17.017 61.8289 17.415 61.1883 17.7136 60.5476 18.0121 60.0672 18.3107 59.5867 18.5595 59.4265 18.8083 58.9461 19.057 58.4656 19.2561 57.7182 19.5049 57.1844 19.7536 56.6505 19.9858 56.4103 20.301 55.743 20.6161 55.0757 21.3956 53.1805 21.3956 53.1805 21.7605 52.3263 22.1752 51.5256 22.4903 50.618 22.8054 49.7105 22.9547 48.7762 23.2864 47.7352 23.6181 46.6942 24.0659 45.5998 24.4806 44.372 24.8952 43.1441 25.3928 41.6226 25.7743 40.3681 26.1557 39.1135 26.4543 37.9658 26.7694 36.8447 27.0845 35.7236 27.3499 34.736 27.665 33.6416 27.9802 32.5472 28.3119 31.5329 28.6602 30.2783 29.0085 29.0238 29.4231 27.3955 29.7549 26.1143 30.0866 24.8331 30.4349 23.445 30.6505 22.5909 30.8661 21.7367 30.8827 21.4965 31.0485 20.9893 31.2144 20.4822 31.4632 20.0551 31.6456 19.5479 31.8281 19.0408 31.9939 18.4802 32.1432 17.9464 32.2925 17.4125 32.3754 16.9321 32.5413 16.3448 32.7071 15.7576 32.9227 15.0369 33.1383 14.423 33.354 13.809 33.6359 13.2752 33.8349 12.6613 34.034 12.0473 34.034 11.5936 34.3325 10.7394 34.6311 9.88525 35.2613 8.39046 35.6262 7.5363 35.9911 6.68214 36.2565 6.22837 36.5218 5.61444 36.7872 5.00052 36.9531 4.41328 37.2184 3.85274 37.4838 3.2922 37.7824 2.73165 38.1141 2.25119 38.4458 1.77072 38.8273 1.31695 39.2087 0.969947 39.5902 0.622944 40.0214 0.329327 40.4029 0.169172 40.7844 0.0090166 41.1327-0.0176759 41.4976 0.0090166 41.8625 0.0357091 42.2273 0.0624016 42.5922 0.329327 42.9571 0.596252 43.3054 1.15679 43.6869 1.61057 44.0684 2.06434 44.483 2.46473 44.8811 3.05196 45.2791 3.6392 45.7104 4.3599 46.0752 5.13398 46.4401 5.90806 46.7387 6.81561 47.0704 7.69646 47.4021 8.57731 47.767 9.53824 48.0655 10.4191 48.3641 11.2999 48.6129 12.2609 48.8616 12.9816 49.1104 13.7023 49.2597 13.8891 49.5583 14.7433 49.8568 15.5974 50.3212 17.0655 50.6529 18.1065 50.9846 19.1475 51.3163 20.1886 51.5485 20.9893 51.7807 21.7901 51.8471 22.0837 52.0461 22.9112 52.2451 23.7387 52.4276 24.753 52.7427 25.9541 53.0578 27.1553 53.6052 28.9971 53.9369 30.1182 54.2686 31.2393 54.4842 31.7998 54.733 32.6806 54.9818 33.5615 55.1808 34.4424 55.4296 35.4033 55.6784 36.3642 55.8774 37.2985 56.2257 38.4462 56.574 39.594 57.1048 41.0354 57.5194 42.29 57.9341 43.5445 58.3321 44.7724 58.7136 45.9735 59.0951 47.1747 59.4765 48.6161 59.8083 49.4969 60.14 50.3778 60.4551 50.6714 60.7039 51.2586 60.9527 51.8459 61.019 52.3263 61.301 53.0203 61.5829 53.7143 62.0639 54.7287 62.3956 55.4227 62.7273 56.1167 62.9761 56.437 63.2913 57.1844 63.6064 57.9318 63.9049 59.1596 64.2864 59.907 64.6679 60.6544 65.1323 61.0014 65.5801 61.6687 66.0279 62.336 66.4757 63.3237 66.9733 63.9109 67.4709 64.4981 68.1177 64.7384 68.5655 65.1921 69.0133 65.6459 69.2787 66.2598 69.6602 66.6335 70.0417 67.0072 70.4397 67.114 70.8544 67.4343 71.269 67.7546 71.6671 68.2885 72.1481 68.5554 72.629 68.8223 73.2261 68.8223 73.7403 69.0359 74.2544 69.2494 74.8847 69.7299 75.233 69.8366 75.5813 69.9434 75.5316 69.6231 75.8301 69.6765 76.1286 69.7299 76.5765 70.0235 77.0243 70.1569 77.4721 70.2904 78.0028 70.3438 78.517 70.4772 79.0311 70.6107 79.6282 70.8776 80.1092 70.9577 80.5902 71.0378 81.0878 70.9844 81.4029 70.9577 81.718 70.931 81.859 70.8643 82 70.7976" stroke="#8FAADC" stroke-width="2" stroke-miterlimit="8" fill="#00B0F0" fill-rule="evenodd" fill-opacity="0.419608" transform="matrix(1 0 -0 1.00099 342 340.336)"/><text fill="#FF0000" font-family="Baskerville Old Face,Baskerville Old Face_MSFontService,sans-serif" font-style="oblique" font-weight="400" font-size="21" transform="matrix(1 0 0 1.00099 376.513 383)">Z</text><path d="M0 0 9.02215 0.000104987" stroke="#4472C4" stroke-width="0.666667" stroke-miterlimit="8" fill="none" fill-rule="evenodd" transform="matrix(1 0 -0 1.00099 269.5 378.874)"/><path d="M0 0 0.000104987 426.741" stroke="#4472C4" stroke-width="3" stroke-miterlimit="8" fill="none" fill-rule="evenodd" transform="matrix(1 0 -0 1.00099 642.5 53.5529)"/><path d="M0 0 624.472 0.000104987" stroke="#4472C4" stroke-width="3" stroke-miterlimit="8" fill="none" fill-rule="evenodd" transform="matrix(1 0 -0 1.00099 642.5 433.928)"/><path d="M0 311.401C4.70065 311.225 9.40129 311.048 14.807 310.695 20.2128 310.342 25.1485 310.107 32.4345 309.283 39.7205 308.46 51.7071 307.048 58.5231 305.753 65.339 304.459 69.5696 302.811 73.3301 301.517 77.0906 300.223 81.0862 297.987 81.0862 297.987 85.0817 296.104 92.3677 292.927 97.3034 290.22 102.239 287.514 106.822 284.69 110.7 281.748 114.578 278.806 117.751 275.394 120.572 272.57 123.392 269.745 125.507 266.921 127.623 264.803 129.738 262.685 131.501 261.979 133.263 259.861 135.026 257.743 136.436 254.448 138.199 252.095 139.962 249.741 141.607 248.682 143.84 245.74 146.073 242.798 151.596 234.444 151.596 234.444 154.181 230.678 157.119 227.148 159.352 223.147 161.585 219.146 162.642 215.028 164.993 210.438 167.343 205.849 170.516 201.025 173.454 195.612 176.392 190.199 179.917 183.491 182.62 177.961 185.323 172.43 187.438 167.37 189.671 162.428 191.904 157.486 193.784 153.132 196.017 148.307 198.25 143.483 200.6 139.011 203.068 133.48 205.536 127.95 208.474 120.772 210.824 115.124 213.174 109.475 215.642 103.356 217.17 99.5908 218.698 95.8253 218.815 94.7662 219.99 92.5304 221.165 90.2946 222.928 88.4119 224.221 86.1761 225.514 83.9403 226.689 81.4692 227.746 79.1157 228.804 76.7623 229.392 74.6442 230.567 72.0554 231.742 69.4666 233.27 66.2894 234.797 63.583 236.325 60.8765 238.323 58.523 239.733 55.8166 241.143 53.1101 241.143 51.1097 243.258 47.3441 245.374 43.5786 249.839 36.989 252.425 33.2234 255.01 29.4579 256.89 27.4575 258.771 24.751 260.651 22.0445 261.826 19.4557 263.706 16.9846 265.587 14.5135 267.702 12.0424 270.052 9.92425 272.402 7.80614 275.105 5.80571 277.808 4.27596 280.511 2.74622 283.567 1.45182 286.269 0.745785 288.972 0.0397493 291.44-0.0779234 294.025 0.0397493 296.611 0.157422 299.196 0.275095 301.782 1.45182 304.367 2.62855 306.835 5.09967 309.538 7.10011 312.24 9.10054 315.178 10.8656 317.999 13.4544 320.819 16.0432 323.875 19.2204 326.46 22.6329 329.045 26.0454 331.161 30.0463 333.511 33.9295 335.861 37.8127 338.447 42.0489 340.562 45.9321 342.677 49.8153 344.44 54.0515 346.203 57.2286 347.965 60.4058 349.023 61.2295 351.138 64.995 353.254 68.7606 356.544 75.2326 358.894 79.8218 361.245 84.411 363.595 89.0002 365.24 92.5304 366.885 96.0606 367.356 97.355 368.766 101.003 370.176 104.651 371.469 109.122 373.701 114.418 375.934 119.713 379.812 127.832 382.163 132.774 384.513 137.717 386.041 140.188 387.803 144.071 389.566 147.954 390.976 151.837 392.739 156.074 394.502 160.31 395.912 164.428 398.38 169.488 400.848 174.548 404.608 180.903 407.546 186.433 410.484 191.964 413.304 197.377 416.007 202.672 418.71 207.967 421.413 214.322 423.763 218.205 426.114 222.088 428.346 223.382 430.109 225.971 431.872 228.56 432.342 230.678 434.34 233.738 436.338 236.797 439.746 241.269 442.096 244.328 444.446 247.388 446.209 248.8 448.442 252.095 450.675 255.389 452.79 260.802 455.493 264.097 458.196 267.392 461.486 268.922 464.659 271.863 467.832 274.805 471.005 279.159 474.53 281.748 478.056 284.337 482.639 285.396 485.812 287.396 488.985 289.397 490.865 292.103 493.568 293.751 496.271 295.398 499.091 295.869 502.029 297.281 504.967 298.693 507.787 301.046 511.195 302.223 514.603 303.4 518.834 303.4 522.477 304.341 526.12 305.283 530.586 307.401 533.053 307.871 535.521 308.342 535.169 306.93 537.284 307.165 539.399 307.401 542.572 308.695 545.745 309.283 548.918 309.872 552.679 310.107 556.322 310.695 559.965 311.284 564.195 312.461 567.603 312.814 571.011 313.167 574.537 312.931 576.769 312.814 579.002 312.696 580.001 312.402 581 312.108" stroke="#000000" stroke-width="2" stroke-miterlimit="8" stroke-dasharray="2 2" fill="#F2F2F2" fill-rule="evenodd" fill-opacity="0.34902" transform="matrix(1 0 -0 1.00099 651 110.109)"/><path d="M0 88.5455C2.93689 88.4953 5.87379 88.4451 9.25121 88.3447 12.6286 88.2443 15.7124 88.1774 20.2646 87.9432 24.8167 87.709 32.3058 87.3075 36.5643 86.9394 40.8228 86.5714 43.466 86.1029 45.8155 85.7349 48.165 85.3668 50.6614 84.7311 50.6614 84.7311 53.1578 84.1957 57.71 83.2923 60.7937 82.5227 63.8774 81.7532 66.7409 80.9501 69.1638 80.1136 71.5868 79.2772 73.5692 78.3068 75.3313 77.5038 77.0934 76.7008 78.415 75.8977 79.7366 75.2955 81.0583 74.6932 82.1596 74.4924 83.2609 73.8902 84.3623 73.2879 85.2433 72.351 86.3447 71.6818 87.446 71.0126 88.4739 70.7115 89.8689 69.875 91.264 69.0385 94.7148 66.6629 94.7148 66.6629 96.3301 65.5922 98.1656 64.5884 99.5607 63.4508 100.956 62.3131 101.617 61.142 103.085 59.8371 104.553 58.5322 106.536 57.1603 108.371 55.6212 110.207 54.0821 112.41 52.1749 114.098 50.6023 115.787 49.0297 117.109 47.5909 118.504 46.1856 119.899 44.7803 121.073 43.5423 122.468 42.1704 123.863 40.7986 125.332 39.5271 126.874 37.9545 128.416 36.3819 130.251 34.3409 131.72 32.7348 133.188 31.1288 134.73 29.3889 135.684 28.3181 136.639 27.2474 136.712 26.9463 137.447 26.3106 138.181 25.6748 139.282 25.1395 140.09 24.5037 140.897 23.868 141.632 23.1654 142.292 22.4962 142.953 21.827 143.32 21.2247 144.055 20.4886 144.789 19.7525 145.743 18.8491 146.698 18.0795 147.652 17.3099 148.9 16.6407 149.782 15.8712 150.663 15.1016 150.663 14.5328 151.984 13.4621 153.306 12.3914 156.096 10.5176 157.711 9.44692 159.326 8.37621 160.501 7.8074 161.676 7.03782 162.851 6.26825 163.585 5.53214 164.76 4.82949 165.934 4.12684 167.256 3.42418 168.725 2.82191 170.193 2.21964 171.882 1.65082 173.57 1.21585 175.259 0.780874 177.168 0.412818 178.857 0.21206 180.546 0.0113025 182.087-0.0221571 183.703 0.0113025 185.318 0.0447621 186.933 0.0782218 188.549 0.412818 190.164 0.747414 191.706 1.45007 193.394 2.01888 195.083 2.58769 196.919 3.08959 198.681 3.8257 200.443 4.56181 202.352 5.46522 203.967 6.43555 205.583 7.40588 206.904 8.54351 208.373 9.64768 209.841 10.7518 211.456 11.9564 212.778 13.0606 214.1 14.1647 215.201 15.3693 216.302 16.2727 217.404 17.1761 218.064 17.4103 219.386 18.481 220.708 19.5517 222.763 21.392 224.232 22.6969 225.7 24.0019 227.169 25.3068 228.197 26.3106 229.225 27.3144 229.518 27.6824 230.399 28.7197 231.28 29.7569 232.088 31.0284 233.483 32.5341 234.878 34.0397 237.301 36.3485 238.769 37.7538 240.238 39.1591 241.192 39.8617 242.294 40.9659 243.395 42.07 244.276 43.1742 245.377 44.3788 246.479 45.5833 247.36 46.7544 248.902 48.1932 250.444 49.6319 252.793 51.4387 254.629 53.0113 256.464 54.584 258.226 56.1231 259.915 57.6288 261.604 59.1345 263.292 60.9413 264.761 62.0455 266.229 63.1496 267.624 63.5177 268.726 64.2538 269.827 64.9899 270.121 65.5922 271.369 66.4621 272.617 67.3321 274.746 68.6035 276.215 69.4735 277.683 70.3434 278.785 70.7449 280.18 71.6818 281.575 72.6187 282.896 74.1578 284.585 75.0947 286.274 76.0316 288.329 76.4665 290.312 77.303 292.294 78.1395 294.277 79.3775 296.479 80.1136 298.682 80.8498 301.546 81.1509 303.528 81.7197 305.51 82.2885 306.685 83.0581 308.374 83.5265 310.062 83.995 311.825 84.1288 313.66 84.5303 315.496 84.9318 317.258 85.601 319.387 85.9356 321.516 86.2702 324.16 86.2702 326.436 86.5379 328.712 86.8056 331.502 87.4078 333.044 87.5417 334.586 87.6755 334.365 87.274 335.687 87.3409 337.008 87.4078 338.991 87.7759 340.973 87.9432 342.956 88.1105 345.305 88.1774 347.581 88.3447 349.857 88.512 352.501 88.8466 354.63 88.947 356.759 89.0474 358.962 88.9805 360.357 88.947 361.752 88.9135 362.376 88.8299 363 88.7462" stroke="#F8CBAD" stroke-width="2" stroke-miterlimit="8" fill="#F8CBAD" fill-rule="evenodd" fill-opacity="0.470588" transform="matrix(1 0 -0 1.00099 695 297.293)"/><text fill="#FF0000" font-family="Baskerville Old Face,Baskerville Old Face_MSFontService,sans-serif" font-style="oblique" font-weight="400" font-size="21" transform="matrix(1 0 0 1.00099 868.717 350)">X</text><path d="M0 53.7242C2.61327 53.6938 5.22654 53.6633 8.2318 53.6024 11.2371 53.5415 13.981 53.5009 18.0316 53.3588 22.0821 53.2167 28.746 52.9731 32.5352 52.7498 36.3244 52.5264 38.6764 52.2422 40.767 52.0189 42.8576 51.7956 45.0789 51.4099 45.0789 51.4099 47.3002 51.085 51.3507 50.5369 54.0947 50.07 56.8386 49.603 59.3865 49.1158 61.5425 48.6083 63.6984 48.1007 65.4624 47.512 67.0303 47.0248 68.5983 46.5375 69.7743 46.0503 70.9502 45.6849 72.1262 45.3195 73.1062 45.1977 74.0862 44.8322 75.0661 44.4668 75.8501 43.8984 76.8301 43.4923 77.8101 43.0863 78.7247 42.9036 79.966 42.3961 81.2073 41.8885 84.2779 40.4471 84.2779 40.4471 85.7152 39.7975 87.3485 39.1885 88.5898 38.4982 89.8311 37.808 90.4191 37.0974 91.7257 36.3057 93.0324 35.5139 94.7963 34.6816 96.4296 33.7477 98.0629 32.8138 100.023 31.6567 101.525 30.7025 103.028 29.7483 104.204 28.8754 105.445 28.0227 106.687 27.1701 107.732 26.4189 108.973 25.5866 110.215 24.7542 111.521 23.9827 112.893 23.0286 114.265 22.0744 115.898 20.836 117.205 19.8616 118.512 18.8871 119.884 17.8314 120.733 17.1818 121.582 16.5322 121.648 16.3494 122.301 15.9637 122.954 15.578 123.934 15.2532 124.653 14.8674 125.372 14.4817 126.025 14.0554 126.613 13.6494 127.201 13.2433 127.528 12.8779 128.181 12.4313 128.834 11.9847 129.683 11.4365 130.533 10.9696 131.382 10.5027 132.493 10.0966 133.277 9.62969 134.061 9.16276 134.061 8.81764 135.237 8.168 136.413 7.51836 138.895 6.38148 140.333 5.73184 141.77 5.08219 142.815 4.73707 143.86 4.27014 144.906 3.80321 145.559 3.35658 146.604 2.93025 147.65 2.50392 148.826 2.07759 150.132 1.71217 151.439 1.34675 152.942 1.00162 154.444 0.737706 155.947 0.473789 157.645 0.250474 159.148 0.128666 160.651 0.0068577 162.023-0.0134436 163.46 0.0068577 164.897 0.027159 166.335 0.0474604 167.772 0.250474 169.209 0.453487 170.581 0.879816 172.084 1.22494 173.586 1.57006 175.22 1.87458 176.788 2.32121 178.356 2.76784 180.054 3.31598 181.492 3.90472 182.929 4.49346 184.105 5.1837 185.411 5.85365 186.718 6.52359 188.155 7.25444 189.331 7.92438 190.507 8.59433 191.487 9.32518 192.467 9.87331 193.447 10.4214 194.035 10.5636 195.211 11.2132 196.387 11.8628 198.216 12.9794 199.523 13.7712 200.83 14.5629 202.136 15.3547 203.051 15.9637 203.966 16.5728 204.227 16.7961 205.011 17.4254 205.795 18.0548 206.514 18.8262 207.755 19.7398 208.996 20.6533 211.152 22.0541 212.459 22.9068 213.765 23.7594 214.615 24.1858 215.595 24.8557 216.575 25.5257 217.359 26.1956 218.339 26.9264 219.319 27.6573 220.103 28.3678 221.475 29.2408 222.846 30.1138 224.937 31.21 226.57 32.1642 228.204 33.1184 229.772 34.0522 231.274 34.9658 232.777 35.8793 234.28 36.9756 235.586 37.6456 236.893 38.3155 238.134 38.5388 239.114 38.9854 240.094 39.4321 240.355 39.7975 241.466 40.3253 242.577 40.8532 244.471 41.6246 245.778 42.1525 247.085 42.6803 248.065 42.9239 249.306 43.4923 250.547 44.0608 251.723 44.9946 253.226 45.5631 254.728 46.1315 256.558 46.3954 258.322 46.903 260.086 47.4105 261.85 48.1617 263.809 48.6083 265.769 49.0549 268.317 49.2376 270.081 49.5827 271.845 49.9279 272.891 50.3948 274.393 50.679 275.896 50.9632 277.464 51.0444 279.097 51.2881 280.73 51.5317 282.298 51.9377 284.193 52.1407 286.088 52.3437 288.44 52.3437 290.465 52.5061 292.49 52.6685 294.973 53.034 296.345 53.1152 297.717 53.1964 297.521 52.9528 298.697 52.9934 299.873 53.034 301.637 53.2573 303.4 53.3588 305.164 53.4603 307.255 53.5009 309.28 53.6024 311.306 53.7039 313.658 53.9069 315.552 53.9678 317.447 54.0287 319.407 53.9881 320.648 53.9678 321.889 53.9475 322.445 53.8968 323 53.846" stroke="#C5E0B4" stroke-width="2" stroke-miterlimit="8" fill="#C5E0B4" fill-rule="evenodd" fill-opacity="0.419608" transform="matrix(1 0 -0 1.00099 819 255.252)"/><text fill="#FF0000" font-family="Baskerville Old Face,Baskerville Old Face_MSFontService,sans-serif" font-style="oblique" font-weight="400" font-size="21" transform="matrix(1 0 0 1.00099 973.576 290)">Y</text><path d="M0 73.6221C2.93689 73.5803 5.87379 73.5386 9.25121 73.4552 12.6286 73.3717 15.7124 73.3161 20.2646 73.1213 24.8167 72.9266 32.3058 72.5927 36.5643 72.2867 40.8228 71.9807 43.466 71.5912 45.8155 71.2852 48.165 70.9791 50.6614 70.4506 50.6614 70.4506 53.1578 70.0054 57.71 69.2543 60.7937 68.6144 63.8774 67.9745 66.7409 67.3069 69.1638 66.6114 71.5868 65.9158 73.5692 65.109 75.3313 64.4414 77.0934 63.7737 78.415 63.106 79.7366 62.6052 81.0583 62.1044 82.1596 61.9375 83.2609 61.4368 84.3623 60.936 85.2433 60.157 86.3447 59.6006 87.446 59.0442 88.4739 58.7938 89.8689 58.0983 91.264 57.4028 94.7148 55.4276 94.7148 55.4276 96.3301 54.5373 98.1656 53.7027 99.5607 52.7568 100.956 51.8109 101.617 50.8372 103.085 49.7522 104.553 48.6672 106.536 47.5266 108.371 46.2468 110.207 44.9671 112.41 43.3813 114.098 42.0738 115.787 40.7662 117.109 39.57 118.504 38.4015 119.899 37.233 121.073 36.2037 122.468 35.0631 123.863 33.9224 125.332 32.8652 126.874 31.5577 128.416 30.2501 130.251 28.5531 131.72 27.2177 133.188 25.8823 134.73 24.4357 135.684 23.5454 136.639 22.6552 136.712 22.4048 137.447 21.8762 138.181 21.3476 139.282 20.9025 140.09 20.3739 140.897 19.8453 141.632 19.2611 142.292 18.7047 142.953 18.1483 143.32 17.6475 144.055 17.0355 144.789 16.4234 145.743 15.6723 146.698 15.0324 147.652 14.3925 148.9 13.8361 149.782 13.1962 150.663 12.5564 150.663 12.0834 151.984 11.1932 153.306 10.3029 156.096 8.74499 157.711 7.85474 159.326 6.96449 160.501 6.49154 161.676 5.85167 162.851 5.21181 163.585 4.59976 164.76 4.01553 165.934 3.4313 167.256 2.84707 168.725 2.34631 170.193 1.84554 171.882 1.3726 173.57 1.01093 175.259 0.649266 177.168 0.343242 178.857 0.17632 180.546 0.00939759 182.087-0.0184228 183.703 0.00939759 185.318 0.0372179 186.933 0.0650383 188.549 0.343242 190.164 0.621446 191.706 1.20567 193.394 1.67862 195.083 2.15157 196.919 2.56887 198.681 3.18092 200.443 3.79297 202.352 4.54412 203.967 5.35091 205.583 6.1577 206.904 7.10359 208.373 8.02166 209.841 8.93973 211.456 9.94127 212.778 10.8593 214.1 11.7774 215.201 12.7789 216.302 13.5301 217.404 14.2812 218.064 14.476 219.386 15.3662 220.708 16.2565 222.763 17.7866 224.232 18.8716 225.7 19.9566 227.169 21.0416 228.197 21.8762 229.225 22.7108 229.518 23.0168 230.399 23.8793 231.28 24.7417 232.088 25.7989 233.483 27.0508 234.878 28.3027 237.301 30.2223 238.769 31.3908 240.238 32.5592 241.192 33.1435 242.294 34.0615 243.395 34.9796 244.276 35.8977 245.377 36.8992 246.479 37.9007 247.36 38.8744 248.902 40.0707 250.444 41.267 252.793 42.7693 254.629 44.0769 256.464 45.3844 258.226 46.6641 259.915 47.9161 261.604 49.168 263.292 50.6703 264.761 51.5884 266.229 52.5064 267.624 52.8124 268.726 53.4245 269.827 54.0365 270.121 54.5373 271.369 55.2606 272.617 55.984 274.746 57.0411 276.215 57.7645 277.683 58.4878 278.785 58.8216 280.18 59.6006 281.575 60.3796 282.896 61.6593 284.585 62.4383 286.274 63.2173 288.329 63.5789 290.312 64.2744 292.294 64.9699 294.277 65.9993 296.479 66.6114 298.682 67.2234 301.546 67.4738 303.528 67.9467 305.51 68.4197 306.685 69.0595 308.374 69.449 310.062 69.8385 311.825 69.9498 313.66 70.2836 315.496 70.6175 317.258 71.1739 319.387 71.4521 321.516 71.7303 324.16 71.7303 326.436 71.9529 328.712 72.1754 331.502 72.6762 333.044 72.7875 334.586 72.8988 334.365 72.5649 335.687 72.6206 337.008 72.6762 338.991 72.9822 340.973 73.1213 342.956 73.2604 345.305 73.3161 347.581 73.4552 349.857 73.5943 352.501 73.8725 354.63 73.9559 356.759 74.0394 358.962 73.9837 360.357 73.9559 361.752 73.9281 362.376 73.8586 363 73.789" stroke="#8FAADC" stroke-width="2" stroke-miterlimit="8" fill="#00B0F0" fill-rule="evenodd" fill-opacity="0.419608" transform="matrix(1 0 -0 1.00099 869 330.326)"/><text fill="#FF0000" font-family="Baskerville Old Face,Baskerville Old Face_MSFontService,sans-serif" font-style="oblique" font-weight="400" font-size="21" transform="matrix(1 0 0 1.00099 1043.79 375)">Z</text><path d="M0 0 96.731 2.92945" stroke="#4472C4" stroke-width="0.666667" stroke-miterlimit="8" fill="none" fill-rule="evenodd" transform="matrix(1 0 0 -1.00099 770.5 375.8)"/></g></svg>