<svg width="1280" height="720" xmlns="http://www.w3.org/2000/svg" xmlns:xlink="http://www.w3.org/1999/xlink" overflow="hidden"><defs><clipPath id="clip0"><rect x="0" y="0" width="1280" height="720"/></clipPath><clipPath id="clip1"><rect x="0" y="-31" width="125" height="303"/></clipPath><clipPath id="clip2"><rect x="0" y="-31" width="125" height="303"/></clipPath><clipPath id="clip3"><rect x="124" y="-81" width="240" height="404"/></clipPath><clipPath id="clip4"><rect x="124" y="-81" width="240" height="404"/></clipPath><clipPath id="clip5"><rect x="124" y="-81" width="240" height="404"/></clipPath><clipPath id="clip6"><rect x="124" y="-81" width="240" height="404"/></clipPath><clipPath id="clip7"><rect x="124" y="-81" width="240" height="404"/></clipPath><clipPath id="clip8"><rect x="363" y="19" width="190" height="203"/></clipPath><clipPath id="clip9"><rect x="552" y="-81" width="268" height="404"/></clipPath><clipPath id="clip10"><rect x="552" y="-81" width="268" height="404"/></clipPath><clipPath id="clip11"><rect x="124" y="78" width="240" height="203"/></clipPath><clipPath id="clip12"><rect x="124" y="78" width="240" height="203"/></clipPath><clipPath id="clip13"><rect x="124" y="155" width="240" height="203"/></clipPath><clipPath id="clip14"><rect x="124" y="155" width="240" height="203"/></clipPath><clipPath id="clip15"><rect x="363" y="155" width="190" height="203"/></clipPath><clipPath id="clip16"><rect x="552" y="4" width="268" height="505"/></clipPath><clipPath id="clip17"><rect x="819" y="4" width="287" height="505"/></clipPath><clipPath id="clip18"><rect x="819" y="4" width="287" height="505"/></clipPath><clipPath id="clip19"><rect x="0" y="139" width="125" height="404"/></clipPath><clipPath id="clip20"><rect x="124" y="139" width="240" height="404"/></clipPath><clipPath id="clip21"><rect x="124" y="139" width="240" height="404"/></clipPath><clipPath id="clip22"><rect x="124" y="139" width="240" height="404"/></clipPath><clipPath id="clip23"><rect x="124" y="139" width="240" height="404"/></clipPath><clipPath id="clip24"><rect x="124" y="139" width="240" height="404"/></clipPath><clipPath id="clip25"><rect x="124" y="161" width="240" height="505"/></clipPath><clipPath id="clip26"><rect x="124" y="161" width="240" height="505"/></clipPath><clipPath id="clip27"><rect x="124" y="161" width="240" height="505"/></clipPath><clipPath id="clip28"><rect x="124" y="161" width="240" height="505"/></clipPath><clipPath id="clip29"><rect x="124" y="161" width="240" height="505"/></clipPath><clipPath id="clip30"><rect x="124" y="161" width="240" height="505"/></clipPath><clipPath id="clip31"><rect x="0" y="341" width="125" height="304"/></clipPath><clipPath id="clip32"><rect x="124" y="341" width="240" height="304"/></clipPath><clipPath id="clip33"><rect x="124" y="341" width="240" height="304"/></clipPath><clipPath id="clip34"><rect x="124" y="341" width="240" height="304"/></clipPath><clipPath id="clip35"><rect x="819" y="392" width="287" height="202"/></clipPath><clipPath id="clip36"><rect x="819" y="392" width="287" height="202"/></clipPath><clipPath id="clip37"><rect x="124" y="327" width="240" height="505"/></clipPath><clipPath id="clip38"><rect x="124" y="327" width="240" height="505"/></clipPath><clipPath id="clip39"><rect x="124" y="327" width="240" height="505"/></clipPath><clipPath id="clip40"><rect x="124" y="327" width="240" height="505"/></clipPath><clipPath id="clip41"><rect x="124" y="327" width="240" height="505"/></clipPath><clipPath id="clip42"><rect x="124" y="327" width="240" height="505"/></clipPath><clipPath id="clip43"><rect x="363" y="479" width="190" height="202"/></clipPath><clipPath id="clip44"><rect x="819" y="327" width="287" height="505"/></clipPath><clipPath id="clip45"><rect x="819" y="327" width="287" height="505"/></clipPath><clipPath id="clip46"><rect x="124" y="573" width="240" height="202"/></clipPath><clipPath id="clip47"><rect x="124" y="573" width="240" height="202"/></clipPath><clipPath id="clip48"><rect x="363" y="321" width="190" height="706"/></clipPath><clipPath id="clip49"><rect x="363" y="321" width="190" height="706"/></clipPath><clipPath id="clip50"><rect x="363" y="321" width="190" height="706"/></clipPath><clipPath id="clip51"><rect x="552" y="472" width="268" height="404"/></clipPath></defs><g clip-path="url(#clip0)"><rect x="0" y="0" width="1280" height="720" fill="#FFFFFF"/><path d="M0-1.33575 124.184-1.33575 124.184 32.7248 0 32.7248Z" fill="#D9E1F2" fill-rule="evenodd"/><path d="M124.184-1.33575 363.743-1.33575 363.743 32.7248 124.184 32.7248Z" fill="#D9E1F2" fill-rule="evenodd"/><path d="M363.743-1.33575 552.22-1.33575 552.22 32.7248 363.743 32.7248Z" fill="#D9E1F2" fill-rule="evenodd"/><path d="M552.22-1.33575 819.963-1.33575 819.963 32.7248 552.22 32.7248Z" fill="#D9E1F2" fill-rule="evenodd"/><path d="M819.963-1.33575 1105.32-1.33575 1105.32 32.7248 819.963 32.7248Z" fill="#D9E1F2" fill-rule="evenodd"/><path d="M1105.32-1.33575 1280-1.33575 1280 32.7248 1105.32 32.7248Z" fill="#D9E1F2" fill-rule="evenodd"/><path d="M363.743 32.7248 552.22 32.7248 552.22 90.944 363.743 90.944Z" fill="#FFF2CC" fill-rule="evenodd"/><path d="M363.743 90.944 552.22 90.944 552.22 149.776 363.743 149.776Z" fill="#FCE4D6" fill-rule="evenodd"/><path d="M363.743 149.776 552.22 149.776 552.22 208.734 363.743 208.734Z" fill="#FFF2CC" fill-rule="evenodd"/><path d="M363.743 208.734 552.22 208.734 552.22 304.104 363.743 304.104Z" fill="#FCE4D6" fill-rule="evenodd"/><path d="M363.743 304.104 552.22 304.104 552.22 376.723 363.743 376.723Z" fill="#FFF2CC" fill-rule="evenodd"/><path d="M363.743 376.723 552.22 376.723 552.22 449.342 363.743 449.342Z" fill="#FFF2CC" fill-rule="evenodd"/><path d="M363.743 449.342 552.22 449.342 552.22 536.042 363.743 536.042Z" fill="#FFF2CC" fill-rule="evenodd"/><path d="M363.743 536.042 552.22 536.042 552.22 623.061 363.743 623.061Z" fill="#FCE4D6" fill-rule="evenodd"/><path d="M363.743 623.061 552.22 623.061 552.22 724.48 363.743 724.48Z" fill="#E2EFDA" fill-rule="evenodd"/><path d="M124.184-1.8357 124.184 724.98" stroke="#BFBFBF" stroke-linejoin="round" stroke-miterlimit="10" stroke-dasharray="1 3" fill="none" fill-rule="evenodd"/><path d="M363.743-1.8357 363.743 724.98" stroke="#BFBFBF" stroke-linejoin="round" stroke-miterlimit="10" stroke-dasharray="1 3" fill="none" fill-rule="evenodd"/><path d="M552.22-1.8357 552.22 724.98" stroke="#BFBFBF" stroke-linejoin="round" stroke-miterlimit="10" stroke-dasharray="1 3" fill="none" fill-rule="evenodd"/><path d="M819.963-1.8357 819.963 724.98" stroke="#BFBFBF" stroke-linejoin="round" stroke-miterlimit="10" stroke-dasharray="1 3" fill="none" fill-rule="evenodd"/><path d="M1105.32-1.8357 1105.32 724.98" stroke="#BFBFBF" stroke-linejoin="round" stroke-miterlimit="10" stroke-dasharray="1 3" fill="none" fill-rule="evenodd"/><path d="M-0.499947 32.7248 1280.5 32.7248" stroke="#BFBFBF" stroke-linejoin="round" stroke-miterlimit="10" stroke-dasharray="1 3" fill="none" fill-rule="evenodd"/><path d="M-0.499947 90.944 1280.5 90.944" stroke="#BFBFBF" stroke-linejoin="round" stroke-miterlimit="10" stroke-dasharray="1 3" fill="none" fill-rule="evenodd"/><path d="M-0.499947 149.776 1280.5 149.776" stroke="#BFBFBF" stroke-linejoin="round" stroke-miterlimit="10" stroke-dasharray="1 3" fill="none" fill-rule="evenodd"/><path d="M-0.499947 208.734 1280.5 208.734" stroke="#BFBFBF" stroke-linejoin="round" stroke-miterlimit="10" stroke-dasharray="1 3" fill="none" fill-rule="evenodd"/><path d="M-0.499947 304.104 1280.5 304.104" stroke="#BFBFBF" stroke-linejoin="round" stroke-miterlimit="10" stroke-dasharray="1 3" fill="none" fill-rule="evenodd"/><path d="M-0.499947 376.723 1280.5 376.723" stroke="#BFBFBF" stroke-linejoin="round" stroke-miterlimit="10" stroke-dasharray="1 3" fill="none" fill-rule="evenodd"/><path d="M-0.499947 449.342 1280.5 449.342" stroke="#BFBFBF" stroke-linejoin="round" stroke-miterlimit="10" stroke-dasharray="1 3" fill="none" fill-rule="evenodd"/><path d="M-0.499947 536.042 1280.5 536.042" stroke="#BFBFBF" stroke-linejoin="round" stroke-miterlimit="10" stroke-dasharray="1 3" fill="none" fill-rule="evenodd"/><path d="M-0.499947 623.061 1280.5 623.061" stroke="#BFBFBF" stroke-linejoin="round" stroke-miterlimit="10" stroke-dasharray="1 3" fill="none" fill-rule="evenodd"/><path d="M0-1.8357 0 724.98" stroke="#BFBFBF" stroke-linejoin="round" stroke-miterlimit="10" stroke-dasharray="1 3" fill="none" fill-rule="evenodd"/><path d="M1280-1.8357 1280 724.98" stroke="#BFBFBF" stroke-linejoin="round" stroke-miterlimit="10" stroke-dasharray="1 3" fill="none" fill-rule="evenodd"/><path d="M-0.499947-1.33575 1280.5-1.33575" stroke="#BFBFBF" stroke-linejoin="round" stroke-miterlimit="10" stroke-dasharray="1 3" fill="none" fill-rule="evenodd"/><path d="M-0.499947 724.48 1280.5 724.48" stroke="#BFBFBF" stroke-linejoin="round" stroke-miterlimit="10" stroke-dasharray="1 3" fill="none" fill-rule="evenodd"/><text font-family="KaiTi,KaiTi_MSFontService,sans-serif" font-weight="700" font-size="13" transform="translate(35.4251 21)">检验方法<tspan x="181.872" y="0">检验思想</tspan><tspan x="395.89" y="0">检验对象</tspan><tspan x="637.333" y="0">优点</tspan><tspan x="913.884" y="0">缺点</tspan><tspan font-family="DengXian,DengXian_MSFontService,sans-serif" font-size="11" x="1143.24" y="-9">R</tspan><tspan font-family="DengXian,DengXian_MSFontService,sans-serif" font-size="11" x="1149.9" y="-9">软件</tspan><tspan font-family="DengXian,DengXian_MSFontService,sans-serif" font-size="11" x="1135.9" y="4">实现方法</tspan><tspan font-family="DengXian,DengXian_MSFontService,sans-serif" font-weight="400" font-size="12" x="12.75" y="44">t</tspan><tspan font-family="DengXian,DengXian_MSFontService,sans-serif" font-weight="400" font-size="12" x="16.5833" y="44">检验</tspan><tspan font-family="DengXian,DengXian_MSFontService,sans-serif" font-weight="400" font-size="12" x="170.622" y="44">独立样本</tspan><tspan font-family="DengXian,DengXian_MSFontService,sans-serif" font-weight="400" font-size="12" x="218.622" y="44">t</tspan><tspan font-family="DengXian,DengXian_MSFontService,sans-serif" font-weight="400" font-size="12" x="222.455" y="44">检验</tspan><tspan font-family="DengXian,DengXian_MSFontService,sans-serif" font-weight="400" font-size="12" x="374.556" y="44">各组间的两两比较</tspan><tspan font-family="DengXian,DengXian_MSFontService,sans-serif" font-weight="400" font-size="12" x="566.667" y="22">容易在计算机上运行或手工计算</tspan><tspan font-family="DengXian,DengXian_MSFontService,sans-serif" font-weight="400" font-size="12" x="626.667" y="37">广泛可用</tspan><tspan font-family="DengXian,DengXian_MSFontService,sans-serif" font-weight="400" font-size="12" x="638.667" y="51">强大</tspan><tspan font-family="DengXian,DengXian_MSFontService,sans-serif" font-weight="400" font-size="12" x="560.667" y="65">样本本量大小不等的分组也能使用</tspan><tspan font-family="DengXian,DengXian_MSFontService,sans-serif" font-weight="400" font-size="12" x="881.55" y="30">检验水准</tspan><tspan font-family="DengXian,DengXian_MSFontService,sans-serif" font-weight="400" font-size="12" x="929.55" y="30">α</tspan><tspan font-family="DengXian,DengXian_MSFontService,sans-serif" font-weight="400" font-size="12" x="936.884" y="30">会膨胀</tspan><tspan font-family="DengXian,DengXian_MSFontService,sans-serif" font-weight="400" font-size="12" x="867.217" y="45">第</tspan><tspan font-family="DengXian,DengXian_MSFontService,sans-serif" font-weight="400" font-size="12" x="879.217" y="45">Ⅰ</tspan><tspan font-family="DengXian,DengXian_MSFontService,sans-serif" font-weight="400" font-size="12" x="891.217" y="45">类错误会成倍增加</tspan><tspan font-family="DengXian,DengXian_MSFontService,sans-serif" font-weight="400" font-size="12" x="801.217" y="59">由于过高估计了对之间的差异，因此结果不可靠</tspan><tspan font-family="DengXian,DengXian_MSFontService,sans-serif" font-style="oblique" font-size="12" x="1139.57" y="44">t.test</tspan><tspan font-family="DengXian,DengXian_MSFontService,sans-serif" font-style="oblique" font-size="12" x="1166.9" y="44">()</tspan><tspan font-family="DengXian,DengXian_MSFontService,sans-serif" font-weight="400" font-size="12" x="-15.3333" y="88">最小显著差异法</tspan><tspan font-family="DengXian,DengXian_MSFontService,sans-serif" font-weight="400" font-size="12" x="-15.8333" y="103">(</tspan><tspan font-family="DengXian,DengXian_MSFontService,sans-serif" font-weight="400" font-size="12" x="-12.3333" y="103">Least significant </tspan></text><g clip-path="url(#clip1)"><text font-family="DengXian,DengXian_MSFontService,sans-serif" font-weight="400" transform="translate(1.42509 138)">difference </text></g><text font-family="DengXian,DengXian_MSFontService,sans-serif" font-weight="400" transform="translate(55.9251 138)">test,LSD</text><g clip-path="url(#clip2)"><text font-family="DengXian,DengXian_MSFontService,sans-serif" font-weight="400" transform="translate(100.592 138)">test)</text></g><g clip-path="url(#clip3)"><text font-family="DengXian,DengXian_MSFontService,sans-serif" font-weight="400" transform="translate(130.05 102)">LSD</text></g><text font-family="DengXian,DengXian_MSFontService,sans-serif" font-weight="400" transform="translate(150.05 102)">法也进行的是两两比较的<tspan x="132" y="0">t</tspan></text><g clip-path="url(#clip4)"><text font-family="DengXian,DengXian_MSFontService,sans-serif" font-weight="400" transform="translate(285.883 102)">检验，不同的</text></g><g clip-path="url(#clip5)"><text font-family="DengXian,DengXian_MSFontService,sans-serif" font-weight="400" transform="translate(125.963 117)">是，在满足方差齐性的前提下，</text></g><text font-family="DengXian,DengXian_MSFontService,sans-serif" font-weight="400" transform="translate(293.963 117)">LSD</text><g clip-path="url(#clip6)"><text font-family="DengXian,DengXian_MSFontService,sans-serif" font-weight="400" transform="translate(313.963 117)">法采用所</text></g><g clip-path="url(#clip7)"><text font-family="DengXian,DengXian_MSFontService,sans-serif" font-weight="400" transform="translate(129.963 131)">有样本的联合方差来估计均数差的标准误，</text></g><text font-family="DengXian,DengXian_MSFontService,sans-serif" font-weight="400" transform="translate(147.963 145)">而不是要比较的两个样本的联合方差</text><g clip-path="url(#clip8)"><text font-family="DengXian,DengXian_MSFontService,sans-serif" font-weight="400" transform="translate(367.982 116)">各组间的两两比较，或者多个均值</text></g><text font-family="DengXian,DengXian_MSFontService,sans-serif" font-weight="400" transform="translate(445.982 131)">比较</text><g clip-path="url(#clip9)"><text font-family="DengXian,DengXian_MSFontService,sans-serif" font-weight="400" transform="translate(556.925 102)">通常用于</text></g><text font-family="DengXian,DengXian_MSFontService,sans-serif" font-weight="400" transform="translate(604.925 102)">1</text><g clip-path="url(#clip10)"><text font-family="DengXian,DengXian_MSFontService,sans-serif" font-weight="400" transform="translate(611.258 102)">对或者几对专业上有特殊意义的样本均</text></g><text font-family="DengXian,DengXian_MSFontService,sans-serif" font-weight="400" transform="translate(656.092 117)">数间的比较<tspan x="-15.6667" y="14">检验水准仍然为</tspan>α<tspan x="0" y="28">灵敏度最高</tspan><tspan x="174.55" y="-1">会因为对比的频数增加使得第一类型错误概率增加</tspan><tspan x="181.884" y="14">为解决该问题，便出现了</tspan>Sidak<tspan x="341.217" y="14">法和</tspan>Bonferroni法<tspan font-weight="700" x="505.649" y="-1">agricolae</tspan><tspan font-weight="700" x="555.482" y="-1">包</tspan><tspan font-style="oblique" font-weight="700" x="472.569" y="14">LSD.test(,p.adj="none")</tspan><tspan x="-607.667" y="58">Sidak</tspan><tspan x="-646.5" y="73">（</tspan>holm <tspan x="-604.833" y="73">sidak</tspan><tspan x="-575.5" y="73">test </tspan>）</text><g clip-path="url(#clip11)"><text font-family="DengXian,DengXian_MSFontService,sans-serif" font-weight="400" transform="translate(126.63 175)">计算公式和</text></g><text font-family="DengXian,DengXian_MSFontService,sans-serif" font-weight="400" transform="translate(186.63 175)">LSD法的相同，但是Sidak法对α</text><g clip-path="url(#clip12)"><text font-family="DengXian,DengXian_MSFontService,sans-serif" font-weight="400" transform="translate(349.297 175)">进</text></g><text font-family="DengXian,DengXian_MSFontService,sans-serif" font-weight="400" transform="translate(219.963 190)">行了调整<tspan x="190.018" y="-8">各组间的两两比较</tspan><tspan x="436.128" y="-15">灵敏度很高</tspan><tspan x="426.128" y="0">较</tspan>LSD保守一些<tspan x="634.679" y="-8">相对其他方法，第一类的错误还是比较高</tspan><tspan font-weight="700" x="941.78" y="-15">agricolae</tspan><tspan font-weight="700" x="991.614" y="-15">包</tspan><tspan font-style="oblique" font-weight="700" x="908.447" y="0">LSD.test(,p.adj="holm")</tspan><tspan x="-184.872" y="70">Bonferroni</tspan></text><g clip-path="url(#clip13)"><text font-family="DengXian,DengXian_MSFontService,sans-serif" font-weight="400" transform="translate(128.297 252)">同样是在</text></g><text font-family="DengXian,DengXian_MSFontService,sans-serif" font-weight="400" transform="translate(176.297 252)">LSD法的基础上对<tspan x="92" y="0">α</tspan></text><g clip-path="url(#clip14)"><text font-family="DengXian,DengXian_MSFontService,sans-serif" font-weight="400" transform="translate(275.63 252)">进行了调整，其</text></g><text font-family="DengXian,DengXian_MSFontService,sans-serif" font-weight="400" transform="translate(162.963 267)">调整方法基于Bonferroni<tspan x="126" y="0">不等式</tspan></text><g clip-path="url(#clip15)"><text font-family="DengXian,DengXian_MSFontService,sans-serif" font-weight="400" transform="translate(367.982 252)">各组间的两两比较，或者多个均值</text></g><text font-family="DengXian,DengXian_MSFontService,sans-serif" font-weight="400" transform="translate(445.982 267)">比较<tspan x="180.11" y="-36">一般认为是最为保守的</tspan><tspan x="132.11" y="-21">当比较的次数不多时，该方法效果比较好</tspan></text><g clip-path="url(#clip16)"><text font-family="DengXian,DengXian_MSFontService,sans-serif" font-weight="400" transform="translate(554.092 260)">可以测试实验组之间以及实验组和对照组之间的差</text></g><text font-family="DengXian,DengXian_MSFontService,sans-serif" font-weight="400" transform="translate(680.092 274)">异<tspan x="-30" y="15">很多实现工具</tspan></text><g clip-path="url(#clip17)"><text font-family="DengXian,DengXian_MSFontService,sans-serif" font-weight="400" transform="translate(820.892 231)">当比较次数较多时（如</text></g><text font-family="DengXian,DengXian_MSFontService,sans-serif" font-weight="400" transform="translate(940.892 231)">k&gt;10)<tspan x="29.8333" y="0">，该方法对</tspan><tspan font-family="MS Gothic,MS Gothic_MSFontService,sans-serif" x="89.8333" y="1">​</tspan><tspan x="93.1667" y="0">[</tspan>公式] </text><g clip-path="url(#clip18)"><text font-family="DengXian,DengXian_MSFontService,sans-serif" font-weight="400" transform="translate(1068.39 231)">的调整</text></g><text font-family="DengXian,DengXian_MSFontService,sans-serif" font-weight="400" transform="translate(876.979 246)">有些矫枉过正，效果不如Sidak<tspan x="159.333" y="0">法</tspan><tspan x="37.6666" y="14">组的大小必须相等</tspan><tspan x="1.66663" y="28">必须由研究人员定义比较的分组</tspan><tspan fill="#FF0000" font-weight="700" x="31.6666" y="43">不能用于探索性研究</tspan><tspan font-weight="700" x="284.762" y="6">agricolae</tspan><tspan font-weight="700" x="334.595" y="6">包</tspan><tspan font-style="oblique" font-weight="700" x="236.348" y="21">LSD.test(,p.adj="Bonferroni")</tspan><tspan x="-830.054" y="76">Tukey</tspan><tspan x="-857.967" y="91">(Turkey Honestly </tspan></text><g clip-path="url(#clip19)"><text font-family="DengXian,DengXian_MSFontService,sans-serif" font-weight="400" transform="translate(7.59171 351)">significant difference, </text></g><text font-family="DengXian,DengXian_MSFontService,sans-serif" font-weight="400" transform="translate(30.0917 365)">Turkey HSD)</text><g clip-path="url(#clip20)"><text font-family="DengXian,DengXian_MSFontService,sans-serif" font-weight="400" transform="translate(130.63 322)">基于学生化极差的成对比较</text></g><text font-family="DengXian,DengXian_MSFontService,sans-serif" font-weight="400" transform="translate(274.63 322)">,<tspan x="2.66666" y="0">思想和</tspan>LSD</text><g clip-path="url(#clip21)"><text font-family="DengXian,DengXian_MSFontService,sans-serif" font-weight="400" transform="translate(333.297 322)">方法</text></g><g clip-path="url(#clip22)"><text font-family="DengXian,DengXian_MSFontService,sans-serif" font-weight="400" transform="translate(130.55 337)">类似，通过计算</text></g><text font-family="DengXian,DengXian_MSFontService,sans-serif" font-weight="400" transform="translate(214.55 337)">HSD</text><g clip-path="url(#clip23)"><text font-family="DengXian,DengXian_MSFontService,sans-serif" font-weight="400" transform="translate(237.383 337)">统计量，如果两组均数</text></g><g clip-path="url(#clip24)"><text font-family="DengXian,DengXian_MSFontService,sans-serif" font-weight="400" transform="translate(129.963 351)">的差异大于该极差，认为差异是显著的，因</text></g><text font-family="DengXian,DengXian_MSFontService,sans-serif" font-weight="400" transform="translate(153.963 365)">此拒绝零假设，认为两组均数不同<tspan x="256.018" y="-21">各组间的两两比较</tspan><tspan x="466.128" y="-50">当比较的组合互相独立时</tspan><tspan fill="#00B050" font-weight="700" x="484.128" y="-35">可用于验证性研究</tspan><tspan x="478.128" y="-21">提供许多统计软件包</tspan><tspan x="480.962" y="-7">降低</tspan>1<tspan x="511.295" y="-7">型错误的风险</tspan><tspan x="460.128" y="8">团体人数不相等时可以使用</tspan><tspan x="748.679" y="-50">不能测试多个均值比较</tspan><tspan x="709.679" y="-35">受</tspan>II型错误的影响，不如其他测试强大<tspan fill="#0070C0" font-weight="700" x="748.679" y="-21">不适合探索性统计研究</tspan><tspan x="717.759" y="-7">不如</tspan>Scheffee或Bonferroni实现广泛<tspan x="742.679" y="8">要求比较的样本容量相等</tspan><tspan font-style="oblique" font-weight="700" x="1000.45" y="-29">TukeyHSD()</tspan><tspan font-weight="700" x="1064.95" y="-29">或</tspan><tspan font-weight="700" x="974.28" y="-14">agricolae</tspan><tspan font-weight="700" x="1024.11" y="-14">包的</tspan><tspan font-style="oblique" font-weight="700" x="1048.11" y="-14">HSD.test()</tspan><tspan x="-131.372" y="37">Newman</tspan>-Keuls<tspan x="-142.705" y="52">(Student</tspan><tspan x="-99.0383" y="52">–</tspan>Newman<tspan x="-47.0383" y="52">–</tspan><tspan x="-107.118" y="66">Keuls</tspan>)</text><g clip-path="url(#clip25)"><text font-family="DengXian,DengXian_MSFontService,sans-serif" font-weight="400" transform="translate(128.05 387)">也称为</text></g><text font-family="DengXian,DengXian_MSFontService,sans-serif" font-weight="400" transform="translate(164.05 387)">q<tspan x="6.83333" y="0">检验</tspan>,<tspan x="33.5" y="0">是对</tspan>Tukey</text><g clip-path="url(#clip26)"><text font-family="DengXian,DengXian_MSFontService,sans-serif" font-weight="400" transform="translate(251.883 387)">法的修正，也用的是</text></g><g clip-path="url(#clip27)"><text font-family="DengXian,DengXian_MSFontService,sans-serif" font-weight="400" transform="translate(126.797 402)">学生化极差统计量。但是与</text></g><text font-family="DengXian,DengXian_MSFontService,sans-serif" font-weight="400" transform="translate(270.797 402)">Tukey</text><g clip-path="url(#clip28)"><text font-family="DengXian,DengXian_MSFontService,sans-serif" font-weight="400" transform="translate(301.13 402)">法所不同的</text></g><g clip-path="url(#clip29)"><text font-family="DengXian,DengXian_MSFontService,sans-serif" font-weight="400" transform="translate(129.963 416)">是，该方法在计算临界值时考虑了两样本均</text></g><g clip-path="url(#clip30)"><text font-family="DengXian,DengXian_MSFontService,sans-serif" font-weight="400" transform="translate(129.963 430)">数排序的步长。因而不同步长的两个样本均</text></g><text font-family="DengXian,DengXian_MSFontService,sans-serif" font-weight="400" transform="translate(168.55 445)">数的比较使用不同的q<tspan x="114.833" y="0">临界值</tspan><tspan x="241.432" y="-29">各组间的两两比较</tspan><tspan x="469.542" y="-50">比图基方法更强大</tspan><tspan x="463.542" y="-35">一些统计软件包提供</tspan><tspan x="466.542" y="-21">降低</tspan>II型错误的风险<tspan x="439.542" y="-7">更可能发现细微但重要的差异</tspan><tspan x="746.092" y="-43">不测试复杂的对比</tspan><tspan x="746.092" y="-28">组的大小必须相等</tspan><tspan x="744.592" y="-14">受到</tspan>I类错误的约束<tspan font-weight="700" x="993.194" y="-36">agricolae</tspan><tspan font-weight="700" x="1043.03" y="-36">包</tspan><tspan font-style="oblique" font-weight="700" x="997.114" y="-21">SNK.test()</tspan><tspan x="-126.372" y="36">Duncan</tspan></text><g clip-path="url(#clip31)"><text font-family="DengXian,DengXian_MSFontService,sans-serif" font-weight="400" transform="translate(1.92504 496)">(Duncan's new multiple </text></g><text font-family="DengXian,DengXian_MSFontService,sans-serif" font-weight="400" transform="translate(15.5917 510)">range test ,DMRT)</text><g clip-path="url(#clip32)"><text font-family="DengXian,DengXian_MSFontService,sans-serif" font-weight="400" transform="translate(119.213 481)">与</text></g><text font-family="DengXian,DengXian_MSFontService,sans-serif" font-weight="400" transform="translate(131.213 481)">SNK</text><g clip-path="url(#clip33)"><text font-family="DengXian,DengXian_MSFontService,sans-serif" font-weight="400" transform="translate(152.713 481)">法相似，区别在于计算最小显著极差时，</text></g><g clip-path="url(#clip34)"><text font-family="DengXian,DengXian_MSFontService,sans-serif" font-weight="400" transform="translate(123.213 496)">不是查</text></g><text font-family="DengXian,DengXian_MSFontService,sans-serif" font-weight="400" transform="translate(159.213 496)">q<tspan x="6.83333" y="0">表，而是查</tspan>SSR<tspan x="86.1667" y="0">表，所得最小显著极</tspan><tspan x="-12.5" y="14">差值随着</tspan>k<tspan x="41.1667" y="14">增大通常比</tspan>SNK检验的小<tspan x="250.768" y="0">各组间的两两比较</tspan><tspan x="404.962" y="0">当比较较大的平均值对时，</tspan>DMRT<tspan x="580.795" y="0">比</tspan>LSD更有用</text><g clip-path="url(#clip35)"><text font-family="DengXian,DengXian_MSFontService,sans-serif" font-weight="400" transform="translate(821.225 489)">与防止</text></g><text font-family="DengXian,DengXian_MSFontService,sans-serif" font-weight="400" transform="translate(857.225 489)">I型错误的LSD相比，DMRT</text><g clip-path="url(#clip36)"><text font-family="DengXian,DengXian_MSFontService,sans-serif" font-weight="400" transform="translate(996.059 489)">倾向于在平均值之间</text></g><text font-family="DengXian,DengXian_MSFontService,sans-serif" font-weight="400" transform="translate(920.645 504)">要求更大的差异<tspan font-weight="700" x="241.098" y="-15">agricolae</tspan><tspan font-weight="700" x="290.932" y="-15">包</tspan><tspan font-style="oblique" font-weight="700" x="236.432" y="0">duncan.test()</tspan><tspan x="-877.387" y="79">Scheffe</tspan></text><g clip-path="url(#clip37)"><text font-family="DengXian,DengXian_MSFontService,sans-serif" font-weight="400" transform="translate(129.13 554)">Scheffe</text></g><g clip-path="url(#clip38)"><text font-family="DengXian,DengXian_MSFontService,sans-serif" font-weight="400" transform="translate(166.797 554)">检验的临界值是方差乘以单因素方差</text></g><g clip-path="url(#clip39)"><text font-family="DengXian,DengXian_MSFontService,sans-serif" font-weight="400" transform="translate(129.963 569)">分析的临界值之间的自由度，检验原理为对</text></g><g clip-path="url(#clip40)"><text font-family="DengXian,DengXian_MSFontService,sans-serif" font-weight="400" transform="translate(126.797 583)">多组均数的线性组合是否为</text></g><text font-family="DengXian,DengXian_MSFontService,sans-serif" font-weight="400" transform="translate(270.797 583)">0</text><g clip-path="url(#clip41)"><text font-family="DengXian,DengXian_MSFontService,sans-serif" font-weight="400" transform="translate(277.13 583)">进行假设检验，</text></g><g clip-path="url(#clip42)"><text font-family="DengXian,DengXian_MSFontService,sans-serif" font-weight="400" transform="translate(129.963 597)">可以同时检验所有可能的对比，不用再两两</text></g><text font-family="DengXian,DengXian_MSFontService,sans-serif" font-weight="400" transform="translate(225.963 612)">去比较</text><g clip-path="url(#clip43)"><text font-family="DengXian,DengXian_MSFontService,sans-serif" font-weight="400" transform="translate(367.982 575)">各组间的两两比较，或者多个均值</text></g><text font-family="DengXian,DengXian_MSFontService,sans-serif" font-weight="400" transform="translate(445.982 590)">比较<tspan fill="#00B050" font-weight="700" x="132.11" y="-43">有利于探索性数据分析和验证性实验数据</tspan><tspan x="186.11" y="-28">相对高效的检验效能</tspan><tspan x="174.11" y="-14">无需事先定义要比较的组</tspan><tspan x="186.11" y="0">提供许多统计软件包</tspan><tspan x="189.11" y="15">降低</tspan>II型错误的风险<tspan x="198.11" y="29">不需要两两比较</tspan><tspan x="386.997" y="-36">较其他多重比较分析，它的检验水准</tspan><tspan x="578.997" y="-36">α</tspan><tspan x="586.331" y="-36">升高更明显</tspan></text><g clip-path="url(#clip44)"><text font-family="DengXian,DengXian_MSFontService,sans-serif" font-weight="400" transform="translate(822.392 569)">与其他</text></g><text font-family="DengXian,DengXian_MSFontService,sans-serif" font-weight="400" transform="translate(858.392 569)">MCA统计数据相比，此类数据更容易遭受<tspan x="217.5" y="0">I</tspan></text><g clip-path="url(#clip45)"><text font-family="DengXian,DengXian_MSFontService,sans-serif" font-weight="400" transform="translate(1078.89 569)">类错</text></g><text font-family="DengXian,DengXian_MSFontService,sans-serif" font-weight="400" transform="translate(938.645 583)">误的影响<tspan x="-24" y="14">组的大小必须相等</tspan><tspan font-weight="700" x="223.098" y="-8">agricolae</tspan><tspan font-weight="700" x="272.932" y="-8">包</tspan><tspan font-style="oblique" font-weight="700" x="219.098" y="7">sche</tspan><tspan font-style="oblique" font-weight="700" x="243.265" y="7">ff</tspan><tspan font-style="oblique" font-weight="700" x="251.598" y="7">e</tspan><tspan font-style="oblique" font-weight="700" x="257.932" y="7">.test()</tspan><tspan x="-897.637" y="94">Dunnett</tspan></text><g clip-path="url(#clip46)"><text font-family="DengXian,DengXian_MSFontService,sans-serif" font-weight="400" transform="translate(127.963 670)">计算与</text></g><text font-family="DengXian,DengXian_MSFontService,sans-serif" font-weight="400" transform="translate(163.963 670)">LSD法相同，但是<tspan x="92" y="0">LSD</tspan></text><g clip-path="url(#clip47)"><text font-family="DengXian,DengXian_MSFontService,sans-serif" font-weight="400" transform="translate(275.963 670)">法临界值表基于</text></g><text font-family="DengXian,DengXian_MSFontService,sans-serif" font-weight="400" transform="translate(205.963 685)">Dunnett<tspan x="42.1667" y="0">-</tspan>t<tspan x="52" y="0">分布</tspan></text><g clip-path="url(#clip48)"><text font-family="DengXian,DengXian_MSFontService,sans-serif" font-weight="400" transform="translate(367.982 634)">通常用于多个实验组和一个对照组</text></g><text font-family="DengXian,DengXian_MSFontService,sans-serif" font-weight="400" transform="translate(427.982 649)">均数的比较</text><g clip-path="url(#clip49)"><text font-family="DengXian,DengXian_MSFontService,sans-serif" font-weight="400" transform="translate(367.982 663)">对照组与每个实验组或实验组组合</text></g><text font-family="DengXian,DengXian_MSFontService,sans-serif" font-weight="400" transform="translate(439.982 677)">的对比</text><g clip-path="url(#clip50)"><text font-family="DengXian,DengXian_MSFontService,sans-serif" font-weight="400" transform="translate(367.982 692)">当方差分析拒绝均值均等假设时使</text></g><text font-family="DengXian,DengXian_MSFontService,sans-serif" font-weight="400" transform="translate(451.982 706)">用<tspan x="210.11" y="-51">功能强大</tspan><tspan x="120.11" y="-36">有益于发现实验组和对照组之间的微小差异</tspan></text><g clip-path="url(#clip51)"><text font-family="DengXian,DengXian_MSFontService,sans-serif" font-weight="400" transform="translate(554.092 684)">直接对照对照组进行实验组的具体测试，从而更清</text></g><text font-family="DengXian,DengXian_MSFontService,sans-serif" font-weight="400" transform="translate(638.092 698)">楚地说明这些差异<tspan x="258.55" y="-36">没有得到广泛支持和使用</tspan><tspan x="258.55" y="-21">不测试实验组之间的差异</tspan><tspan fill="#0070C0" font-weight="700" x="264.55" y="-7">不适合探索性统计研究</tspan><tspan font-weight="700" x="520.985" y="-28">DescTools</tspan><tspan font-weight="700" x="576.152" y="-28">包</tspan><tspan font-style="oblique" font-weight="700" x="516.985" y="-13">DunnettTest</tspan><tspan font-style="oblique" font-weight="700" x="584.152" y="-13">()</tspan></text></g></svg>