<svg width="1280" height="720" xmlns="http://www.w3.org/2000/svg" xmlns:xlink="http://www.w3.org/1999/xlink" overflow="hidden"><defs><clipPath id="clip0"><rect x="0" y="0" width="1280" height="720"/></clipPath><clipPath id="clip1"><rect x="808" y="-125" width="215" height="359"/></clipPath><clipPath id="clip2"><rect x="184" y="-11" width="107" height="248"/></clipPath><clipPath id="clip3"><rect x="290" y="-84" width="149" height="393"/></clipPath><clipPath id="clip4"><rect x="290" y="-84" width="149" height="393"/></clipPath><clipPath id="clip5"><rect x="290" y="-84" width="149" height="393"/></clipPath><clipPath id="clip6"><rect x="290" y="-84" width="149" height="393"/></clipPath><clipPath id="clip7"><rect x="290" y="-84" width="149" height="393"/></clipPath><clipPath id="clip8"><rect x="290" y="-84" width="149" height="393"/></clipPath><clipPath id="clip9"><rect x="438" y="23" width="156" height="180"/></clipPath><clipPath id="clip10"><rect x="593" y="-67" width="216" height="360"/></clipPath><clipPath id="clip11"><rect x="593" y="-67" width="216" height="360"/></clipPath><clipPath id="clip12"><rect x="808" y="-16" width="215" height="258"/></clipPath><clipPath id="clip13"><rect x="290" y="138" width="149" height="236"/></clipPath><clipPath id="clip14"><rect x="290" y="138" width="149" height="236"/></clipPath><clipPath id="clip15"><rect x="290" y="138" width="149" height="236"/></clipPath><clipPath id="clip16"><rect x="290" y="138" width="149" height="236"/></clipPath><clipPath id="clip17"><rect x="438" y="166" width="156" height="180"/></clipPath><clipPath id="clip18"><rect x="593" y="31" width="216" height="449"/></clipPath><clipPath id="clip19"><rect x="808" y="31" width="215" height="449"/></clipPath><clipPath id="clip20"><rect x="808" y="31" width="215" height="449"/></clipPath><clipPath id="clip21"><rect x="184" y="160" width="107" height="359"/></clipPath><clipPath id="clip22"><rect x="290" y="143" width="149" height="393"/></clipPath><clipPath id="clip23"><rect x="290" y="143" width="149" height="393"/></clipPath><clipPath id="clip24"><rect x="290" y="143" width="149" height="393"/></clipPath><clipPath id="clip25"><rect x="290" y="143" width="149" height="393"/></clipPath><clipPath id="clip26"><rect x="290" y="143" width="149" height="393"/></clipPath><clipPath id="clip27"><rect x="290" y="175" width="149" height="472"/></clipPath><clipPath id="clip28"><rect x="290" y="175" width="149" height="472"/></clipPath><clipPath id="clip29"><rect x="290" y="175" width="149" height="472"/></clipPath><clipPath id="clip30"><rect x="290" y="175" width="149" height="472"/></clipPath><clipPath id="clip31"><rect x="290" y="175" width="149" height="472"/></clipPath><clipPath id="clip32"><rect x="290" y="175" width="149" height="472"/></clipPath><clipPath id="clip33"><rect x="290" y="175" width="149" height="472"/></clipPath><clipPath id="clip34"><rect x="290" y="333" width="149" height="315"/></clipPath><clipPath id="clip35"><rect x="290" y="333" width="149" height="315"/></clipPath><clipPath id="clip36"><rect x="290" y="333" width="149" height="315"/></clipPath><clipPath id="clip37"><rect x="290" y="333" width="149" height="315"/></clipPath><clipPath id="clip38"><rect x="290" y="333" width="149" height="315"/></clipPath><clipPath id="clip39"><rect x="290" y="333" width="149" height="315"/></clipPath><clipPath id="clip40"><rect x="593" y="400" width="216" height="180"/></clipPath><clipPath id="clip41"><rect x="593" y="400" width="216" height="180"/></clipPath><clipPath id="clip42"><rect x="808" y="400" width="215" height="180"/></clipPath><clipPath id="clip43"><rect x="808" y="400" width="215" height="180"/></clipPath><clipPath id="clip44"><rect x="290" y="341" width="149" height="472"/></clipPath><clipPath id="clip45"><rect x="290" y="341" width="149" height="472"/></clipPath><clipPath id="clip46"><rect x="290" y="341" width="149" height="472"/></clipPath><clipPath id="clip47"><rect x="290" y="341" width="149" height="472"/></clipPath><clipPath id="clip48"><rect x="290" y="341" width="149" height="472"/></clipPath><clipPath id="clip49"><rect x="290" y="341" width="149" height="472"/></clipPath><clipPath id="clip50"><rect x="290" y="341" width="149" height="472"/></clipPath><clipPath id="clip51"><rect x="438" y="487" width="156" height="180"/></clipPath><clipPath id="clip52"><rect x="808" y="308" width="215" height="538"/></clipPath><clipPath id="clip53"><rect x="808" y="308" width="215" height="538"/></clipPath><clipPath id="clip54"><rect x="808" y="308" width="215" height="538"/></clipPath><clipPath id="clip55"><rect x="808" y="308" width="215" height="538"/></clipPath><clipPath id="clip56"><rect x="290" y="592" width="149" height="157"/></clipPath><clipPath id="clip57"><rect x="290" y="592" width="149" height="157"/></clipPath><clipPath id="clip58"><rect x="438" y="356" width="156" height="629"/></clipPath><clipPath id="clip59"><rect x="438" y="356" width="156" height="629"/></clipPath><clipPath id="clip60"><rect x="438" y="356" width="156" height="629"/></clipPath><clipPath id="clip61"><rect x="593" y="491" width="216" height="359"/></clipPath><clipPath id="clip62"><rect x="593" y="491" width="216" height="359"/></clipPath></defs><g clip-path="url(#clip0)"><rect x="0" y="0" width="1280" height="720" fill="#FFFFFF"/><path d="M438.829 25.5956 593.859 25.5956 593.859 83.0294 438.829 83.0294Z" fill="#FFF2CC" fill-rule="evenodd"/><path d="M438.829 83.0294 593.859 83.0294 593.859 142.336 438.829 142.336Z" fill="#FCE4D6" fill-rule="evenodd"/><path d="M438.829 142.336 593.859 142.336 593.859 207.261 438.829 207.261Z" fill="#FFF2CC" fill-rule="evenodd"/><path d="M438.829 207.261 593.859 207.261 593.859 303.401 438.829 303.401Z" fill="#FCE4D6" fill-rule="evenodd"/><path d="M438.829 303.401 593.859 303.401 593.859 375.193 438.829 375.193Z" fill="#FFF2CC" fill-rule="evenodd"/><path d="M438.829 375.193 593.859 375.193 593.859 446.361 438.829 446.361Z" fill="#FFF2CC" fill-rule="evenodd"/><path d="M438.829 446.361 593.859 446.361 593.859 533.761 438.829 533.761Z" fill="#FFF2CC" fill-rule="evenodd"/><path d="M438.829 533.761 593.859 533.761 593.859 619.912 438.829 619.912Z" fill="#FCE4D6" fill-rule="evenodd"/><path d="M438.829 619.912 593.859 619.912 593.859 720.421 438.829 720.421Z" fill="#E2EFDA" fill-rule="evenodd"/><path d="M290.041-0.499947 290.041 720.921" stroke="#D9D9D9" stroke-linejoin="round" stroke-miterlimit="10" stroke-dasharray="1 1" fill="none" fill-rule="evenodd"/><path d="M438.829-0.499947 438.829 720.921" stroke="#D9D9D9" stroke-linejoin="round" stroke-miterlimit="10" stroke-dasharray="1 1" fill="none" fill-rule="evenodd"/><path d="M593.859-0.499947 593.859 720.921" stroke="#D9D9D9" stroke-linejoin="round" stroke-miterlimit="10" stroke-dasharray="1 1" fill="none" fill-rule="evenodd"/><path d="M808.195-0.499947 808.195 720.921" stroke="#D9D9D9" stroke-linejoin="round" stroke-miterlimit="10" stroke-dasharray="1 1" fill="none" fill-rule="evenodd"/><path d="M184.454 25.5956 1023.03 25.5956" stroke="#D9D9D9" stroke-linejoin="round" stroke-miterlimit="10" stroke-dasharray="1 1" fill="none" fill-rule="evenodd"/><path d="M184.454 83.0294 1023.03 83.0294" stroke="#D9D9D9" stroke-linejoin="round" stroke-miterlimit="10" stroke-dasharray="1 1" fill="none" fill-rule="evenodd"/><path d="M184.454 142.336 1023.03 142.336" stroke="#D9D9D9" stroke-linejoin="round" stroke-miterlimit="10" stroke-dasharray="1 1" fill="none" fill-rule="evenodd"/><path d="M184.454 207.261 1023.03 207.261" stroke="#D9D9D9" stroke-linejoin="round" stroke-miterlimit="10" stroke-dasharray="1 1" fill="none" fill-rule="evenodd"/><path d="M184.454 303.401 1023.03 303.401" stroke="#D9D9D9" stroke-linejoin="round" stroke-miterlimit="10" stroke-dasharray="1 1" fill="none" fill-rule="evenodd"/><path d="M184.454 375.193 1023.03 375.193" stroke="#D9D9D9" stroke-linejoin="round" stroke-miterlimit="10" stroke-dasharray="1 1" fill="none" fill-rule="evenodd"/><path d="M184.454 446.361 1023.03 446.361" stroke="#D9D9D9" stroke-linejoin="round" stroke-miterlimit="10" stroke-dasharray="1 1" fill="none" fill-rule="evenodd"/><path d="M184.454 533.761 1023.03 533.761" stroke="#D9D9D9" stroke-linejoin="round" stroke-miterlimit="10" stroke-dasharray="1 1" fill="none" fill-rule="evenodd"/><path d="M184.454 619.912 1023.03 619.912" stroke="#D9D9D9" stroke-linejoin="round" stroke-miterlimit="10" stroke-dasharray="1 1" fill="none" fill-rule="evenodd"/><path d="M184.954-0.499947 184.954 720.921" stroke="#D9D9D9" stroke-linejoin="round" stroke-miterlimit="10" stroke-dasharray="1 1" fill="none" fill-rule="evenodd"/><path d="M1022.53-0.499947 1022.53 720.921" stroke="#D9D9D9" stroke-linejoin="round" stroke-miterlimit="10" stroke-dasharray="1 1" fill="none" fill-rule="evenodd"/><path d="M184.454 0 1023.03 0" stroke="#D9D9D9" stroke-linejoin="round" stroke-miterlimit="10" stroke-dasharray="1 1" fill="none" fill-rule="evenodd"/><path d="M184.454 720.421 1023.03 720.421" stroke="#D9D9D9" stroke-linejoin="round" stroke-miterlimit="10" stroke-dasharray="1 1" fill="none" fill-rule="evenodd"/><text font-family="KaiTi,KaiTi_MSFontService,sans-serif" font-weight="700" font-size="13" transform="translate(210.831 18)">检验方法<tspan x="126.937" y="0">检验思想</tspan><tspan x="278.846" y="0">检验对象</tspan><tspan x="476.863" y="0">优点</tspan><tspan x="691.199" y="0">缺点</tspan><tspan font-family="DengXian,DengXian_MSFontService,sans-serif" font-weight="400" font-size="11" x="14.3333" y="39">t</tspan><tspan font-family="DengXian,DengXian_MSFontService,sans-serif" font-weight="400" font-size="11" x="17.6667" y="39">检验</tspan><tspan font-family="DengXian,DengXian_MSFontService,sans-serif" font-weight="400" font-size="9" x="124.104" y="40">独立样本</tspan><tspan font-family="DengXian,DengXian_MSFontService,sans-serif" font-weight="400" font-size="9" x="161.437" y="40">t</tspan><tspan font-family="DengXian,DengXian_MSFontService,sans-serif" font-weight="400" font-size="9" x="164.437" y="40">检验</tspan><tspan font-family="DengXian,DengXian_MSFontService,sans-serif" font-weight="400" font-size="11" x="262.846" y="39">各组间的两两比较</tspan><tspan font-family="DengXian,DengXian_MSFontService,sans-serif" font-weight="400" font-size="11" x="415.529" y="20">容易在计算机上运行或手工计算</tspan><tspan font-family="DengXian,DengXian_MSFontService,sans-serif" font-weight="400" font-size="11" x="468.863" y="33">广泛可用</tspan><tspan font-family="DengXian,DengXian_MSFontService,sans-serif" font-weight="400" font-size="11" x="479.529" y="46">强大</tspan><tspan font-family="DengXian,DengXian_MSFontService,sans-serif" font-weight="400" font-size="11" x="410.196" y="59">样本本量大小不等的分组也能使用</tspan><tspan font-family="DengXian,DengXian_MSFontService,sans-serif" font-weight="400" font-size="11" x="663.946" y="20">检验水准</tspan><tspan font-family="DengXian,DengXian_MSFontService,sans-serif" font-weight="400" font-size="11" x="706.613" y="20">α</tspan><tspan font-family="DengXian,DengXian_MSFontService,sans-serif" font-weight="400" font-size="11" x="713.113" y="20">会膨胀</tspan><tspan font-family="DengXian,DengXian_MSFontService,sans-serif" font-weight="400" font-size="11" x="651.199" y="33">第</tspan><tspan font-family="DengXian,DengXian_MSFontService,sans-serif" font-weight="400" font-size="11" x="661.866" y="33">Ⅰ</tspan><tspan font-family="DengXian,DengXian_MSFontService,sans-serif" font-weight="400" font-size="11" x="672.533" y="33">类错误会成倍增加</tspan></text><g clip-path="url(#clip1)"><text font-family="DengXian,DengXian_MSFontService,sans-serif" font-weight="400" font-size="11" transform="translate(814.03 64)">由于过高估计了对之间的差异，因此结果不</text></g><text font-family="DengXian,DengXian_MSFontService,sans-serif" font-weight="400" font-size="11" transform="translate(904.697 77)">可靠<tspan x="-704.536" y="27">最小显著差异法</tspan><tspan font-size="9" x="-700.369" y="39">(</tspan><tspan font-size="9" x="-697.703" y="39">Least significant </tspan></text><g clip-path="url(#clip2)"><text font-family="DengXian,DengXian_MSFontService,sans-serif" font-weight="400" font-size="9" transform="translate(190.248 128)">difference test,LSD test)</text></g><g clip-path="url(#clip3)"><text font-family="DengXian,DengXian_MSFontService,sans-serif" font-weight="400" font-size="9" transform="translate(289.768 94)">LSD</text></g><text font-family="DengXian,DengXian_MSFontService,sans-serif" font-weight="400" font-size="9" transform="translate(305.435 94)">法也进行的是两两比较的<tspan x="102.667" y="0">t</tspan></text><g clip-path="url(#clip4)"><text font-family="DengXian,DengXian_MSFontService,sans-serif" font-weight="400" font-size="9" transform="translate(411.102 94)">检验，</text></g><g clip-path="url(#clip5)"><text font-family="DengXian,DengXian_MSFontService,sans-serif" font-weight="400" font-size="9" transform="translate(293.515 105)">不同的是，在满足方差齐性的前提</text></g><g clip-path="url(#clip6)"><text font-family="DengXian,DengXian_MSFontService,sans-serif" font-weight="400" font-size="9" transform="translate(290.348 116)">下，</text></g><text font-family="DengXian,DengXian_MSFontService,sans-serif" font-weight="400" font-size="9" transform="translate(309.015 116)">LSD</text><g clip-path="url(#clip7)"><text font-family="DengXian,DengXian_MSFontService,sans-serif" font-weight="400" font-size="9" transform="translate(324.682 116)">法采用所有样本的联合方差</text></g><g clip-path="url(#clip8)"><text font-family="DengXian,DengXian_MSFontService,sans-serif" font-weight="400" font-size="9" transform="translate(293.515 127)">来估计均数差的标准误，而不是要</text></g><text font-family="DengXian,DengXian_MSFontService,sans-serif" font-weight="400" font-size="9" transform="translate(307.515 138)">比较的两个样本的联合方差</text><g clip-path="url(#clip9)"><text font-family="DengXian,DengXian_MSFontService,sans-serif" font-weight="400" font-size="11" transform="translate(441.677 109)">各组间的两两比较，或者多个均</text></g><text font-family="DengXian,DengXian_MSFontService,sans-serif" font-weight="400" font-size="11" transform="translate(500.344 122)">值比较</text><g clip-path="url(#clip10)"><text font-family="DengXian,DengXian_MSFontService,sans-serif" font-weight="400" font-size="11" transform="translate(596.86 96)">通常用于</text></g><text font-family="DengXian,DengXian_MSFontService,sans-serif" font-weight="400" font-size="11" transform="translate(639.527 96)">1</text><g clip-path="url(#clip11)"><text font-family="DengXian,DengXian_MSFontService,sans-serif" font-weight="400" font-size="11" transform="translate(645.194 96)">对或者几对专业上有特殊意义的样</text></g><text font-family="DengXian,DengXian_MSFontService,sans-serif" font-weight="400" font-size="11" transform="translate(663.694 109)">本均数间的比较<tspan x="-3.25336" y="13">检验水准仍然为</tspan><tspan x="71.4133" y="13">α</tspan><tspan x="10.6666" y="26">灵敏度最高</tspan></text><g clip-path="url(#clip12)"><text font-family="DengXian,DengXian_MSFontService,sans-serif" font-weight="400" font-size="11" transform="translate(814.03 104)">会因为对比的频数增加使得第一类型错误概</text></g><text font-family="DengXian,DengXian_MSFontService,sans-serif" font-weight="400" font-size="11" transform="translate(899.364 117)">率增加<tspan font-size="9" x="-81.0867" y="12">为解决该问题，便出现了</tspan><tspan font-size="9" x="21.58" y="12">Sidak</tspan><tspan font-size="9" x="42.9133" y="12">法和</tspan><tspan font-size="9" x="61.58" y="12">Bonferroni</tspan><tspan font-size="9" x="103.747" y="12">法</tspan><tspan x="-674.033" y="61">Sidak</tspan><tspan font-size="9" x="-598.762" y="56">计算公式和</tspan><tspan font-size="9" x="-552.095" y="56">LSD</tspan><tspan font-size="9" x="-536.429" y="56">法的相同，但是</tspan><tspan font-size="9" x="-581.095" y="67">Sidak</tspan><tspan font-size="9" x="-559.762" y="67">法对</tspan><tspan font-size="9" x="-541.095" y="67">α</tspan><tspan font-size="9" x="-535.429" y="67">进行了调整</tspan><tspan x="-425.687" y="61">各组间的两两比较</tspan><tspan x="-225" y="54">灵敏度很高</tspan><tspan x="-233.92" y="67">较</tspan><tspan x="-223.253" y="67">LSD</tspan><tspan x="-205.42" y="67">保守一些</tspan><tspan x="-80" y="61">相对其他方法，第一类的错误还是比较高</tspan><tspan x="-686.033" y="141">Bonferroni</tspan></text><g clip-path="url(#clip13)"><text font-family="DengXian,DengXian_MSFontService,sans-serif" font-weight="400" font-size="9" transform="translate(293.098 248)">同样是在</text></g><text font-family="DengXian,DengXian_MSFontService,sans-serif" font-weight="400" font-size="9" transform="translate(330.432 248)">LSD<tspan x="15.6667" y="0">法的基础上对</tspan><tspan x="71.6667" y="0">α</tspan></text><g clip-path="url(#clip14)"><text font-family="DengXian,DengXian_MSFontService,sans-serif" font-weight="400" font-size="9" transform="translate(407.765 248)">进行了</text></g><g clip-path="url(#clip15)"><text font-family="DengXian,DengXian_MSFontService,sans-serif" font-weight="400" font-size="9" transform="translate(292.018 259)">调整，其调整方法基于</text></g><text font-family="DengXian,DengXian_MSFontService,sans-serif" font-weight="400" font-size="9" transform="translate(385.352 259)">Bonferroni</text><g clip-path="url(#clip16)"><text font-family="DengXian,DengXian_MSFontService,sans-serif" font-weight="400" font-size="9" transform="translate(427.518 259)">不</text></g><text font-family="DengXian,DengXian_MSFontService,sans-serif" font-weight="400" font-size="9" transform="translate(355.098 270)">等式</text><g clip-path="url(#clip17)"><text font-family="DengXian,DengXian_MSFontService,sans-serif" font-weight="400" font-size="11" transform="translate(441.677 252)">各组间的两两比较，或者多个均</text></g><text font-family="DengXian,DengXian_MSFontService,sans-serif" font-weight="400" font-size="11" transform="translate(500.344 265)">值比较<tspan x="147.35" y="-32">一般认为是最为保守的</tspan><tspan x="104.683" y="-19">当比较的次数不多时，该方法效果比较好</tspan></text><g clip-path="url(#clip18)"><text font-family="DengXian,DengXian_MSFontService,sans-serif" font-weight="400" font-size="11" transform="translate(599.694 259)">可以测试实验组之间以及实验组和对照组之</text></g><text font-family="DengXian,DengXian_MSFontService,sans-serif" font-weight="400" font-size="11" transform="translate(679.694 272)">间的差异<tspan x="-10.6667" y="13">很多实现工具</tspan></text><g clip-path="url(#clip19)"><text font-family="DengXian,DengXian_MSFontService,sans-serif" font-weight="400" font-size="11" transform="translate(813.614 233)">当比较次数较多时（如</text></g><text font-family="DengXian,DengXian_MSFontService,sans-serif" font-weight="400" font-size="11" transform="translate(920.28 233)">k&gt;10)<tspan x="26.6667" y="0">，该方法对</tspan><tspan font-family="MS Gothic,MS Gothic_MSFontService,sans-serif" x="80" y="1">​</tspan><tspan x="83" y="0">[</tspan></text><g clip-path="url(#clip20)"><text font-family="DengXian,DengXian_MSFontService,sans-serif" font-weight="400" font-size="11" transform="translate(1006.45 233)">公</text></g><text font-family="DengXian,DengXian_MSFontService,sans-serif" font-weight="400" font-size="11" transform="translate(814.78 246)">式<tspan x="10.6667" y="0">] </tspan><tspan x="16.8334" y="0">的调整有些矫枉过正，效果不如</tspan><tspan x="166.167" y="0">Sidak</tspan><tspan x="190.5" y="0">法</tspan><tspan x="57.92" y="13">组的大小必须相等</tspan><tspan x="25.92" y="26">必须由研究人员定义比较的分组</tspan><tspan fill="#FF0000" font-weight="700" x="52.5867" y="39">不能用于探索性研究</tspan><tspan x="-590.699" y="77">Tukey</tspan><tspan x="-615.533" y="90">(Turkey Honestly </tspan></text><g clip-path="url(#clip21)"><text font-family="DengXian,DengXian_MSFontService,sans-serif" font-weight="400" font-size="11" transform="translate(189.081 349)">significant difference, </text></g><text font-family="DengXian,DengXian_MSFontService,sans-serif" font-weight="400" font-size="11" transform="translate(209.081 362)">Turkey HSD)</text><g clip-path="url(#clip22)"><text font-family="DengXian,DengXian_MSFontService,sans-serif" font-weight="400" font-size="9" transform="translate(289.765 321)">基于学生化极差的成对比较</text></g><text font-family="DengXian,DengXian_MSFontService,sans-serif" font-weight="400" font-size="9" transform="translate(401.765 321)">,思想和</text><g clip-path="url(#clip23)"><text font-family="DengXian,DengXian_MSFontService,sans-serif" font-weight="400" font-size="9" transform="translate(287.018 332)">LSD</text></g><text font-family="DengXian,DengXian_MSFontService,sans-serif" font-weight="400" font-size="9" transform="translate(302.685 332)">方法类似，通过计算<tspan x="84" y="0">HSD</tspan></text><g clip-path="url(#clip24)"><text font-family="DengXian,DengXian_MSFontService,sans-serif" font-weight="400" font-size="9" transform="translate(404.518 332)">统计量，</text></g><g clip-path="url(#clip25)"><text font-family="DengXian,DengXian_MSFontService,sans-serif" font-weight="400" font-size="9" transform="translate(290.765 343)">如果两组均数的差异大于该极差，</text></g><g clip-path="url(#clip26)"><text font-family="DengXian,DengXian_MSFontService,sans-serif" font-weight="400" font-size="9" transform="translate(290.765 354)">认为差异是显著的，因此拒绝零假</text></g><text font-family="DengXian,DengXian_MSFontService,sans-serif" font-weight="400" font-size="9" transform="translate(314.098 365)">设，认为两组均数不同<tspan font-size="11" x="159.579" y="-23">各组间的两两比较</tspan><tspan font-size="11" x="328.262" y="-48">当比较的组合互相独立时</tspan><tspan fill="#00B050" font-weight="700" font-size="11" x="344.262" y="-35">可用于验证性研究</tspan><tspan font-size="11" x="338.929" y="-22">提供许多统计软件包</tspan><tspan font-size="11" x="341.429" y="-9">降低</tspan><tspan font-size="11" x="362.762" y="-9">1</tspan><tspan font-size="11" x="368.429" y="-9">型错误的风险</tspan><tspan font-size="11" x="322.929" y="4">团体人数不相等时可以使用</tspan><tspan font-size="11" x="547.932" y="-48">不能测试多个均值比较</tspan><tspan font-size="11" x="513.265" y="-35">受</tspan><tspan font-size="11" x="523.932" y="-35">II</tspan><tspan font-size="11" x="529.265" y="-35">型错误的影响，不如其他测试强大</tspan><tspan fill="#0070C0" font-weight="700" font-size="11" x="547.932" y="-22">不适合探索性统计研究</tspan><tspan font-size="11" x="520.265" y="-9">不如</tspan><tspan font-size="11" x="541.599" y="-9">Scheffee</tspan><tspan font-size="11" x="580.599" y="-9">或</tspan><tspan font-size="11" x="591.265" y="-9">Bonferroni</tspan><tspan font-size="11" x="639.599" y="-9">实现广泛</tspan><tspan font-size="11" x="542.599" y="4">要求比较的样本容量相等</tspan><tspan font-size="11" x="-111.681" y="36">Newman</tspan><tspan font-size="11" x="-70.6806" y="36">-</tspan><tspan font-size="11" x="-65.3472" y="36">Keuls</tspan><tspan font-size="11" x="-121.767" y="49">(Student</tspan><tspan font-size="11" x="-83.1006" y="49">–</tspan><tspan font-size="11" x="-77.7673" y="49">Newman</tspan><tspan font-size="11" x="-36.7672" y="49">–</tspan><tspan font-size="11" x="-90.1006" y="62">Keuls)</tspan></text><g clip-path="url(#clip27)"><text font-family="DengXian,DengXian_MSFontService,sans-serif" font-weight="400" font-size="9" transform="translate(293.018 386)">也称为</text></g><text font-family="DengXian,DengXian_MSFontService,sans-serif" font-weight="400" font-size="9" transform="translate(321.018 386)">q<tspan x="5.33334" y="0">检验</tspan><tspan x="24" y="0">,</tspan>是对<tspan x="44.6667" y="0">Tukey</tspan></text><g clip-path="url(#clip28)"><text font-family="DengXian,DengXian_MSFontService,sans-serif" font-weight="400" font-size="9" transform="translate(389.185 386)">法的修正，</text></g><g clip-path="url(#clip29)"><text font-family="DengXian,DengXian_MSFontService,sans-serif" font-weight="400" font-size="9" transform="translate(294.432 397)">也用的是学生化极差统计量。但是</text></g><g clip-path="url(#clip30)"><text font-family="DengXian,DengXian_MSFontService,sans-serif" font-weight="400" font-size="9" transform="translate(292.018 408)">与</text></g><text font-family="DengXian,DengXian_MSFontService,sans-serif" font-weight="400" font-size="9" transform="translate(301.352 408)">Tukey</text><g clip-path="url(#clip31)"><text font-family="DengXian,DengXian_MSFontService,sans-serif" font-weight="400" font-size="9" transform="translate(324.852 408)">法所不同的是，该方法在计</text></g><g clip-path="url(#clip32)"><text font-family="DengXian,DengXian_MSFontService,sans-serif" font-weight="400" font-size="9" transform="translate(294.432 419)">算临界值时考虑了两样本均数排序</text></g><g clip-path="url(#clip33)"><text font-family="DengXian,DengXian_MSFontService,sans-serif" font-weight="400" font-size="9" transform="translate(294.432 430)">的步长。因而不同步长的两个样本</text></g><text font-family="DengXian,DengXian_MSFontService,sans-serif" font-weight="400" font-size="9" transform="translate(301.098 442)">均数的比较使用不同的<tspan x="93.3333" y="0">q</tspan><tspan x="98.6667" y="0">临界值</tspan><tspan font-size="11" x="172.579" y="-28">各组间的两两比较</tspan><tspan font-size="11" x="357.262" y="-48">比图基方法更强大</tspan><tspan font-size="11" x="351.929" y="-35">一些统计软件包提供</tspan><tspan font-size="11" x="354.595" y="-22">降低</tspan><tspan font-size="11" x="375.929" y="-22">II</tspan><tspan font-size="11" x="381.262" y="-22">型错误的风险</tspan><tspan font-size="11" x="330.595" y="-9">更可能发现细微但重要的差异</tspan><tspan font-size="11" x="571.599" y="-41">不测试复杂的对比</tspan><tspan font-size="11" x="571.599" y="-28">组的大小必须相等</tspan><tspan font-size="11" x="570.265" y="-15">受到</tspan><tspan font-size="11" x="591.599" y="-15">I</tspan><tspan font-size="11" x="594.265" y="-15">类错误的约束</tspan><tspan font-size="11" x="-81.1039" y="32">Duncan</tspan><tspan font-size="11" x="-96.9373" y="45">(Duncan's new </tspan><tspan font-size="11" x="-106.517" y="58">multiple range test </tspan><tspan font-size="11" x="-80.4373" y="71">,DMRT)</tspan></text><g clip-path="url(#clip34)"><text font-family="DengXian,DengXian_MSFontService,sans-serif" font-weight="400" font-size="9" transform="translate(290.685 477)">与</text></g><text font-family="DengXian,DengXian_MSFontService,sans-serif" font-weight="400" font-size="9" transform="translate(300.018 477)">SNK</text><g clip-path="url(#clip35)"><text font-family="DengXian,DengXian_MSFontService,sans-serif" font-weight="400" font-size="9" transform="translate(316.852 477)">法相似，区别在于计算最小显</text></g><g clip-path="url(#clip36)"><text font-family="DengXian,DengXian_MSFontService,sans-serif" font-weight="400" font-size="9" transform="translate(293.598 488)">著极差时，不是查</text></g><text font-family="DengXian,DengXian_MSFontService,sans-serif" font-weight="400" font-size="9" transform="translate(368.265 488)">q<tspan x="5.33334" y="0">表，而是查</tspan></text><g clip-path="url(#clip37)"><text font-family="DengXian,DengXian_MSFontService,sans-serif" font-weight="400" font-size="9" transform="translate(420.265 488)">SSR</text></g><g clip-path="url(#clip38)"><text font-family="DengXian,DengXian_MSFontService,sans-serif" font-weight="400" font-size="9" transform="translate(292.265 499)">表，所得最小显著极差值随着</text></g><text font-family="DengXian,DengXian_MSFontService,sans-serif" font-weight="400" font-size="9" transform="translate(413.598 499)">k</text><g clip-path="url(#clip39)"><text font-family="DengXian,DengXian_MSFontService,sans-serif" font-weight="400" font-size="9" transform="translate(417.932 499)">增大</text></g><text font-family="DengXian,DengXian_MSFontService,sans-serif" font-weight="400" font-size="9" transform="translate(323.352 510)">通常比<tspan x="28" y="0">SNK</tspan><tspan x="44.8333" y="0">检验的小</tspan><tspan font-size="11" x="150.325" y="-17">各组间的两两比较</tspan></text><g clip-path="url(#clip40)"><text font-family="DengXian,DengXian_MSFontService,sans-serif" font-weight="400" font-size="11" transform="translate(598.027 487)">当比较较大的平均值对时，</text></g><text font-family="DengXian,DengXian_MSFontService,sans-serif" font-weight="400" font-size="11" transform="translate(726.027 487)">DMRT<tspan x="28.1667" y="0">比</tspan><tspan x="38.8334" y="0">LSD</tspan></text><g clip-path="url(#clip41)"><text font-family="DengXian,DengXian_MSFontService,sans-serif" font-weight="400" font-size="11" transform="translate(782.694 487)">更有</text></g><text font-family="DengXian,DengXian_MSFontService,sans-serif" font-weight="400" font-size="11" transform="translate(695.694 500)">用</text><g clip-path="url(#clip42)"><text font-family="DengXian,DengXian_MSFontService,sans-serif" font-weight="400" font-size="11" transform="translate(811.03 487)">与防止</text></g><text font-family="DengXian,DengXian_MSFontService,sans-serif" font-weight="400" font-size="11" transform="translate(843.03 487)">I<tspan x="2.66669" y="0">型错误的</tspan><tspan x="45.3333" y="0">LSD</tspan><tspan x="63.1667" y="0">相比，</tspan>DMRT</text><g clip-path="url(#clip43)"><text font-family="DengXian,DengXian_MSFontService,sans-serif" font-weight="400" font-size="11" transform="translate(966.364 487)">倾向于在平</text></g><text font-family="DengXian,DengXian_MSFontService,sans-serif" font-weight="400" font-size="11" transform="translate(856.697 500)">均值之间要求更大的差异<tspan x="-638.699" y="80">Scheffee</tspan></text><g clip-path="url(#clip44)"><text font-family="DengXian,DengXian_MSFontService,sans-serif" font-weight="400" font-size="9" transform="translate(293.855 553)">Scheffe</text></g><g clip-path="url(#clip45)"><text font-family="DengXian,DengXian_MSFontService,sans-serif" font-weight="400" font-size="9" transform="translate(323.022 553)">检验的临界值是方差乘以单</text></g><g clip-path="url(#clip46)"><text font-family="DengXian,DengXian_MSFontService,sans-serif" font-weight="400" font-size="9" transform="translate(294.435 564)">因素方差分析的临界值之间的自由</text></g><g clip-path="url(#clip47)"><text font-family="DengXian,DengXian_MSFontService,sans-serif" font-weight="400" font-size="9" transform="translate(294.435 575)">度，检验原理为对多组均数的线性</text></g><g clip-path="url(#clip48)"><text font-family="DengXian,DengXian_MSFontService,sans-serif" font-weight="400" font-size="9" transform="translate(291.935 586)">组合是否为</text></g><text font-family="DengXian,DengXian_MSFontService,sans-serif" font-weight="400" font-size="9" transform="translate(338.602 586)">0</text><g clip-path="url(#clip49)"><text font-family="DengXian,DengXian_MSFontService,sans-serif" font-weight="400" font-size="9" transform="translate(343.602 586)">进行假设检验，可以同</text></g><g clip-path="url(#clip50)"><text font-family="DengXian,DengXian_MSFontService,sans-serif" font-weight="400" font-size="9" transform="translate(294.435 597)">时检验所有可能的对比，不用再两</text></g><text font-family="DengXian,DengXian_MSFontService,sans-serif" font-weight="400" font-size="9" transform="translate(345.768 609)">两去比较</text><g clip-path="url(#clip51)"><text font-family="DengXian,DengXian_MSFontService,sans-serif" font-weight="400" font-size="11" transform="translate(441.677 573)">各组间的两两比较，或者多个均</text></g><text font-family="DengXian,DengXian_MSFontService,sans-serif" font-weight="400" font-size="11" transform="translate(500.344 586)">值比较<tspan fill="#00B050" font-weight="700" x="104.683" y="-38">有利于探索性数据分析和验证性实验数据</tspan><tspan x="152.683" y="-25">相对高效的检验效能</tspan><tspan x="142.017" y="-12">无需事先定义要比较的组</tspan><tspan x="152.683" y="1">提供许多统计软件包</tspan><tspan x="155.35" y="14">降低</tspan><tspan x="176.683" y="14">II</tspan><tspan x="182.017" y="14">型错误的风险</tspan><tspan x="163.35" y="26">不需要两两比较</tspan></text><g clip-path="url(#clip52)"><text font-family="DengXian,DengXian_MSFontService,sans-serif" font-weight="400" font-size="11" transform="translate(810.78 548)">较其他多重比较分析，它的检验水准</text></g><text font-family="DengXian,DengXian_MSFontService,sans-serif" font-weight="400" font-size="11" transform="translate(981.447 548)">α</text><g clip-path="url(#clip53)"><text font-family="DengXian,DengXian_MSFontService,sans-serif" font-weight="400" font-size="11" transform="translate(987.947 548)">升高更</text></g><text font-family="DengXian,DengXian_MSFontService,sans-serif" font-weight="400" font-size="11" transform="translate(904.7 561)">明显</text><g clip-path="url(#clip54)"><text font-family="DengXian,DengXian_MSFontService,sans-serif" font-weight="400" font-size="11" transform="translate(813.367 574)">与其他</text></g><text font-family="DengXian,DengXian_MSFontService,sans-serif" font-weight="400" font-size="11" transform="translate(845.367 574)">MCA</text><g clip-path="url(#clip55)"><text font-family="DengXian,DengXian_MSFontService,sans-serif" font-weight="400" font-size="11" transform="translate(868.034 574)">统计数据相比，此类数据更容易</text></g><text font-family="DengXian,DengXian_MSFontService,sans-serif" font-weight="400" font-size="11" transform="translate(871.367 587)">遭受<tspan x="21.3334" y="0">I</tspan><tspan x="24" y="0">类错误的影响</tspan><tspan x="1.33337" y="13">组的大小必须相等</tspan><tspan x="-652.369" y="86">Dunnett</tspan></text><g clip-path="url(#clip56)"><text font-family="DengXian,DengXian_MSFontService,sans-serif" font-weight="400" font-size="9" transform="translate(292.768 668)">计算与</text></g><text font-family="DengXian,DengXian_MSFontService,sans-serif" font-weight="400" font-size="9" transform="translate(320.768 668)">LSD<tspan x="15.6667" y="0">法相同，但是</tspan><tspan x="71.6667" y="0">LSD</tspan></text><g clip-path="url(#clip57)"><text font-family="DengXian,DengXian_MSFontService,sans-serif" font-weight="400" font-size="9" transform="translate(408.102 668)">法临界</text></g><text font-family="DengXian,DengXian_MSFontService,sans-serif" font-weight="400" font-size="9" transform="translate(316.188 679)">值表基于<tspan x="37.3333" y="0">Dunnett</tspan><tspan x="70.1667" y="0">-</tspan><tspan x="74.8333" y="0">t</tspan>分布</text><g clip-path="url(#clip58)"><text font-family="DengXian,DengXian_MSFontService,sans-serif" font-weight="400" font-size="11" transform="translate(441.677 635)">通常用于多个实验组和一个对照</text></g><text font-family="DengXian,DengXian_MSFontService,sans-serif" font-weight="400" font-size="11" transform="translate(484.344 648)">组均数的比较</text><g clip-path="url(#clip59)"><text font-family="DengXian,DengXian_MSFontService,sans-serif" font-weight="400" font-size="11" transform="translate(441.677 661)">对照组与每个实验组或实验组组</text></g><text font-family="DengXian,DengXian_MSFontService,sans-serif" font-weight="400" font-size="11" transform="translate(495.01 674)">合的对比</text><g clip-path="url(#clip60)"><text font-family="DengXian,DengXian_MSFontService,sans-serif" font-weight="400" font-size="11" transform="translate(441.677 687)">当方差分析拒绝均值均等假设时</text></g><text font-family="DengXian,DengXian_MSFontService,sans-serif" font-weight="400" font-size="11" transform="translate(505.677 699)">使用<tspan x="174.017" y="-45">功能强大</tspan></text><g clip-path="url(#clip61)"><text font-family="DengXian,DengXian_MSFontService,sans-serif" font-weight="400" font-size="11" transform="translate(599.694 667)">有益于发现实验组和对照组之间的微小差异</text></g><g clip-path="url(#clip62)"><text font-family="DengXian,DengXian_MSFontService,sans-serif" font-weight="400" font-size="11" transform="translate(599.694 680)">直接对照对照组进行实验组的具体测试，从</text></g><text font-family="DengXian,DengXian_MSFontService,sans-serif" font-weight="400" font-size="11" transform="translate(642.36 693)">而更清楚地说明这些差异<tspan x="230.337" y="-33">没有得到广泛使用</tspan><tspan x="214.337" y="-20">不测试实验组之间的差异</tspan><tspan fill="#0070C0" font-weight="700" x="219.67" y="-7">不适合探索性统计研究</tspan></text></g></svg>