<svg width="1280" height="720" xmlns="http://www.w3.org/2000/svg" xmlns:xlink="http://www.w3.org/1999/xlink" overflow="hidden"><defs><clipPath id="clip0"><rect x="0" y="0" width="1280" height="720"/></clipPath></defs><g clip-path="url(#clip0)"><rect x="0" y="0" width="1280" height="720" fill="#FFFFFF"/><path d="M191.5 32.5001 191.5 688.576" stroke="#4472C4" stroke-width="3" stroke-miterlimit="8" fill="none" fill-rule="evenodd"/><path d="M191.5 616.5 1151.57 616.5" stroke="#4472C4" stroke-width="3" stroke-miterlimit="8" fill="none" fill-rule="evenodd"/><path d="M206 597.549C213.217 597.278 220.434 597.007 228.733 596.466 237.032 595.924 244.61 595.564 255.796 594.3 266.982 593.037 285.385 590.872 295.85 588.887 306.314 586.902 312.809 584.375 318.583 582.39 324.356 580.405 330.49 576.977 330.49 576.977 336.625 574.089 347.811 569.217 355.388 565.066 362.966 560.916 370.002 556.585 375.956 552.074 381.91 547.562 386.782 542.329 391.112 537.998 395.442 533.667 398.689 529.336 401.937 526.088 405.184 522.84 407.891 521.757 410.597 518.509 413.303 515.26 415.468 510.208 418.175 506.599 420.881 502.989 423.407 501.365 426.835 496.854 430.263 492.343 438.743 479.53 438.743 479.53 442.712 473.756 447.222 468.342 450.65 462.206 454.078 456.071 455.702 449.755 459.311 442.717 462.919 435.679 467.79 428.281 472.301 419.98 476.811 411.679 482.224 401.393 486.374 392.911 490.523 384.43 493.771 376.67 497.199 369.091 500.627 361.512 503.514 354.835 506.942 347.436 510.37 340.037 513.978 333.18 517.767 324.699 521.556 316.217 526.066 305.209 529.675 296.547 533.283 287.885 537.072 278.502 539.417 272.727 541.763 266.952 541.943 265.328 543.748 261.9 545.552 258.471 548.258 255.584 550.243 252.155 552.227 248.726 554.031 244.937 555.655 241.328 557.279 237.719 558.181 234.47 559.985 230.5 561.79 226.53 564.135 221.658 566.481 217.507 568.826 213.357 571.893 209.748 574.058 205.597 576.223 201.447 576.223 198.379 579.471 192.604 582.718 186.83 589.574 176.724 593.544 170.95 597.513 165.175 600.4 162.107 603.286 157.957 606.173 153.806 607.977 149.836 610.864 146.047 613.751 142.257 616.998 138.468 620.607 135.219 624.215 131.971 628.365 128.903 632.515 126.557 636.664 124.211 641.355 122.226 645.505 121.144 649.655 120.061 653.443 119.881 657.413 120.061 661.382 120.241 665.351 120.422 669.32 122.226 673.29 124.031 677.078 127.821 681.228 130.888 685.378 133.956 689.888 136.663 694.218 140.633 698.549 144.603 703.24 149.475 707.209 154.709 711.178 159.942 714.426 166.077 718.034 172.032 721.642 177.987 725.612 184.484 728.859 190.439 732.107 196.394 734.813 202.89 737.519 207.763 740.226 212.635 741.849 213.898 745.097 219.673 748.345 225.448 753.396 235.373 757.005 242.41 760.613 249.448 764.222 256.486 766.748 261.9 769.273 267.313 769.995 269.298 772.16 274.893 774.325 280.487 776.31 287.344 779.738 295.465 783.166 303.585 789.12 316.037 792.728 323.616 796.337 331.195 798.682 334.985 801.388 340.94 804.095 346.895 806.26 352.85 808.966 359.346 811.672 365.843 813.837 372.159 817.626 379.918 821.415 387.678 827.188 397.422 831.699 405.904 836.21 414.385 840.54 422.686 844.689 430.807 848.839 438.927 852.989 448.672 856.597 454.627 860.206 460.582 863.633 462.567 866.34 466.537 869.046 470.507 869.768 473.756 872.835 478.447 875.902 483.139 881.134 489.997 884.743 494.688 888.351 499.38 891.057 501.546 894.485 506.599 897.913 511.651 901.161 519.952 905.311 525.005 909.46 530.058 914.512 532.404 919.383 536.915 924.255 541.427 929.126 548.104 934.539 552.074 939.951 556.044 946.988 557.668 951.859 560.736 956.731 563.803 959.617 567.954 963.767 570.48 967.917 573.007 972.247 573.728 976.757 575.894 981.268 578.059 985.598 581.668 990.83 583.473 996.062 585.278 1002.56 585.278 1008.15 586.721 1013.74 588.165 1020.6 591.413 1024.39 592.135 1028.18 592.857 1027.64 590.691 1030.88 591.052 1034.13 591.413 1039 593.398 1043.87 594.3 1048.75 595.203 1054.52 595.564 1060.11 596.466 1065.7 597.368 1072.2 599.173 1077.43 599.714 1082.66 600.255 1088.08 599.895 1091.5 599.714 1094.93 599.534 1096.47 599.083 1098 598.631" stroke="#000000" stroke-width="2" stroke-miterlimit="8" stroke-dasharray="2 2" fill="#F2F2F2" fill-rule="evenodd" fill-opacity="0.34902"/><path d="M349 583.122C351.006 583.025 353.013 582.928 355.32 582.734 357.628 582.54 359.735 582.41 362.845 581.958 365.955 581.505 371.071 580.729 373.981 580.018 376.89 579.306 378.696 578.401 380.301 577.69 381.906 576.979 383.612 575.75 383.612 575.75 385.317 574.715 388.427 572.969 390.534 571.482 392.641 569.995 394.597 568.443 396.252 566.826 397.908 565.21 399.262 563.335 400.466 561.783 401.67 560.231 402.573 558.679 403.476 557.515 404.379 556.351 405.131 555.963 405.883 554.799 406.636 553.635 407.238 551.824 407.99 550.531 408.743 549.238 409.445 548.656 410.398 547.039 411.351 545.423 413.709 540.832 413.709 540.832 414.812 538.762 416.066 536.823 417.019 534.624 417.972 532.425 418.424 530.162 419.427 527.64 420.43 525.118 421.785 522.467 423.039 519.493 424.293 516.518 425.798 512.832 426.951 509.793 428.105 506.754 429.008 503.973 429.961 501.258 430.914 498.542 431.717 496.149 432.67 493.498 433.623 490.847 434.626 488.389 435.68 485.35 436.733 482.311 437.987 478.367 438.99 475.263 439.994 472.159 441.047 468.796 441.699 466.727 442.351 464.658 442.401 464.076 442.903 462.847 443.405 461.619 444.157 460.584 444.709 459.356 445.26 458.127 445.762 456.769 446.214 455.476 446.665 454.182 446.916 453.019 447.417 451.596 447.919 450.173 448.571 448.427 449.223 446.94 449.875 445.453 450.728 444.16 451.33 442.672 451.932 441.185 451.932 440.086 452.835 438.017 453.738 435.947 455.644 432.326 456.748 430.257 457.851 428.188 458.654 427.088 459.456 425.601 460.259 424.114 460.76 422.691 461.563 421.333 462.366 419.975 463.269 418.618 464.272 417.454 465.275 416.29 466.429 415.19 467.583 414.35 468.736 413.509 470.04 412.798 471.194 412.41 472.348 412.022 473.401 411.957 474.505 412.022 475.608 412.087 476.712 412.151 477.816 412.798 478.919 413.444 479.972 414.802 481.126 415.902 482.28 417.001 483.534 417.971 484.738 419.393 485.942 420.816 487.246 422.562 488.349 424.437 489.453 426.312 490.356 428.511 491.359 430.645 492.362 432.779 493.466 435.107 494.369 437.241 495.272 439.375 496.024 441.702 496.777 443.448 497.529 445.194 497.981 445.647 498.883 447.716 499.786 449.785 501.191 453.342 502.194 455.864 503.197 458.386 504.201 460.907 504.903 462.847 505.605 464.787 505.806 465.499 506.408 467.503 507.01 469.508 507.561 471.965 508.515 474.875 509.468 477.785 511.123 482.246 512.126 484.962 513.129 487.678 513.782 489.036 514.534 491.17 515.286 493.304 515.888 495.438 516.641 497.766 517.393 500.094 517.995 502.357 519.049 505.137 520.102 507.918 521.707 511.41 522.961 514.449 524.215 517.488 525.419 520.463 526.573 523.372 527.727 526.282 528.88 529.774 529.883 531.908 530.887 534.042 531.84 534.753 532.592 536.176 533.345 537.598 533.545 538.762 534.398 540.444 535.251 542.125 536.706 544.582 537.709 546.263 538.712 547.945 539.464 548.721 540.417 550.531 541.371 552.342 542.273 555.316 543.427 557.127 544.581 558.937 545.985 559.778 547.34 561.395 548.694 563.011 550.049 565.404 551.553 566.826 553.058 568.249 555.015 568.831 556.369 569.93 557.723 571.03 558.526 572.517 559.68 573.422 560.833 574.327 562.037 574.586 563.291 575.362 564.545 576.138 565.749 577.431 567.204 578.078 568.659 578.724 570.464 578.724 572.019 579.242 573.574 579.759 575.481 580.923 576.534 581.182 577.587 581.44 577.437 580.664 578.34 580.794 579.243 580.923 580.597 581.634 581.951 581.958 583.306 582.281 584.911 582.41 586.466 582.734 588.021 583.057 589.827 583.704 591.282 583.898 592.736 584.092 594.241 583.962 595.194 583.898 596.147 583.833 596.574 583.671 597 583.51" stroke="#F8CBAD" stroke-width="2" stroke-miterlimit="8" fill="#F8CBAD" fill-rule="evenodd" fill-opacity="0.470588"/><text fill="#FF0000" font-family="Baskerville Old Face,Baskerville Old Face_MSFontService,sans-serif" font-style="oblique" font-weight="400" font-size="21" transform="translate(464.9 505)">X</text><path d="M436 517.576C438.807 517.529 441.615 517.482 444.843 517.389 448.072 517.295 451.02 517.233 455.371 517.014 459.723 516.796 466.882 516.422 470.953 516.078 475.023 515.735 477.55 515.298 479.796 514.955 482.042 514.612 484.428 514.019 484.428 514.019 486.815 513.52 491.166 512.677 494.114 511.959 497.062 511.242 499.799 510.493 502.115 509.713 504.431 508.933 506.326 508.028 508.011 507.279 509.695 506.53 510.959 505.781 512.222 505.219 513.485 504.658 514.538 504.47 515.591 503.909 516.644 503.347 517.486 502.473 518.539 501.849 519.592 501.225 520.574 500.944 521.908 500.164 523.241 499.384 526.54 497.169 526.54 497.169 528.084 496.17 529.839 495.234 531.172 494.173 532.506 493.112 533.138 492.02 534.541 490.803 535.945 489.586 537.84 488.307 539.595 486.871 541.349 485.436 543.455 483.657 545.069 482.191 546.683 480.724 547.947 479.383 549.28 478.072 550.614 476.761 551.737 475.607 553.07 474.327 554.404 473.048 555.808 471.862 557.282 470.396 558.755 468.929 560.51 467.026 561.914 465.528 563.318 464.03 564.792 462.408 565.704 461.409 566.616 460.411 566.686 460.13 567.388 459.537 568.09 458.944 569.143 458.445 569.915 457.852 570.687 457.259 571.389 456.604 572.021 455.98 572.652 455.355 573.003 454.794 573.705 454.107 574.407 453.421 575.319 452.578 576.232 451.861 577.144 451.143 578.337 450.519 579.18 449.801 580.022 449.083 580.022 448.553 581.285 447.555 582.549 446.556 585.216 444.809 586.76 443.81 588.304 442.812 589.427 442.281 590.55 441.563 591.673 440.846 592.375 440.159 593.498 439.504 594.621 438.849 595.884 438.193 597.288 437.632 598.691 437.07 600.306 436.54 601.92 436.134 603.534 435.728 605.359 435.385 606.973 435.198 608.588 435.011 610.061 434.979 611.606 435.011 613.15 435.042 614.694 435.073 616.238 435.385 617.782 435.697 619.256 436.352 620.87 436.883 622.484 437.413 624.239 437.881 625.924 438.568 627.608 439.254 629.433 440.097 630.977 441.002 632.521 441.907 633.784 442.968 635.188 443.997 636.592 445.027 638.136 446.15 639.399 447.18 640.663 448.21 641.715 449.333 642.768 450.176 643.821 451.018 644.453 451.237 645.716 452.235 646.979 453.234 648.945 454.95 650.348 456.167 651.752 457.384 653.156 458.601 654.138 459.537 655.121 460.473 655.402 460.816 656.244 461.784 657.086 462.751 657.858 463.937 659.192 465.341 660.525 466.745 662.841 468.898 664.245 470.209 665.649 471.519 666.561 472.174 667.614 473.204 668.667 474.234 669.509 475.264 670.562 476.387 671.615 477.51 672.457 478.602 673.931 479.944 675.405 481.286 677.651 482.971 679.405 484.438 681.16 485.904 682.844 487.34 684.459 488.744 686.073 490.148 687.687 491.833 689.091 492.863 690.495 493.892 691.828 494.236 692.881 494.922 693.934 495.609 694.215 496.17 695.408 496.982 696.601 497.793 698.636 498.979 700.04 499.79 701.444 500.601 702.497 500.976 703.83 501.849 705.164 502.723 706.427 504.158 708.041 505.032 709.656 505.906 711.621 506.311 713.516 507.092 715.411 507.872 717.306 509.026 719.411 509.713 721.517 510.399 724.254 510.68 726.149 511.211 728.044 511.741 729.167 512.459 730.781 512.896 732.396 513.332 734.08 513.457 735.835 513.832 737.59 514.206 739.274 514.83 741.309 515.142 743.345 515.454 745.872 515.454 748.047 515.704 750.223 515.953 752.89 516.515 754.364 516.64 755.838 516.765 755.627 516.39 756.891 516.453 758.154 516.515 760.049 516.858 761.944 517.014 763.839 517.17 766.085 517.233 768.261 517.389 770.437 517.545 772.963 517.857 774.999 517.951 777.034 518.044 779.14 517.982 780.473 517.951 781.807 517.919 782.403 517.841 783 517.763" stroke="#C5E0B4" stroke-width="2" stroke-miterlimit="8" fill="#C5E0B4" fill-rule="evenodd" fill-opacity="0.419608"/><text fill="#FF0000" font-family="Baskerville Old Face,Baskerville Old Face_MSFontService,sans-serif" font-style="oblique" font-weight="400" font-size="21" transform="translate(602.374 483)">Y</text><path d="M738 594.443C740.516 594.382 743.032 594.32 745.926 594.197 748.82 594.075 751.462 593.993 755.362 593.706 759.262 593.419 765.678 592.927 769.326 592.476 772.975 592.026 775.24 591.452 777.252 591.001 779.265 590.55 781.404 589.772 781.404 589.772 783.543 589.116 787.443 588.01 790.085 587.067 792.727 586.125 795.18 585.141 797.256 584.117 799.332 583.092 801.03 581.904 802.54 580.92 804.05 579.937 805.182 578.953 806.314 578.216 807.447 577.478 808.39 577.232 809.334 576.495 810.277 575.757 811.032 574.61 811.976 573.79 812.919 572.971 813.8 572.602 814.995 571.577 816.19 570.553 819.147 567.643 819.147 567.643 820.531 566.332 822.103 565.103 823.299 563.709 824.494 562.316 825.06 560.882 826.318 559.284 827.576 557.685 829.274 556.005 830.847 554.12 832.42 552.235 834.307 549.9 835.754 547.974 837.2 546.048 838.333 544.285 839.528 542.564 840.723 540.843 841.73 539.327 842.925 537.647 844.12 535.967 845.378 534.41 846.699 532.484 848.02 530.558 849.593 528.058 850.851 526.091 852.109 524.124 853.43 521.993 854.248 520.682 855.065 519.37 855.128 519.002 855.757 518.223 856.386 517.444 857.33 516.789 858.022 516.01 858.714 515.232 859.343 514.371 859.909 513.552 860.475 512.732 860.79 511.994 861.419 511.093 862.048 510.191 862.865 509.085 863.683 508.142 864.501 507.2 865.57 506.38 866.325 505.438 867.08 504.495 867.08 503.799 868.212 502.487 869.345 501.176 871.735 498.881 873.119 497.57 874.503 496.259 875.509 495.562 876.516 494.619 877.522 493.677 878.151 492.775 879.158 491.915 880.164 491.054 881.297 490.194 882.555 489.456 883.813 488.718 885.26 488.022 886.706 487.489 888.153 486.956 889.789 486.506 891.235 486.26 892.682 486.014 894.003 485.973 895.387 486.014 896.771 486.055 898.155 486.096 899.539 486.506 900.923 486.915 902.244 487.776 903.691 488.473 905.137 489.169 906.71 489.784 908.22 490.685 909.729 491.587 911.365 492.693 912.749 493.882 914.133 495.07 915.265 496.463 916.523 497.816 917.781 499.168 919.165 500.643 920.297 501.996 921.43 503.348 922.373 504.823 923.317 505.929 924.26 507.036 924.826 507.323 925.959 508.634 927.091 509.945 928.852 512.199 930.11 513.797 931.369 515.396 932.627 516.994 933.507 518.223 934.388 519.452 934.64 519.903 935.394 521.174 936.149 522.444 936.841 524.001 938.036 525.845 939.232 527.689 941.307 530.517 942.566 532.238 943.824 533.959 944.641 534.819 945.585 536.172 946.529 537.524 947.283 538.876 948.227 540.352 949.171 541.827 949.925 543.261 951.246 545.023 952.567 546.785 954.58 548.998 956.153 550.924 957.726 552.85 959.235 554.735 960.682 556.579 962.129 558.423 963.576 560.636 964.834 561.988 966.092 563.341 967.287 563.791 968.231 564.693 969.174 565.594 969.426 566.332 970.495 567.397 971.565 568.463 973.389 570.02 974.647 571.086 975.905 572.151 976.849 572.643 978.044 573.79 979.239 574.938 980.371 576.823 981.818 577.97 983.265 579.117 985.026 579.65 986.724 580.674 988.423 581.699 990.121 583.215 992.008 584.117 993.896 585.018 996.349 585.387 998.047 586.084 999.746 586.78 1000.75 587.723 1002.2 588.297 1003.65 588.87 1005.16 589.034 1006.73 589.526 1008.3 590.018 1009.81 590.837 1011.63 591.247 1013.46 591.657 1015.72 591.657 1017.67 591.985 1019.62 592.312 1022.01 593.05 1023.33 593.214 1024.66 593.378 1024.47 592.886 1025.6 592.968 1026.73 593.05 1028.43 593.501 1030.13 593.706 1031.83 593.911 1033.84 593.993 1035.79 594.197 1037.74 594.402 1040 594.812 1041.83 594.935 1043.65 595.058 1045.54 594.976 1046.74 594.935 1047.93 594.894 1048.47 594.792 1049 594.689" stroke="#8FAADC" stroke-width="2" stroke-miterlimit="8" fill="#00B0F0" fill-rule="evenodd" fill-opacity="0.419608"/><text fill="#FF0000" font-family="Baskerville Old Face,Baskerville Old Face_MSFontService,sans-serif" font-style="oblique" font-weight="400" font-size="21" transform="translate(886.949 548)">Z</text><path d="M473.5 387.5 473.5 616.55" stroke="#0456BA" stroke-width="1.33333" stroke-miterlimit="8" stroke-dasharray="10.6667 4 1.33333 4" fill="none" fill-rule="evenodd"/><path d="M609.5 387.5 609.5 616.55" stroke="#0456BA" stroke-width="1.33333" stroke-miterlimit="8" stroke-dasharray="10.6667 4 1.33333 4" fill="none" fill-rule="evenodd"/><path d="M893.5 387.5 893.5 616.55" stroke="#0456BA" stroke-width="1.33333" stroke-miterlimit="8" stroke-dasharray="10.6667 4 1.33333 4" fill="none" fill-rule="evenodd"/><path d="M400.5 562.5 400.5 562.5" stroke="#4472C4" stroke-width="0.666667" stroke-miterlimit="8" fill="none" fill-rule="evenodd"/><path d="M399.98 565 401.98 565 401.98 567 399.98 567ZM403.98 565 405.98 565 405.98 567 403.98 567ZM407.98 565 409.98 565 409.98 567 407.98 567ZM411.98 565 413.98 565 413.98 567 411.98 567ZM415.98 565 417.98 565 417.98 567 415.98 567ZM419.98 565 421.98 565 421.98 567 419.98 567ZM423.98 565 425.98 565 425.98 567 423.98 567ZM427.98 565 429.98 565 429.98 567 427.98 567ZM431.98 565 433.98 565 433.98 567 431.98 567ZM435.98 565 437.98 565 437.98 567 435.98 567ZM439.98 565 441.98 565 441.98 567 439.98 567ZM443.98 565 445.98 565 445.98 567 443.98 567ZM447.98 565 449.98 565 449.98 567 447.98 567ZM451.98 565 453.98 565 453.98 567 451.98 567ZM455.98 565 457.98 565 457.98 567 455.98 567ZM459.98 565 461.98 565 461.98 567 459.98 567ZM463.98 565 465.98 565 465.98 567 463.98 567ZM467.98 565 469.98 565 469.98 567 467.98 567ZM471.98 565 473.98 565 473.98 567 471.98 567ZM475.98 565 477.98 565 477.98 567 475.98 567ZM479.98 565 481.98 565 481.98 567 479.98 567ZM483.98 565 485.98 565 485.98 567 483.98 567ZM487.98 565 489.98 565 489.98 567 487.98 567ZM491.98 565 493.98 565 493.98 567 491.98 567ZM495.98 565 497.98 565 497.98 567 495.98 567ZM499.98 565 501.98 565 501.98 567 499.98 567ZM503.98 565 505.98 565 505.98 567 503.98 567ZM507.98 565 509.98 565 509.98 567 507.98 567ZM511.98 565 513.98 565 513.98 567 511.98 567ZM515.98 565 517.98 565 517.98 567 515.98 567ZM519.98 565 521.98 565 521.98 567 519.98 567ZM523.98 565 525.98 565 525.98 567 523.98 567ZM527.98 565 529.98 565 529.98 567 527.98 567ZM531.98 565 533.98 565 533.98 567 531.98 567ZM535.98 565 537.98 565 537.98 567 535.98 567ZM539.98 565 541.98 565 541.98 567 539.98 567ZM543.98 565 545.98 565 545.98 567 543.98 567ZM547.98 565 548.426 565 548.426 567 547.98 567ZM407.476 571.53 397.995 566 407.476 560.47C407.953 560.191 408.565 560.352 408.844 560.829 409.122 561.307 408.961 561.919 408.484 562.197L400.484 566.864 400.484 565.136 408.484 569.803C408.961 570.081 409.122 570.693 408.844 571.171 408.565 571.648 407.953 571.809 407.476 571.53ZM540.93 560.47 550.411 566 540.93 571.531C540.453 571.809 539.84 571.648 539.562 571.171 539.284 570.694 539.445 570.081 539.922 569.803L547.922 565.136 547.922 566.864 539.922 562.197C539.445 561.919 539.284 561.307 539.562 560.83 539.84 560.352 540.453 560.191 540.93 560.47Z" fill="#FF0000"/><path d="M514.98 506 516.98 506 516.98 508 514.98 508ZM518.98 506 520.98 506 520.98 508 518.98 508ZM522.98 506 524.98 506 524.98 508 522.98 508ZM526.98 506 528.98 506 528.98 508 526.98 508ZM530.98 506 532.98 506 532.98 508 530.98 508ZM534.98 506 536.98 506 536.98 508 534.98 508ZM538.98 506 540.98 506 540.98 508 538.98 508ZM542.98 506 544.98 506 544.98 508 542.98 508ZM546.98 506 548.98 506 548.98 508 546.98 508ZM550.98 506 552.98 506 552.98 508 550.98 508ZM554.98 506 556.98 506 556.98 508 554.98 508ZM558.98 506 560.98 506 560.98 508 558.98 508ZM562.98 506 564.98 506 564.98 508 562.98 508ZM566.98 506 568.98 506 568.98 508 566.98 508ZM570.98 506 572.98 506 572.98 508 570.98 508ZM574.98 506 576.98 506 576.98 508 574.98 508ZM578.98 506 580.98 506 580.98 508 578.98 508ZM582.98 506 584.98 506 584.98 508 582.98 508ZM586.98 506 588.98 506 588.98 508 586.98 508ZM590.98 506 592.98 506 592.98 508 590.98 508ZM594.98 506 596.98 506 596.98 508 594.98 508ZM598.98 506 600.98 506 600.98 508 598.98 508ZM602.98 506 604.98 506 604.98 508 602.98 508ZM606.98 506 608.98 506 608.98 508 606.98 508ZM610.98 506 612.98 506 612.98 508 610.98 508ZM614.98 506 616.98 506 616.98 508 614.98 508ZM618.98 506 620.98 506 620.98 508 618.98 508ZM622.98 506 624.98 506 624.98 508 622.98 508ZM626.98 506 628.98 506 628.98 508 626.98 508ZM630.98 506 632.98 506 632.98 508 630.98 508ZM634.98 506 636.98 506 636.98 508 634.98 508ZM638.98 506 640.98 506 640.98 508 638.98 508ZM642.98 506 644.98 506 644.98 508 642.98 508ZM646.98 506 648.98 506 648.98 508 646.98 508ZM650.98 506 652.98 506 652.98 508 650.98 508ZM654.98 506 656.98 506 656.98 508 654.98 508ZM658.98 506 660.98 506 660.98 508 658.98 508ZM662.98 506 664.98 506 664.98 508 662.98 508ZM666.98 506 668.98 506 668.98 508 666.98 508ZM670.98 506 672.98 506 672.98 508 670.98 508ZM674.98 506 676.98 506 676.98 508 674.98 508ZM678.98 506 680.98 506 680.98 508 678.98 508ZM682.98 506 684.98 506 684.98 508 682.98 508ZM686.98 506 688.98 506 688.98 508 686.98 508ZM690.98 506 692.98 506 692.98 508 690.98 508ZM694.98 506 696.98 506 696.98 508 694.98 508ZM698.98 506 700.98 506 700.98 508 698.98 508ZM702.98 506 704.98 506 704.98 508 702.98 508ZM706.98 506 708.98 506 708.98 508 706.98 508ZM710.98 506 712.931 506 712.931 508 710.98 508ZM522.476 512.53 512.995 507 522.476 501.47C522.953 501.191 523.565 501.352 523.844 501.829 524.122 502.307 523.961 502.919 523.484 503.197L515.484 507.864 515.484 506.136 523.484 510.803C523.961 511.081 524.122 511.693 523.844 512.171 523.565 512.648 522.953 512.809 522.476 512.53ZM705.435 501.47 714.916 507 705.435 512.531C704.958 512.809 704.346 512.648 704.068 512.171 703.79 511.694 703.951 511.081 704.428 510.803L712.428 506.136 712.428 507.864 704.428 503.197C703.951 502.919 703.79 502.307 704.068 501.83 704.346 501.353 704.958 501.191 705.435 501.47Z" fill="#FF0000"/><path d="M829.98 557 831.98 557 831.98 559 829.98 559ZM833.98 557 835.98 557 835.98 559 833.98 559ZM837.98 557 839.98 557 839.98 559 837.98 559ZM841.98 557 843.98 557 843.98 559 841.98 559ZM845.98 557 847.98 557 847.98 559 845.98 559ZM849.98 557 851.98 557 851.98 559 849.98 559ZM853.98 557 855.98 557 855.98 559 853.98 559ZM857.98 557 859.98 557 859.98 559 857.98 559ZM861.98 557 863.98 557 863.98 559 861.98 559ZM865.98 557 867.98 557 867.98 559 865.98 559ZM869.98 557 871.98 557 871.98 559 869.98 559ZM873.98 557 875.98 557 875.98 559 873.98 559ZM877.98 557 879.98 557 879.98 559 877.98 559ZM881.98 557 883.98 557 883.98 559 881.98 559ZM885.98 557 887.98 557 887.98 559 885.98 559ZM889.98 557 891.98 557 891.98 559 889.98 559ZM893.98 557 895.98 557 895.98 559 893.98 559ZM897.98 557 899.98 557 899.98 559 897.98 559ZM901.98 557 903.98 557 903.98 559 901.98 559ZM905.98 557 907.98 557 907.98 559 905.98 559ZM909.98 557 911.98 557 911.98 559 909.98 559ZM913.98 557 915.98 557 915.98 559 913.98 559ZM917.98 557 919.98 557 919.98 559 917.98 559ZM921.98 557 923.98 557 923.98 559 921.98 559ZM925.98 557 927.98 557 927.98 559 925.98 559ZM929.98 557 931.98 557 931.98 559 929.98 559ZM933.98 557 935.98 557 935.98 559 933.98 559ZM937.98 557 939.98 557 939.98 559 937.98 559ZM941.98 557 943.98 557 943.98 559 941.98 559ZM945.98 557 947.98 557 947.98 559 945.98 559ZM949.98 557 951.98 557 951.98 559 949.98 559ZM953.98 557 955.98 557 955.98 559 953.98 559ZM957.98 557 959.98 557 959.98 559 957.98 559ZM837.476 563.53 827.995 558 837.476 552.47C837.953 552.191 838.565 552.352 838.844 552.829 839.122 553.307 838.961 553.919 838.484 554.197L830.484 558.864 830.484 557.136 838.484 561.803C838.961 562.081 839.122 562.693 838.844 563.171 838.565 563.648 837.953 563.809 837.476 563.53ZM954.13 552.47 963.61 558 954.13 563.531C953.653 563.809 953.04 563.648 952.762 563.171 952.484 562.694 952.645 562.081 953.122 561.803L961.122 557.136 961.122 558.864 953.122 554.197C952.645 553.919 952.484 553.307 952.762 552.83 953.04 552.352 953.653 552.191 954.13 552.47Z" fill="#FF0000"/><path d="M660.5 209.5 660.5 616.418" stroke="#0456BA" stroke-width="1.33333" stroke-miterlimit="8" stroke-dasharray="10.6667 4 1.33333 4" fill="none" fill-rule="evenodd"/><path d="M472.979 594 474.979 594 474.979 596 472.979 596ZM476.979 594 478.979 594 478.979 596 476.979 596ZM480.979 594 482.979 594 482.979 596 480.979 596ZM484.979 594 486.979 594 486.979 596 484.979 596ZM488.979 594 490.979 594 490.979 596 488.979 596ZM492.979 594 494.979 594 494.979 596 492.979 596ZM496.979 594 498.979 594 498.979 596 496.979 596ZM500.979 594 502.979 594 502.979 596 500.979 596ZM504.979 594 506.979 594 506.979 596 504.979 596ZM508.979 594 510.979 594 510.979 596 508.979 596ZM512.979 594 514.979 594 514.979 596 512.979 596ZM516.979 594 518.979 594 518.979 596 516.979 596ZM520.979 594 522.979 594 522.979 596 520.979 596ZM524.979 594 526.979 594 526.979 596 524.979 596ZM528.979 594 530.979 594 530.979 596 528.979 596ZM532.979 594 534.979 594 534.979 596 532.979 596ZM536.979 594 538.979 594 538.979 596 536.979 596ZM540.979 594 542.979 594 542.979 596 540.979 596ZM544.979 594 546.979 594 546.979 596 544.979 596ZM548.979 594 550.979 594 550.979 596 548.979 596ZM552.979 594 554.979 594 554.979 596 552.979 596ZM556.979 594 558.979 594 558.979 596 556.979 596ZM560.979 594 562.979 594 562.979 596 560.979 596ZM564.979 594 566.979 594 566.979 596 564.979 596ZM568.979 594 570.979 594 570.979 596 568.979 596ZM572.979 594 574.979 594 574.979 596 572.979 596ZM576.979 594 578.979 594 578.979 596 576.979 596ZM580.979 594 582.979 594 582.979 596 580.979 596ZM584.979 594 586.979 594 586.979 596 584.979 596ZM588.979 594 590.979 594 590.979 596 588.979 596ZM592.979 594 594.979 594 594.979 596 592.979 596ZM596.979 594 598.979 594 598.979 596 596.979 596ZM600.979 594 602.979 594 602.979 596 600.979 596ZM604.979 594 606.979 594 606.979 596 604.979 596ZM608.979 594 610.979 594 610.979 596 608.979 596ZM612.979 594 614.979 594 614.979 596 612.979 596ZM616.979 594 618.979 594 618.979 596 616.979 596ZM620.979 594 622.979 594 622.979 596 620.979 596ZM624.979 594 626.979 594 626.979 596 624.979 596ZM628.979 594 630.979 594 630.979 596 628.979 596ZM632.979 594 634.979 594 634.979 596 632.979 596ZM636.979 594 638.979 594 638.979 596 636.979 596ZM640.979 594 642.979 594 642.979 596 640.979 596ZM644.979 594 646.979 594 646.979 596 644.979 596ZM648.979 594 650.979 594 650.979 596 648.979 596ZM652.979 594 654.979 594 654.979 596 652.979 596ZM656.979 594 657.593 594 657.593 596 656.979 596ZM480.476 600.53 470.995 595 480.476 589.47C480.953 589.191 481.565 589.352 481.844 589.829 482.122 590.307 481.961 590.919 481.484 591.197L473.484 595.864 473.484 594.136 481.484 598.803C481.961 599.081 482.122 599.693 481.844 600.171 481.565 600.648 480.953 600.809 480.476 600.53ZM650.097 589.47 659.578 595 650.097 600.531C649.62 600.809 649.008 600.648 648.73 600.171 648.451 599.694 648.613 599.081 649.09 598.803L657.09 594.136 657.09 595.864 649.09 591.197C648.613 590.919 648.451 590.307 648.73 589.83 649.008 589.353 649.62 589.191 650.097 589.47Z" fill="#00B050"/><path d="M610.98 537 612.98 537 612.98 539 610.98 539ZM614.98 537 616.98 537 616.98 539 614.98 539ZM618.98 537 620.98 537 620.98 539 618.98 539ZM622.98 537 624.98 537 624.98 539 622.98 539ZM626.98 537 628.98 537 628.98 539 626.98 539ZM630.98 537 632.98 537 632.98 539 630.98 539ZM634.98 537 636.98 537 636.98 539 634.98 539ZM638.98 537 640.98 537 640.98 539 638.98 539ZM642.98 537 644.98 537 644.98 539 642.98 539ZM646.98 537 648.98 537 648.98 539 646.98 539ZM650.98 537 652.98 537 652.98 539 650.98 539ZM654.98 537 656.98 537 656.98 539 654.98 539ZM618.476 543.53 608.995 538 618.476 532.47C618.953 532.191 619.565 532.352 619.844 532.829 620.122 533.307 619.961 533.919 619.484 534.197L611.484 538.864 611.484 537.136 619.484 541.803C619.961 542.081 620.122 542.693 619.844 543.171 619.565 543.648 618.953 543.809 618.476 543.53ZM649.955 532.47 659.435 538 649.955 543.531C649.478 543.809 648.865 543.648 648.587 543.171 648.309 542.694 648.47 542.081 648.947 541.803L656.947 537.136 656.947 538.864 648.947 534.197C648.47 533.919 648.309 533.307 648.587 532.83 648.865 532.352 649.478 532.191 649.955 532.47Z" fill="#00B050"/><path d="M1.9808-0.997222 3.9808-0.994416 3.97799 1.00558 1.97799 1.00278ZM5.98079-0.991611 7.98079-0.988805 7.97799 1.01119 5.97799 1.00839ZM9.98079-0.985999 11.9808-0.983193 11.978 1.0168 9.97798 1.014ZM13.9808-0.980388 15.9808-0.977582 15.978 1.02242 13.978 1.01961ZM17.9808-0.974776 19.9808-0.97197 19.978 1.02803 17.978 1.02522ZM21.9808-0.969164 23.9808-0.966359 23.978 1.03364 21.978 1.03083ZM25.9808-0.963553 27.9808-0.960747 27.978 1.03925 25.978 1.03645ZM29.9808-0.957942 31.9808-0.955136 31.978 1.04486 29.978 1.04206ZM33.9808-0.95233 35.9808-0.949524 35.978 1.05047 33.978 1.04767ZM37.9808-0.946719 39.9808-0.943913 39.9779 1.05609 37.9779 1.05328ZM41.9808-0.941107 43.9807-0.938301 43.9779 1.0617 41.9779 1.05889ZM45.9807-0.935495 47.9807-0.93269 47.9779 1.06731 45.9779 1.0645ZM49.9807-0.929884 51.9807-0.927078 51.9779 1.07292 49.9779 1.07011ZM53.9807-0.924272 55.9807-0.921467 55.9779 1.07853 53.9779 1.07573ZM57.9807-0.918661 59.9807-0.915855 59.9779 1.08414 57.9779 1.08134ZM61.9807-0.913049 63.9807-0.910244 63.9779 1.08975 61.9779 1.08695ZM65.9807-0.907438 67.9807-0.904632 67.9779 1.09537 65.9779 1.09256ZM69.9807-0.901826 71.9807-0.899021 71.9779 1.10098 69.9779 1.09817ZM73.9807-0.896215 75.9807-0.893409 75.9779 1.10659 73.9779 1.10378ZM77.9807-0.890603 79.9807-0.887798 79.9779 1.1122 77.9779 1.10939ZM81.9807-0.884992 83.9807-0.882186 83.9779 1.11781 81.9779 1.11501ZM85.9807-0.87938 87.9807-0.876575 87.9779 1.12342 85.9779 1.12062ZM89.9807-0.873769 91.9807-0.870963 91.9779 1.12904 89.9779 1.12623ZM93.9807-0.868157 95.9807-0.865352 95.9779 1.13465 93.9779 1.13184ZM97.9807-0.862546 99.9807-0.85974 99.9779 1.14026 97.9779 1.13745ZM101.981-0.856934 103.981-0.854128 103.978 1.14587 101.978 1.14306ZM105.981-0.851323 107.981-0.848517 107.978 1.15148 105.978 1.14868ZM109.981-0.845711 111.981-0.842905 111.978 1.15709 109.978 1.15429ZM113.981-0.8401 115.981-0.837294 115.978 1.1627 113.978 1.1599ZM117.981-0.834488 119.981-0.831682 119.978 1.16832 117.978 1.16551ZM121.981-0.828877 123.981-0.826071 123.978 1.17393 121.978 1.17112ZM125.981-0.823265 127.981-0.820459 127.978 1.17954 125.978 1.17673ZM129.981-0.817654 131.981-0.814848 131.978 1.18515 129.978 1.18234ZM133.981-0.812042 135.981-0.809236 135.978 1.19076 133.978 1.18796ZM137.981-0.806431 139.981-0.803625 139.978 1.19637 137.978 1.19357ZM141.981-0.800819 143.981-0.798013 143.978 1.20198 141.978 1.19918ZM145.981-0.795208 147.981-0.792402 147.978 1.2076 145.978 1.20479ZM149.981-0.789596 151.981-0.78679 151.978 1.21321 149.978 1.2104ZM153.981-0.783985 155.981-0.781179 155.978 1.21882 153.978 1.21601ZM157.981-0.778373 159.981-0.775567 159.978 1.22443 157.978 1.22163ZM161.981-0.772762 163.981-0.769956 163.978 1.23004 161.978 1.22724ZM165.981-0.76715 167.981-0.764344 167.978 1.23565 165.978 1.23285ZM169.981-0.761539 171.981-0.758733 171.978 1.24127 169.978 1.23846ZM173.981-0.755927 175.981-0.753121 175.978 1.24688 173.978 1.24407ZM177.981-0.750315 179.981-0.74751 179.978 1.25249 177.978 1.24968ZM181.981-0.744704 183.981-0.741898 183.978 1.2581 181.978 1.25529ZM185.981-0.739092 187.981-0.736287 187.978 1.26371 185.978 1.26091ZM189.981-0.733481 191.981-0.730675 191.978 1.26932 189.978 1.26652ZM193.981-0.727869 195.981-0.725064 195.978 1.27493 193.978 1.27213ZM197.981-0.722258 199.981-0.719452 199.978 1.28055 197.978 1.27774ZM201.981-0.716646 203.981-0.713841 203.978 1.28616 201.978 1.28335ZM205.981-0.711035 207.981-0.708229 207.978 1.29177 205.978 1.28896ZM209.981-0.705423 211.981-0.702618 211.978 1.29738 209.978 1.29457ZM213.981-0.699812 215.981-0.697006 215.978 1.30299 213.978 1.30019ZM217.981-0.6942 219.981-0.691395 219.978 1.3086 217.978 1.3058ZM221.981-0.688589 223.981-0.685783 223.978 1.31422 221.978 1.31141ZM225.981-0.682977 227.981-0.680171 227.978 1.31983 225.978 1.31702ZM229.981-0.677366 231.981-0.67456 231.978 1.32544 229.978 1.32263ZM9.46836 5.54373-0.0046348-6.58911e-06 9.48388-5.51715C9.96132-5.79476 10.5734-5.63276 10.851-5.15532 11.1286-4.67788 10.9666-4.06579 10.4892-3.78818L2.48266 0.867263 2.48508-0.860293 10.4785 3.81759C10.9552 4.09654 11.1155 4.70908 10.8365 5.18575 10.5576 5.66241 9.94502 5.82268 9.46836 5.54373ZM226.342-5.21292 235.815 0.33082 226.326 5.84796C225.849 6.12557 225.237 5.96357 224.959 5.48613 224.682 5.00869 224.844 4.3966 225.321 4.11899L233.328-0.536449 233.325 1.19111 225.332-3.48678C224.855-3.76573 224.695-4.37827 224.974-4.85493 225.253-5.33159 225.865-5.49187 226.342-5.21292Z" fill="#00B050" transform="matrix(1 0 0 -1 660 447.331)"/><path d="M263.98 125 265.98 125 265.98 127 263.98 127ZM267.98 125 269.98 125 269.98 127 267.98 127ZM271.98 125 273.98 125 273.98 127 271.98 127ZM275.98 125 277.98 125 277.98 127 275.98 127ZM279.98 125 281.98 125 281.98 127 279.98 127ZM283.98 125 285.98 125 285.98 127 283.98 127ZM287.98 125 289.98 125 289.98 127 287.98 127ZM291.98 125 293.98 125 293.98 127 291.98 127ZM295.98 125 297.98 125 297.98 127 295.98 127ZM299.98 125 301.98 125 301.98 127 299.98 127ZM303.98 125 305.98 125 305.98 127 303.98 127ZM307.98 125 309.98 125 309.98 127 307.98 127ZM311.98 125 313.98 125 313.98 127 311.98 127ZM315.98 125 317.98 125 317.98 127 315.98 127ZM319.98 125 321.98 125 321.98 127 319.98 127ZM323.98 125 325.98 125 325.98 127 323.98 127ZM327.98 125 329.98 125 329.98 127 327.98 127ZM331.98 125 333.98 125 333.98 127 331.98 127ZM335.98 125 337.98 125 337.98 127 335.98 127ZM339.98 125 341.664 125 341.664 127 339.98 127ZM271.476 131.53 261.995 126 271.476 120.47C271.953 120.191 272.565 120.352 272.844 120.829 273.122 121.307 272.961 121.919 272.484 122.197L264.484 126.864 264.484 125.136 272.484 129.803C272.961 130.081 273.122 130.693 272.844 131.171 272.565 131.648 271.953 131.809 271.476 131.53ZM334.167 120.47 343.648 126 334.167 131.531C333.69 131.809 333.078 131.648 332.8 131.171 332.521 130.694 332.683 130.081 333.16 129.803L341.16 125.136 341.16 126.864 333.16 122.197C332.683 121.919 332.521 121.307 332.8 120.83 333.078 120.353 333.69 120.191 334.167 120.47Z" fill="#FF0000"/><path d="M263.98 177 265.98 177 265.98 179 263.98 179ZM267.98 177 269.98 177 269.98 179 267.98 179ZM271.98 177 273.98 177 273.98 179 271.98 179ZM275.98 177 277.98 177 277.98 179 275.98 179ZM279.98 177 281.98 177 281.98 179 279.98 179ZM283.98 177 285.98 177 285.98 179 283.98 179ZM287.98 177 289.98 177 289.98 179 287.98 179ZM291.98 177 293.98 177 293.98 179 291.98 179ZM295.98 177 297.98 177 297.98 179 295.98 179ZM299.98 177 301.98 177 301.98 179 299.98 179ZM303.98 177 305.98 177 305.98 179 303.98 179ZM307.98 177 309.98 177 309.98 179 307.98 179ZM311.98 177 313.98 177 313.98 179 311.98 179ZM315.98 177 317.98 177 317.98 179 315.98 179ZM319.98 177 321.98 177 321.98 179 319.98 179ZM323.98 177 325.98 177 325.98 179 323.98 179ZM327.98 177 329.98 177 329.98 179 327.98 179ZM331.98 177 333.98 177 333.98 179 331.98 179ZM335.98 177 337.98 177 337.98 179 335.98 179ZM339.98 177 341.664 177 341.664 179 339.98 179ZM271.476 183.53 261.995 178 271.476 172.47C271.953 172.191 272.565 172.352 272.844 172.829 273.122 173.307 272.961 173.919 272.484 174.197L264.484 178.864 264.484 177.136 272.484 181.803C272.961 182.081 273.122 182.693 272.844 183.171 272.565 183.648 271.953 183.809 271.476 183.53ZM334.167 172.47 343.648 178 334.167 183.531C333.69 183.809 333.078 183.648 332.8 183.171 332.521 182.694 332.683 182.081 333.16 181.803L341.16 177.136 341.16 178.864 333.16 174.197C332.683 173.919 332.521 173.307 332.8 172.83 333.078 172.353 333.69 172.191 334.167 172.47Z" fill="#00B050"/><text font-family="DengXian,DengXian_MSFontService,sans-serif" font-weight="400" font-size="15" transform="translate(349.561 131)">组内<tspan x="29.3333" y="0">差异</tspan><tspan font-weight="700" font-size="21" x="58.6667" y="0">MS</tspan><tspan font-weight="700" font-size="16" x="90" y="0">b</tspan><tspan x="0" y="52">组间</tspan><tspan x="29.3333" y="52">差异</tspan><tspan font-weight="700" font-size="21" x="58.6667" y="52">MSw</tspan></text></g></svg>